<svg xmlns="http://www.w3.org/2000/svg" width="157.03" height="138.581" fill-rule="evenodd" clip-rule="evenodd" image-rendering="optimizeQuality" shape-rendering="geometricPrecision" text-rendering="geometricPrecision" viewBox="0 0 1248 1101" id="in">
  <path fill="#2a6a9d" d="M99 234c0 0 0 0 0 0-1 0-1 0-1 0 1 0 1 0 1 0zm-1 8c7 3 14 6 21 8 3 0 5 0 7-2 2-3 0-5-2-7-4-4-9-5-15-7-7-3-16-3-24-3-1 0-2-1-2 0-1 2 0 3 1 3 4 4 9 7 14 8zM1154 616c0-1 1 0 2 0 2 0 3 0 4-2 1-2-2-2-2-3-1-1-2-1-2-2-3 2-6 4-10 0-1-1-2-2-3 0 0 2 1 5-1 7-1 1-1 3 1 2 3 0 8 5 11-2zM52 527l0 0c2 2 4 1 6 1 7 0 14 0 21 1 1 0 2 0 3 1 3 1 6 1 10-1 0 0 1-1 1-2-3-1-7-1-10-3 0 0 0 0-1 0-3-2-7-1-10-1-5-1-10-2-15-3 0-1 0-1-1-1-8-3-16-2-25 0 7 2 13 8 21 8zM295 83c2 4 6 3 9 3 0 0 0 0 0 0 0 0 0 0 0 0 1-1 2-1 3-1 3 1 5-1 4-4 0-3 0-6-2-9-1-2-3-2-5-3-4-1-9-2-12 1-4 4 0 7 1 11 1 1 1 1 2 2zM48 498c7 4 15 6 23 5 2 0 2 0 2-2-1-6 6-2 7-6-2-2-5-3-8-4 0-2-2-3-4-3-7-2-13-4-20-5-5-1-9-4-13 0-2 0-3 1-3 2 0 2 1 2 3 3 1 0 2 1 3 2 0 6 6 6 10 8zM177 242c-1 1-2 0-2-1-6-4-12-5-19-5 6 4 11 8 19 9 1 1 5 1 2-3zM60 804c0 0 0 0 0 0l0 0 0 0zm27-11c0 0 0 0 0 0-5 0-10 0-15 4-5 4-11 6-17 5-1 0-3 0-4-1-3-1-5 0-7 3-1 2-2 4 0 6 3 2 6 3 9 1 2-1 3-2 4-4 4 0 8-2 13-1 0 0 1 0 2 0 3 2 6 1 9 1 0 0 1 0 1 0 6 1 10-3 15-7 3-3 2-5-2-6-3-1-5-1-8-1zM4 488c4 4 8 1 12 2 2 1 4 2 6 0-1-2-4-1-6-3-3-5-7-4-11-2-3 0-3 1-1 3zM109 881c-1 1-1 2 0 3 3 1 5-1 8-2 2-1 4-2 5-5-1-1-2-2-3-1-4 0-7 2-10 5zM1 523c3 3 7 4 10 5 1 0 3 1 3-1 1-1-1-2-2-3-3-2-7-2-11-2 0 0 0 1 0 1zM10 541c5 1 10 1 15-3-6-3-11 1-15 3zM51 411c3 1 7 2 10 2 2-1 3-1 1-3-7-2-15 0-22 0 3 3 7 1 11 1zM92 618c2 1 3 0 3-1 0-2-1-3-2-3-3 0-7-1-10 1 3 1 6 2 9 3zM51 319c2 3 5 5 10 4-2-4-5-5-8-7-2 0-3-2-6-2-1-1-2-2-4-3-1 0-2-2-3 0-1 1 0 2 1 3 3 2 6 4 10 5zM78 245c-1-3-4-4-7-4-1-1-2 0-2 2 1 2 3 4 7 4 1 0 2 0 2-2zM1161 599c-1-1-1-3-2-2-1 1-2 3-1 3 7 4-1 6-1 9 1 0 2 0 4 0 3-4 2-7 0-10zM133 563c-5-2-11-1-16-1-1-1-2-1-3-1-2-3-5-4-9-3 0 1 0 2 0 2 2 3 5 3 8 3 2 1 3 2 5 3 2 2 4 5 6 8 0 3 0 6 1 9 0 1 0 2 0 3 1 2-2 5 1 6 4 2 5-2 7-4 2-3-1-5-3-7 0-3 2-5 5-6 2-1 5-1 5-5 0-4-4-5-7-7zM58 201c-3-3-5-4-9-3 4 4 4 4 9 3zM64 637c-5-1-7 1-11 3 5 2 8 0 11-3zM142 232c3 3 6 2 10 3-4-4-5-5-10-3zM72 653c0 0-1-1-1-1-3-1-5 1-8 2 0 0 0 0 0 0 0 1 0 1 0 2 3-1 6 0 9-3zM5 470c5 0 10 0 15 0 0 0 0-1 0-1-3-1-7-1-10-2-1 3-4 1-5 3zM1121 501c1-1 0-2-2-3-1 0-2 1-3 2 0 2 1 3 2 4 2 0 3-1 3-3zM53 739c-2 4 0 4 3 4 3 0 4-3 6-5-3 0-6-1-9 1zM1154 518c-1 1-1 2 0 3 1 1 2 1 3 0 1-1 2-1 3-1-1-3 2-1 2-3l0 0c-1-1-1-2-1-3-3 1-5 2-7 4zM7 708c0 0 0 0 1 0 4-1 7-7 12-6-5-4-10 0-15 1 0 0 0 1 0 1 0 0 0 0 0 0 0 0 0-1 0-1 0-1-1-2-3-2 0 0 0 1-1 2 0 1-1 1-1 2 1 1 2 1 2 0 0 1 0 1 0 2 2 0 3 1 5 1zM8 360c-2 0-3 0-4 1 1 3 4 2 6 2 2 1 5 1 7 2 1 0 2 0 3 1 2 2 6 1 9 1 1 0 2-1 2-3-1-1-2-1-4-1 0 0 0 0 0 0-5-3-10-1-16-2-1 0-2-1-3-1zM189 144c0 0-1 1-1 2 1 2 3 3 6 3-1-3-2-5-5-5zM25 696c0 0 0 0 0 0 0 0 0 0 0 0 0 0 0 0 0 0zm47-31c0 0 0 0 0 0 0 0 0 0 0 0 0 0 0 0 0 0zm-41 27c-2 0-3 0-4 1-3 1-6 2-3 6 0 0 1 0 1 1 3 1 6 5 10 2 4 0 6-2 7-5 1-1 1-3 0-3 0-1 0-1 0-1 3 1 5 2 8 1 3-1 7 1 9-3 3-5 8-7 12-9 2-2 5-2 6-6-1 0-2 0-4 0 1 0 1 0 2 0 4-3 9-7 10-12 1-2 1-4-1-5-3-1-7-1-9 2-5 2-8 5-10 10l0 0c0 0 0 0 0 0 0 0 0 0 0 0-2 1-3 3-4 4-1 1-2 2-2 4-3 0-5 0-8-1 0 0-1 1-1 1-4 7-11 11-19 13 0 0 0 0 0 0zM143 592c-3-1-5 0-6 3 3 1 4-2 6-3zM61 250c0 0 0-1 0-2-1-1-3-2-5-1 1 2 2 3 5 3zM16 454c2 2 4 1 6 0-2-2-4-2-6 0zM7 516c1 0 1-1 1-2-1-1-2-1-5 0 1 2 3 2 4 2zM1151 603c0 1 1 2 2 2 1 0 1-1 1-2 0-1 0-2-2-2 0 0-1 1-1 2zM43 364c2 2 3 2 6 1-2-1-4-2-6-1zM116 598c2 1 3 1 5-1-2-1-4-2-5 0 0 0 0 1 0 1zM9 296c0 0 1 0 1 0 2 2 3 3 6 3-1-3-4-3-6-4-1-1-2-3-4-2-1 0-1 0-1 1 1 2 3 1 4 2zM17 516c2 1 3 2 5 1-1-2-3-1-5-1zM1091 216c1-1 0-2-1-2-1-1-1 0-1 2 0 0 1 1 1 1 1 1 1-1 1-1zM207 159l0 0c3 1 5 4 8 6 1 1 2 2 3 2 1 0 3 1 5-1 1-1-1-3-2-4-4-2-7-5-11-6-2 0-4-2-5 0 0 1 1 2 2 3zM60 220c0-1-2-3-2 0 0 1 2 1 4 2-1-1-1-2-2-2zM33 211c-1-1-1-2-2-2-1 0-1 1-1 2 0 1 1 1 2 1 0 0 1-1 1-1zM16 780c1 0 3 1 4 1 0-2-2-3-4-3-1 0 0 1 0 2zM62 615c-1 0-1 1-1 1 0 1 0 1 2 1 0 0 1-1 1-1 0-1-1-1-2-1zM1141 509c0 0 0 0-1 1 0 0 1 1 1 1 1 0 1-1 1-1 0 0 0-1-1-1zM8 272c-1 0-2-1-2 1 0 1 2 1 3 1 0-1-1-1-1-2zM1220 749c1 1 1 2 2 1 1 0-1-4 2-1 1 2 1 5 4 4 3 0 3-3 4-6-4-1-7-1-10-1-1-1-2 1-3 2-1 1 0 1 1 1zM6 632c-4-3-5 0-6 4 3 0 4-2 6-4zM9 776c-2-3-3-4-6-3 2 1 3 3 6 3zM7 626c0-3-1-5-3-6 0 3 0 4 0 6 1 1 3 1 3 0zM1150 676c1 0 3 0 2-3-1-1-2-1-3 0-1 1 0 2 1 3zM1152 646c0 1 1 2 2 2 1 0 2 0 2-1 0-1-1-2-2-2 0 1-2 0-2 1zM1195 730c-1 0-3 0-3 2 1 3 3 2 5 3 1-1 4 0 4-2-1-3-4-3-6-3z"></path>
  <path fill="#2a6a9d" d="M1081 794c0,0 0,0 0,0 -1,-1 -1,0 -1,0 0,0 0,0 1,0zm-111 131c0,0 0,0 0,0 0,0 0,0 0,0 0,0 0,0 0,0zm-15 1c0,0 0,0 0,0 0,0 0,0 0,0 0,0 0,0 0,0zm-50 39c0,0 0,0 0,0 0,0 0,1 0,1 0,0 0,0 0,0 0,0 0,-1 0,-1zm-186 20c0,0 0,0 0,-1 0,0 0,0 0,0 0,0 0,1 0,1zm-316 24c0,0 0,0 0,0 0,0 0,0 0,0 0,0 0,0 0,0zm-10 -21c0,0 0,0 0,1 0,0 0,-1 0,-1 0,0 0,0 0,0zm-66 -4c0,0 0,-1 0,-1 0,0 0,0 0,0 0,0 0,0 0,1zm-18 -30c0,0 0,0 0,0 0,0 0,0 0,0 0,0 0,0 0,0zm-15 -50c0,0 0,0 0,0 0,3 0,4 1,5 -1,0 -1,0 -1,0 1,-2 1,-3 0,-5zm-83 -36c0,0 0,0 0,0 0,0 0,0 0,0 0,0 0,0 0,0zm-2 -9c0,0 0,0 0,0 0,0 0,0 0,0 0,0 0,0 0,0zm-87 -203c0,0 0,-1 -1,-1 1,0 0,0 1,0 0,0 0,1 0,1zm28 -125c0,0 0,0 0,-1 0,1 0,1 0,1 0,0 0,0 0,0zm-15 -41c0,0 0,0 0,0 0,0 0,0 0,0 0,0 0,0 0,0zm17 -29c0,0 0,0 0,0 0,0 0,0 -1,0 1,0 1,0 1,0zm-13 -41c-1,0 -1,0 -1,0 0,0 0,0 0,0 0,0 0,0 0,0 0,0 0,0 1,0zm-11 -33c0,0 0,0 0,0 0,0 0,0 0,0 0,0 0,0 0,0zm39 -79l0 0c1,0 1,0 1,-1 0,0 0,1 -1,1zm111 -132c0,0 0,0 0,0 0,0 0,0 0,0 0,0 0,0 0,0zm15 -1c0,0 0,0 0,0 0,0 0,0 0,0 0,0 0,0 0,0zm50 -39c0,0 0,0 0,0 0,0 0,0 0,-1 0,0 0,0 0,0 0,1 0,1 0,1zm186 -19c0,0 0,0 0,0 0,0 0,0 0,0 0,0 0,0 0,0zm316 -25c0,0 0,0 0,0 0,0 0,0 0,0 0,0 0,0 0,0zm10 21c0,0 0,0 0,0 0,0 0,0 0,0 0,0 0,0 0,0zm66 5c0,0 0,0 0,0 0,0 0,0 0,0 0,0 0,0 0,0zm18 30c0,0 0,0 0,0 0,0 0,0 0,0 0,0 0,0 0,0zm15 49c0,0 0,0 0,0 0,-2 0,-4 -1,-4 1,0 1,0 1,0 -1,1 -1,2 0,4zm83 36c0,0 0,0 0,0 0,0 0,0 0,0 0,0 0,0 0,0zm2 9c0,0 0,0 0,0 0,0 0,0 0,0 0,0 0,0 0,0zm87 203c0,1 0,1 1,1 -1,0 0,1 -1,1 0,-1 0,-1 0,-2zm-28 126c0,0 0,0 0,0 0,0 0,0 0,0 0,0 0,0 0,0zm15 41c0,0 0,0 0,0 0,0 0,0 0,0 0,0 0,0 0,0zm-17 29c0,-1 0,-1 0,-1 0,0 0,0 1,0 0,0 -1,0 -1,1zm14 40c0,0 0,0 0,0 0,0 0,0 0,0 0,0 0,0 0,0 0,0 0,0 0,0zm10 33c0,0 0,0 0,0 0,0 0,0 0,0 0,0 0,0 0,0zm-195 242c0,1 0,1 0,1 0,0 0,1 0,1 0,0 0,0 0,-1 0,0 0,0 0,0 0,0 0,-1 0,-1 0,0 0,0 0,0zm-155 41c0,0 0,0 0,0 0,0 0,0 0,0 0,0 0,0 0,0zm-449 -44c0,1 0,1 0,1 0,0 0,0 0,-1 0,0 0,0 0,0zm-247 -212c-1,1 -1,1 -1,2 0,-1 0,-1 1,-2zm47 -70c1,-1 1,-2 2,-3 0,1 0,1 0,2 0,1 -1,1 -2,1zm69 -159c0,0 0,0 0,0 0,0 0,0 0,0 0,0 0,0 0,0zm-49 -27c0,0 0,0 0,0 0,0 0,0 0,0 0,0 0,0 0,0 0,0 0,-1 0,-1 0,0 0,0 0,0 0,0 0,0 0,1l0 0zm2 -36c0,0 0,0 0,0l0 0c0,0 0,0 0,0zm-4 -24c0,0 -1,0 -1,-1 0,0 1,0 1,0 0,1 0,1 0,1zm-58 -65c0,0 0,0 0,0 0,0 0,0 0,0 0,0 0,0 0,0zm191 -188c0,0 0,0 0,0 0,0 0,0 0,-1 0,1 0,1 0,1zm51 -27c0,0 0,0 0,-1 0,0 0,0 0,-1 0,1 0,1 0,1 0,0 0,0 0,0 0,1 0,1 0,1 0,0 0,0 0,0zm155 -41c0,0 0,0 0,0 0,0 0,0 0,0 0,0 0,0 0,0zm449 44c0,0 0,-1 0,-1 0,0 0,1 0,1 0,0 0,0 0,0zm236 222c0,0 0,-1 0,-1 0,0 0,1 0,1l0 0zm-36 60c-1,1 -1,2 -2,3 0,-1 1,-1 0,-2 0,0 1,-1 2,-1zm-69 159c0,0 0,0 0,0 0,0 0,0 0,0 0,0 0,0 0,0zm49 28c0,0 0,0 0,0 0,0 0,0 0,0 0,0 0,0 0,0 0,0 0,0 0,0 0,0 0,0 0,0 0,0 0,0 0,0l0 0zm-2 35c0,0 0,0 0,0 0,0 0,0 0,0 0,0 0,0 0,0zm4 24c0,0 1,1 1,1 0,0 -1,0 -1,0 0,0 0,-1 0,-1zm58 65c0,0 0,0 0,0 0,0 0,0 0,0 0,0 0,0 0,0zm-68 13c0,0 0,0 0,0 0,0 0,0 0,0 0,0 0,0 0,0zm-37 37c0,0 0,0 0,0 0,0 0,0 0,0 0,0 0,0 0,0zm-29 60c0,0 0,0 0,0 -1,0 -2,1 -3,1 1,0 2,0 3,-1zm-31 24c0,0 0,0 0,0 0,0 0,0 0,0 0,0 0,0 0,0zm-58 46c0,0 0,0 0,0 0,0 0,0 0,0l0 0c0,0 0,0 0,0 0,0 0,0 0,0zm-88 61c0,0 0,0 0,0l0 0c0,0 0,0 0,0 0,0 0,0 0,0zm-74 20c-1,0 -1,0 -1,0 0,0 0,0 0,0 0,0 0,0 1,0zm-145 33c0,0 0,0 0,0 0,0 0,0 0,0 0,0 0,0 0,0zm-231 -46c-1,2 -2,2 -3,4l0 0c1,-2 1,-3 3,-4zm-25 -19c0,0 0,0 0,0 0,0 0,0 0,0 0,0 0,0 0,0zm-108 -107c0,0 0,1 0,1 0,0 0,0 0,0 0,0 0,-1 0,-1 0,0 0,0 0,0zm-77 -1c0,0 0,0 0,0 0,0 0,0 1,0 -1,0 -1,0 -1,0l0 0zm-129 -102c0,-1 0,0 1,0 -1,0 -2,0 -2,0 0,0 0,0 1,0zm-8 6c0,0 1,0 1,0 0,-1 0,-1 0,-1 0,1 -1,1 -1,1zm0 1c0,0 0,0 0,1 0,0 2,1 0,1 -1,0 -1,0 -2,0 1,0 2,-1 2,-2zm106 -67c0,0 0,0 0,0 0,1 0,1 0,1 0,0 -1,0 -1,0 1,0 1,0 1,-1zm-37 -43c0,0 0,0 0,0 0,0 0,0 0,0l0 0zm16 -166c0,0 0,0 0,0 -1,-1 -1,-1 -2,-2 1,1 1,1 2,2zm1 -7c0,0 0,0 0,0 0,0 0,0 0,0 0,0 0,0 0,0zm23 -73c0,0 0,0 0,0 0,0 0,0 0,0 0,0 0,0 0,0zm-19 -64c0,0 0,0 0,0 0,0 0,0 0,0 0,0 0,0 0,0zm38 -37c0,0 0,0 0,0 -1,0 -1,0 -1,0 0,0 0,0 1,0zm59 -84c0,0 0,0 0,0 0,0 0,0 0,0 0,0 0,0 0,0zm58 -46c0,0 0,0 0,0l0 0c0,0 0,0 0,0 0,0 0,0 0,0 0,0 0,0 0,0zm88 -61c0,0 0,0 0,0l0 0c0,0 0,0 0,0 0,0 0,0 0,0zm74 -20c1,0 1,0 1,0 0,0 0,0 0,1 0,-1 0,-1 -1,-1zm145 -33c0,0 0,0 0,0 0,0 0,0 0,0 0,0 0,0 0,0zm231 46c1,-1 2,-2 3,-3l0 0c-1,1 -1,2 -3,3zm25 20c0,0 0,0 0,-1 0,1 0,1 1,1 -1,0 -1,0 -1,0zm314 210c0,0 0,-1 -1,-1 1,0 2,0 2,0 0,0 0,1 -1,1zm8 -7c0,0 0,1 -1,1 0,0 0,0 0,0 0,0 1,-1 1,-1zm0 0c0,-1 0,-1 0,-1 0,-1 -2,-2 0,-2 1,0 1,0 2,0 -1,1 -2,2 -2,3zm1 2c0,0 0,0 0,0 0,0 0,0 0,0zm-107 64c0,0 0,0 0,0 0,0 0,0 0,0 0,0 1,0 1,0 0,0 -1,0 -1,0zm21 209c0,0 0,0 0,0 1,1 1,2 2,2 -1,0 -1,-1 -2,-2zm-1 8c0,0 0,0 0,0 0,0 0,0 0,0 0,0 0,0 0,0zm-23 72c0,0 0,0 0,0 0,0 0,0 0,0 0,0 0,0 0,0zm71 57c0,0 0,0 0,0 0,0 1,0 1,0 -1,0 -1,0 -1,0 0,0 0,0 0,0zm-521 284c0,0 0,0 0,0 1,0 1,0 1,1 0,0 -1,-1 -1,-1zm-116 41c-1,0 -1,0 -1,0 0,0 0,0 1,0zm-151 -107c2,0 2,-1 3,-2 0,0 0,0 0,0 -1,0 -2,1 -3,2 0,0 0,0 0,0 0,0 0,0 0,0 0,0 0,0 0,0zm-73 -76c0,0 0,0 0,0 0,0 0,0 0,0 0,0 0,0 0,0zm-95 -27c0,0 0,0 0,0 0,0 0,0 0,0 0,0 0,0 0,0zm-67 -170c0,0 0,0 0,0 0,0 0,0 0,0 0,0 0,0 0,0zm42 -262c0,0 0,0 0,-1 0,0 0,0 0,0 0,0 0,1 0,1zm-35 -55c0,0 0,0 0,0 0,0 0,0 0,0 0,0 0,0 0,0zm-8 -9c0,0 0,0 0,0 0,0 0,0 0,0 0,0 0,0 0,0zm-30 -12c0,0 0,0 0,0 0,0 -1,0 -1,0 1,0 1,0 1,0 0,0 0,0 0,0zm521 -284c0,0 0,1 0,1 -1,-1 -1,-1 -1,-1 0,0 1,0 1,0zm116 -40c0,0 1,0 1,0 0,0 0,0 -1,0zm151 107c-1,0 -2,0 -3,1 0,0 0,0 0,0 1,0 2,0 3,-1 0,0 0,0 0,0 0,0 0,0 0,0 0,0 0,0 0,0zm73 75c0,0 0,0 0,0 0,0 0,0 0,0 0,0 0,0 0,0zm95 27c0,0 0,0 -1,0 1,0 1,0 1,0 0,0 0,0 0,0zm-1 285c-1,1 -2,2 -2,3 0,-1 1,-2 2,-3zm43 81c0,0 0,0 0,0 0,0 -1,-1 -1,-1 0,0 0,0 0,0 0,0 1,1 1,1zm-17 67c0,0 0,0 0,0 0,0 0,0 0,0 0,0 0,0 0,0zm35 55c0,0 0,0 0,0 0,0 0,0 0,0 0,0 0,0 0,0zm-165 177c0,0 -1,0 -1,0 1,0 1,0 1,0 0,0 0,0 0,0zm-19 7c1,0 1,0 1,0 0,0 0,0 0,0 0,0 0,0 -1,0zm-73 53c0,0 1,0 1,0 0,0 0,1 0,1 0,0 -1,0 -1,-1zm-30 19c0,0 0,0 1,0 -1,0 -1,1 -1,1 0,-1 0,-1 0,-1zm-103 -26c0,0 0,0 0,0 0,0 0,0 0,0 0,0 0,0 0,0zm-41 26c0,0 0,0 0,1 0,0 0,0 0,0 0,0 0,-1 0,-1zm-242 -17c0,0 0,0 0,0 0,0 0,0 0,0 0,0 0,0 0,0zm-48 -6c0,0 0,0 0,0 0,0 0,0 -1,0 1,0 1,0 1,0zm-80 -62c-1,1 -1,1 -2,2 1,-1 1,-1 2,-2zm-8 -24c0,1 0,2 0,2l0 0c0,0 0,-1 0,-2 0,0 0,0 0,0zm-183 -123c0,0 0,0 0,0 0,0 0,0 0,0 0,0 0,0 0,0zm33 -57c0,0 0,0 0,0 0,0 0,0 0,0 0,0 0,0 0,0zm0 -311c0,0 0,0 0,0l0 0c0,0 0,0 1,0 0,0 0,0 -1,0 0,0 0,0 0,0 0,0 0,0 0,0 0,0 0,0 0,0 0,0 0,0 0,0 0,0 0,0 0,0zm98 -154c0,0 0,0 0,0 0,0 0,0 0,0 0,0 0,0 0,0zm67 -38c-1,-1 -1,-1 -1,-1 0,0 0,0 0,0 0,0 0,1 1,1zm73 -54c0,0 -1,0 -1,0 0,0 0,0 0,0 0,0 1,0 1,0zm30 -19c0,0 -1,0 -1,0 1,0 1,0 1,0 0,0 0,0 0,0zm103 26c0,0 0,0 0,1 0,-1 0,-1 0,-1 0,0 0,0 0,0zm41 -26c0,0 0,0 0,0 0,0 0,0 0,0 0,0 0,0 0,0zm242 17c0,0 0,0 0,0 0,0 0,0 0,0 0,0 0,0 0,0zm48 7c0,0 0,-1 0,-1 0,0 1,0 1,0 0,0 -1,1 -1,1zm80 61c1,-1 1,-1 2,-1 -1,0 -1,0 -2,1zm8 24l0 0c0,0 0,0 0,0 0,0 0,0 0,0 0,0 0,-1 0,-2 0,0 0,0 0,0 0,1 0,2 0,2 0,0 0,0 0,0zm15 6c0,0 0,0 0,0 0,0 0,0 0,0 0,0 0,0 0,0zm168 118c0,0 0,0 0,0 0,0 0,0 0,0 0,0 0,0 0,0zm-33 56c0,0 0,0 0,0 0,0 0,0 0,0 0,0 0,0 0,0zm0 311c0,0 0,0 0,0l0 0c0,0 -1,0 -1,0 0,0 0,0 0,0 1,0 1,0 1,0 0,0 0,0 0,0 0,0 0,0 0,0 0,0 0,0 0,0 0,0 0,0 0,0zm20 16c0,1 0,1 0,1l0 0c0,0 0,-1 0,-1 0,0 0,0 0,0zm-60 48c1,1 0,2 0,2 0,0 0,0 0,0 0,-1 0,-1 0,-2zm-10 -1c0,0 0,0 0,0 0,0 0,0 0,0 0,0 0,0 0,0zm-10 29c0,-1 0,-1 0,-1 0,0 0,0 1,0 -1,0 -1,0 -1,1zm-38 63c0,-1 0,-1 0,-1 0,0 0,0 0,0 0,0 0,0 0,1zm-26 15c0,0 0,0 0,0 0,0 0,0 0,0 0,0 0,0 0,0zm-1 5c0,0 0,0 0,1 0,-1 0,-1 0,-1zm-59 38c0,0 0,0 0,0 1,-1 1,-1 2,-1 1,1 1,1 2,1 -2,0 -3,0 -4,0zm-84 45c0,0 0,0 0,0 0,0 0,0 0,0 0,0 0,0 0,0zm-282 96c-1,1 -1,1 -2,2 0,0 0,0 0,0 1,0 1,-1 2,-2zm-62 -73c0,0 0,0 0,0 0,0 0,1 0,1 0,0 0,-1 0,-1zm-41 -41c0,0 0,0 0,0 0,0 0,0 0,0zm-47 -18c0,0 0,0 0,0 1,0 1,0 1,0 0,0 0,0 -1,0zm-32 10c0,0 0,0 0,0 0,0 0,0 0,1 0,-1 0,-1 0,-1zm-10 -24c0,0 0,0 0,0 0,0 0,0 0,0 0,0 0,0 0,0zm-192 -542c0,0 0,0 0,0 0,0 0,0 0,0 -1,0 -2,0 -3,-1 1,1 2,1 3,1zm-26 -18c0,0 0,0 0,0 0,1 0,1 0,1 0,0 0,0 0,0 0,0 0,0 0,-1zm60 -47c-1,0 0,-1 0,-2 0,0 0,0 0,0 0,1 0,1 0,2zm10 1c0,0 0,0 0,0 0,0 0,0 0,0 0,0 0,0 0,0zm10 -28c0,0 0,0 0,0 0,0 0,0 -1,0 1,0 1,0 1,0zm64 -78c0,0 0,0 0,0 0,0 0,0 0,0 0,0 0,0 0,0zm1 -6c0,0 0,0 0,1 0,-1 0,-1 0,-1zm22 -11c0,0 0,0 0,0 0,0 -1,0 -1,0 0,0 1,0 1,0zm37 -27c0,0 0,0 0,0 -1,1 -1,1 -2,1 -1,0 -1,0 -2,-1 2,0 3,0 4,0zm84 -44c0,0 0,0 0,0 0,0 0,0 0,0 0,0 0,0 0,0zm282 -96c1,-1 1,-2 2,-3 0,0 0,0 0,0 -1,1 -1,2 -2,3zm62 72c0,0 0,0 0,0 0,0 0,0 0,-1 0,1 0,1 0,1zm41 41c0,0 0,1 0,1 0,0 0,-1 0,-1zm47 18c0,0 0,0 0,0 0,0 -1,0 -1,0 0,0 0,0 1,0zm32 -9c0,0 0,-1 0,-1 0,0 0,0 0,0 0,0 0,0 0,1zm10 23c0,0 0,0 0,0 0,0 0,0 0,0 0,0 0,0 0,0zm1 3l0 0c0,0 0,0 0,0zm191 540c0,0 0,0 0,-1 0,0 1,1 1,1 1,0 2,0 3,0 -1,0 -3,-1 -4,0zm-124 169c0,0 0,0 0,0 0,0 0,0 0,0 0,0 0,0 0,0zm-66 47c0,0 0,0 0,0 0,0 0,0 0,0 0,0 0,0 0,0zm-43 23c0,1 0,2 1,2 0,0 -1,0 -1,0 0,0 0,-1 0,-2zm-14 13c0,0 0,0 0,0 0,0 0,0 0,0zm-15 4c0,1 0,1 0,1 0,0 0,0 0,0 0,0 0,-1 0,-1zm-17 -4c0,-1 1,-1 1,-1 0,0 0,0 -1,1zm-12 13c0,0 0,0 0,0 0,0 0,0 0,0zm-128 -17c0,0 0,0 0,0 1,2 2,3 3,4 -1,-1 -1,-3 -3,-4zm-5 38c0,0 0,0 0,0 -1,0 -1,0 -1,0 0,0 1,0 1,0zm-3 -1c0,0 0,0 0,0 0,-1 -1,-1 -1,-1 1,0 1,1 1,1zm-100 60c0,0 0,0 0,0 0,0 0,0 0,0 0,0 0,0 0,0zm-2 -4c0,0 0,0 0,0 0,0 0,0 0,0 0,0 0,0 0,0zm-117 -108c0,0 0,0 0,0 0,0 0,0 0,0 0,0 0,0 0,0 -1,1 -2,2 -3,3 2,-1 3,-1 3,-3zm-31 6c0,0 0,0 0,0 0,0 0,0 0,0 0,0 0,0 0,0zm-20 -21c0,0 0,0 0,0 1,0 2,0 3,1 -1,-1 -2,-1 -3,-1zm-24 14c0,0 0,0 0,0 0,0 0,0 0,0 0,0 0,0 0,0zm-34 -44c0,0 0,0 0,0 0,0 0,0 0,0zm-44 -39c0,0 0,0 0,0 0,0 0,0 0,0 0,0 0,0 0,0zm-57 -22c0,0 0,0 0,1 0,-1 0,-1 -1,-1 1,0 1,0 1,0zm-88 -45c1,0 1,0 2,0 0,0 0,0 0,0 -1,0 -1,0 -2,0 0,0 0,0 0,0zm28 -113c0,0 0,0 0,0 0,0 0,0 0,0 0,0 0,0 0,0zm-19 2c0,0 0,0 0,0 0,0 0,0 0,0 0,0 0,0 0,0zm1 -18c1,0 1,1 1,1 0,0 0,0 0,0 0,0 -1,-1 -1,-1zm2 -5c0,0 0,0 0,-1 0,0 0,1 0,1 0,0 0,0 0,0zm18 -13c0,0 0,0 0,0 0,0 0,0 0,0 0,0 0,0 0,0zm3 -32c0,0 0,0 0,0 -1,0 -2,0 -3,1l0 0c0,0 0,0 0,0 0,0 0,0 0,0 1,0 2,0 3,-1zm4 -2c0,0 0,0 0,0 0,0 0,0 0,0 0,0 0,0 0,0zm103 -404c0,0 0,0 0,0 0,0 0,0 0,0 0,0 0,0 0,0zm66 -47c0,0 0,0 0,0 0,0 0,0 0,0 0,0 0,0 0,0zm43 -24c0,-1 0,-1 -1,-2 1,0 1,0 1,0 0,1 0,1 0,2zm14 -13c0,0 0,0 0,0 0,0 0,0 0,0zm15 -4c0,0 0,0 0,-1 0,1 0,1 0,1 0,0 0,0 0,0zm17 5c0,0 -1,0 -1,1 0,-1 0,-1 1,-1zm12 -14c0,0 0,0 0,0 0,0 0,0 0,0zm95 40l0 0c0,-1 0,-3 0,-5l0 0c-1,2 0,4 0,5zm33 -23c0,0 0,0 0,0 -1,-1 -2,-2 -3,-4 1,2 1,3 3,4zm5 -38c0,0 0,0 0,0 1,0 0,0 1,0 0,0 -1,0 -1,0zm3 1c0,1 0,0 0,1 0,0 1,0 1,0 -1,0 -1,0 -1,-1zm100 -59c0,0 0,0 0,0 0,-1 0,-1 0,-1 0,0 0,1 0,1zm2 3c0,0 0,0 0,0 0,0 0,0 0,0 0,0 0,0 0,0zm101 103c0,0 0,0 0,0 0,0 0,0 0,0l0 0c0,0 0,0 0,0zm16 5c0,0 0,0 0,0 0,0 0,1 0,0 0,0 0,0 0,0 1,-1 2,-2 3,-2 -1,0 -3,1 -3,2zm31 -6c0,0 0,0 0,0 0,0 0,0 0,0 0,0 0,0 0,0zm20 21c0,0 0,0 0,0 -1,0 -2,0 -3,0 1,0 2,1 3,0zm24 -13c0,0 0,0 0,0 0,0 0,0 0,0 0,0 0,0 0,0zm34 44c0,0 0,0 0,0 0,0 0,0 0,0zm101 60c0,0 0,0 0,0 0,0 0,0 1,0 -1,0 -1,0 -1,0zm88 45c-1,0 -1,0 -2,0 0,0 0,0 0,0 1,0 1,0 2,0 0,0 0,0 0,0zm-28 113c0,0 0,0 0,0 0,0 0,0 0,0 0,0 0,0 0,0zm19 -2c0,0 0,0 0,0 0,0 0,0 0,0 0,0 0,0 0,0zm-1 18c-1,0 -1,0 -1,-1 0,0 0,0 0,0 0,1 1,1 1,1zm-2 5c0,1 0,1 0,1 0,0 0,0 0,0 0,0 0,-1 0,-1zm-18 13c0,0 0,0 0,0 0,0 0,0 0,0 0,0 0,0 0,0zm-3 32c0,0 0,0 0,0 1,1 2,0 3,-1l0 0c0,0 0,0 0,0 0,0 0,0 0,0 -1,0 -2,1 -3,1zm-4 3c0,0 0,0 0,0 0,0 0,0 0,0 0,0 0,0 0,0zm-152 413c0,0 0,0 0,0 0,0 0,0 0,0 0,0 0,0 0,0 0,0 0,0 0,0zm-43 43c0,0 0,0 0,0 0,0 0,0 1,0 -1,0 -1,0 -1,0zm-51 27c0,0 0,0 0,0 0,0 0,0 0,0 0,0 0,0 0,0zm-45 4c0,0 0,-1 0,-1 0,0 0,1 0,1 0,0 0,0 0,0zm-96 -14c0,0 0,0 0,0 0,0 0,0 0,0 0,0 0,0 0,0zm-51 53c0,0 0,0 0,0 0,0 0,0 0,0 0,0 0,0 0,0zm-40 18c0,0 0,0 0,0l0 0 0 0c0,0 0,0 0,0 0,0 0,0 0,0 0,0 0,0 0,0zm-15 2c1,0 0,0 1,0 0,0 0,0 0,0 0,0 0,0 -1,0zm-116 -73c0,0 0,0 0,0l0 0c0,0 0,0 0,0zm-18 -7c0,1 0,1 0,1 0,0 0,0 0,0 0,-1 0,0 0,-1zm-20 -7c-1,1 -1,0 -1,1 0,-1 0,0 1,-1zm-50 9c0,0 -1,0 -1,0 0,0 1,0 1,0zm-37 -746c0,0 0,0 0,1 0,0 0,0 0,0 0,-1 0,-1 0,-1 0,0 0,0 0,0zm43 -42c0,0 0,0 0,0 0,0 0,0 0,0 0,0 0,0 0,0zm51 -27c0,0 0,0 0,0 0,0 0,0 0,-1 0,1 0,1 0,1zm45 -4c0,0 0,0 0,0 0,0 0,0 0,0 0,0 0,0 0,0zm187 -57c0,0 0,0 0,0 0,0 0,0 0,0l0 0c0,-1 0,0 0,-1 0,1 0,1 0,1 0,0 0,0 0,0zm15 -3c-1,0 0,1 -1,1 0,0 0,0 0,0 0,0 0,0 1,-1zm102 51c-1,0 -1,0 -1,0 0,0 0,0 0,0 0,0 0,0 1,0zm32 29c0,0 0,0 0,0 0,0 0,0 0,0 0,0 0,0 0,0zm20 7c1,0 1,0 1,0 0,0 0,0 -1,0zm31 4c0,0 0,0 0,0 0,0 0,0 0,0 0,0 0,0 0,0zm19 -13c0,0 1,0 1,0 0,0 -1,0 -1,0zm62 731c0,0 0,0 0,0 0,1 1,1 1,2 0,0 -1,0 -1,0 -1,-1 0,-1 0,-2zm-1 -3c0,0 0,0 0,0 0,0 0,0 0,0 0,0 0,0 0,0zm-13 7c0,0 0,0 0,0 0,0 0,0 0,0 0,0 0,0 0,0 0,0 0,0 0,0zm-13 25c0,0 0,0 0,-1 0,0 0,1 0,1 0,0 0,0 0,0zm-20 14c0,0 0,0 0,0 0,0 0,-1 0,-1 0,1 0,1 0,1zm-26 10c0,0 0,0 0,0 0,0 0,0 0,0 0,0 0,0 0,0zm-54 32c0,0 1,0 1,0 -1,0 -1,0 -1,0 0,0 0,0 0,0zm-34 -16c0,0 0,0 0,0 0,0 0,0 0,0 0,0 0,0 0,0zm0 7c0,0 0,0 0,0 0,0 0,0 0,0 0,0 0,0 0,0zm-34 -34c0,0 0,0 0,0 0,0 0,0 0,0 0,0 0,0 0,0zm-1 6c0,0 0,0 0,0 0,0 0,0 0,0 0,0 0,0 0,0zm-131 90c0,0 0,0 0,-1 0,0 0,0 0,1 0,0 0,0 0,0zm-127 -17c0,0 0,0 0,0 0,0 0,0 0,0 0,0 0,0 0,0zm-7 -36c0,0 -1,0 -1,0 1,0 1,0 1,0zm-7 12c1,0 1,0 1,0 0,0 0,1 0,1 0,0 0,-1 -1,-1zm-54 -37c0,0 0,0 0,0 0,0 0,0 0,-1 0,0 0,1 0,1zm-73 -50c0,0 0,0 0,0 0,0 0,0 0,0 0,0 0,0 0,0zm-8 -7c0,0 0,0 1,0 0,0 -1,0 -1,0 0,0 0,0 0,0zm-15 -668c0,0 0,0 0,0 0,0 0,0 0,0 0,0 0,0 0,0 0,0 0,0 0,0zm13 -25c0,1 0,1 0,1 0,0 0,0 0,0 0,0 0,-1 0,-1zm20 -13c0,0 0,0 0,0 0,0 0,0 0,0 0,0 0,0 0,0zm26 -10c0,0 0,0 0,0 0,0 0,-1 0,-1 0,0 0,0 0,1zm54 -32c0,0 -1,0 -1,-1 1,0 1,1 1,1 0,0 0,0 0,0zm34 16c0,0 0,0 0,0 0,0 0,0 0,0 0,0 0,0 0,0zm0 -8c0,0 0,0 0,0 0,0 0,0 0,0 0,0 0,0 0,0zm34 35c0,0 0,0 0,0 0,0 0,0 0,0 0,0 0,0 0,0zm1 -6c0,0 0,0 0,0 0,0 0,-1 0,-1 0,0 0,1 0,1zm115 -81c0,0 0,0 0,0 0,0 0,0 0,0 0,0 0,0 0,0zm16 -9c0,0 0,0 0,0 0,0 0,0 0,0 0,0 0,0 0,0zm127 17c0,0 0,0 0,0 0,0 0,0 0,0 0,0 0,0 0,0zm7 35c0,0 1,0 1,1 -1,0 -1,-1 -1,-1zm61 26c0,0 0,0 0,0 0,0 0,0 0,0 0,0 0,0 0,0zm73 49c0,0 0,0 0,0 0,0 0,0 0,0 0,0 0,0 0,0zm8 8c0,0 0,0 -1,0 1,0 1,-1 1,-1 0,0 0,1 0,1zm17 6c0,0 0,0 0,0 1,0 2,1 2,2 0,0 0,0 0,0 0,-1 -1,-2 -2,-2zm-102 727c0,0 0,0 0,0 0,0 0,0 0,0 0,0 0,0 0,0zm-86 -15c0,0 0,0 0,0 0,0 0,0 0,0 0,0 0,0 0,0zm-142 82c0,0 0,0 0,0 0,0 0,0 0,0 0,0 0,0 0,0zm-94 5c0,0 -1,0 -1,0 1,0 1,0 1,0 0,0 0,0 0,0zm-165 -144c0,0 0,0 0,0 0,0 0,0 0,0 0,0 0,0 0,0zm-19 -1c0,0 0,0 0,0 -1,-1 -2,-2 -2,-2 0,0 0,0 0,0 0,1 1,1 2,2zm-7 -31c0,0 -1,0 -1,0 1,0 1,0 1,0zm-9 -16c0,0 0,0 0,0 0,0 0,0 0,0 0,0 0,0 0,0zm-27 -563c1,-1 2,-2 3,-2 -1,0 -2,1 -3,2zm31 -48c0,0 0,0 0,0 0,0 -1,-1 -1,-2 0,1 1,0 1,0 1,1 0,2 0,2zm1 3c0,0 0,0 0,0 0,0 0,0 0,0 0,0 0,0 0,0zm113 -73c0,0 0,0 0,1 0,-1 0,-1 0,-1 0,0 0,0 0,0zm86 15c0,0 0,0 0,0 0,0 0,0 0,0 0,0 0,0 0,0zm60 -14c0,0 0,0 0,0 0,0 1,0 1,0 0,0 -1,0 -1,0zm82 -68c0,0 0,0 0,0 0,0 0,0 0,0 0,0 0,0 0,0zm94 -5c0,1 1,1 1,1 -1,0 -1,0 -1,0 0,0 0,-1 0,-1zm162 142c0,0 0,0 0,0 0,0 0,0 0,0 0,0 0,0 0,0zm3 3c0,-1 0,-1 0,-1 0,0 0,0 0,0 0,0 0,0 0,1zm23 15c0,0 0,0 0,0 0,0 0,0 0,0 0,0 0,0 0,0zm3 17c1,-1 1,-1 1,-1 0,0 0,0 -1,1zm9 16c0,0 0,0 0,0 0,0 0,0 0,0 0,0 0,0 0,0zm41 548c1,0 0,-1 1,-1 0,1 -1,1 -1,1 0,0 0,0 0,0zm-169 134c0,1 0,1 0,2 0,-1 0,-1 0,-1 0,0 0,0 0,-1zm-29 -23c0,0 0,0 0,0 1,-1 1,-1 1,-2 0,0 0,0 0,0 0,0 0,1 -1,2zm-4 10c0,0 0,0 0,-1 1,1 1,1 1,1 0,0 -1,0 -1,0zm-43 -15c0,0 0,0 0,0 0,0 0,0 0,0 0,0 0,0 0,0zm-93 57c0,0 0,0 0,0 0,0 0,0 0,0 0,0 0,0 0,0zm-33 16c0,1 0,1 0,1 0,0 0,0 0,-1zm-12 1c0,0 0,0 0,0 0,0 0,0 0,0 0,0 0,0 0,0zm-2 17c0,0 0,0 0,0 0,0 -1,0 -1,1 0,-1 1,-1 1,-1zm-12 1c0,0 0,0 0,0l0 0zm-40 12c0,0 0,0 0,1 0,0 0,-1 0,-1 0,0 0,0 0,0zm-72 -72c0,0 0,0 0,0 0,0 0,0 0,0 0,0 0,0 0,0zm-80 -37c0,0 0,0 0,0 0,0 0,0 0,0 0,0 0,0 0,0zm-76 -30c0,0 0,0 0,0 0,0 0,-1 0,-1 0,0 0,0 0,0 0,0 0,1 0,1zm-4 -27c0,0 0,0 0,0 0,0 0,0 0,0 0,0 0,0 0,0zm-53 -86c0,0 0,0 0,0 0,0 0,0 0,0 0,0 0,0 0,0zm0 -494c0,0 0,0 -1,0 0,0 1,0 1,0 0,0 0,0 0,0zm169 -135c0,-1 0,-1 0,-1 0,0 0,0 0,0 0,0 0,1 0,1zm14 20c0,0 0,0 0,0 0,0 0,0 0,0 0,0 0,0 0,0l0 0 0 0c0,0 0,0 0,0zm10 -1c0,0 0,0 0,0 0,-1 0,-1 0,-1 0,1 0,1 0,1zm9 -6c0,1 0,1 0,1 0,0 -1,0 -1,-1 0,0 1,0 1,0zm43 15c0,0 0,0 0,0 0,0 0,0 0,0 0,0 0,0 0,0zm93 -57c0,0 0,0 0,0 0,0 0,0 0,0 0,0 0,0 0,0zm33 -16c0,0 0,0 0,-1 0,1 0,1 0,1zm13 -1c0,0 0,0 0,0 0,0 0,0 0,0 0,0 0,0 0,0zm1 -16c0,0 0,-1 0,-1 0,0 1,0 1,0 0,0 -1,0 -1,1zm12 -1l0 0c0,0 0,0 0,0l0 0zm40 -13c0,0 0,0 0,0 0,0 0,0 0,0 0,0 0,0 0,0zm16 -4l0 0c-1,1 -1,1 -2,1 1,0 2,0 2,-1zm56 76c0,0 0,0 0,0l0 0c0,0 0,0 0,0zm80 37c0,0 0,0 0,0 0,0 0,0 0,0 0,0 0,0 0,0zm72 45c0,0 0,0 0,0 0,-1 0,-1 0,-1 0,0 0,0 0,0 0,0 0,0 0,1zm61 99c0,-1 0,-1 0,-1 0,0 0,0 1,0 -1,0 -1,0 -1,1zm59 333c0,0 0,0 0,0 0,0 0,0 0,0 0,0 0,0 0,0zm-135 206c0,0 0,0 0,0 0,0 0,0 0,0 0,0 0,0 0,0zm-110 61c0,0 0,0 0,0 0,0 0,0 0,0 0,0 0,0 0,0zm-14 11c0,0 0,0 0,0 0,0 0,0 0,0 0,0 0,0 0,0zm-147 37c0,0 1,0 1,0 0,0 0,0 0,0 0,0 -1,0 -1,0zm-64 20c0,0 0,0 0,0 0,0 0,0 0,0 0,0 0,0 0,0 0,0 0,0 0,0 0,0 0,0 0,0 0,0 0,0 0,0zm-4 -1c0,0 1,0 1,0 0,0 -1,0 -1,0zm-12 24c0,0 0,0 0,0 0,0 0,0 0,0 0,0 0,0 0,0zm-12 8c0,0 0,0 0,0 0,0 0,0 0,0 0,0 0,0 0,0zm-28 -15c0,0 0,0 0,0 0,0 0,0 0,0 0,0 0,0 0,0zm-138 -85l0 0c0,0 0,0 0,0 0,0 0,0 0,0 0,0 0,0 0,0zm-14 -11c0,1 0,1 0,1 0,0 0,0 0,0 0,0 0,0 0,-1zm5 -20c1,0 1,0 1,0 0,0 0,0 0,0 0,0 0,0 -1,0zm-41 -20c0,0 0,0 0,0l0 0c0,0 0,0 0,0 0,0 0,0 0,0 0,0 0,0 0,0 0,0 0,0 0,0 0,0 0,0 0,0zm-6 3c0,0 0,0 0,0 0,0 0,0 0,1 0,0 0,0 0,0 0,-1 0,-1 0,-1zm-8 -40c0,0 0,0 0,0 0,-2 -1,-2 -2,-2 0,0 0,0 0,0 1,1 1,1 2,2zm-38 -63c0,0 0,0 0,0 0,0 0,0 0,0 0,0 0,0 0,0zm-74 -329c0,0 0,0 0,0 0,0 0,0 0,0 0,0 0,0 0,0 0,0 0,0 0,0zm135 -207c0,0 0,0 0,0 0,0 0,0 0,0 0,0 0,0 0,0zm110 -61c0,0 0,0 0,0 0,0 0,0 0,0 0,0 0,0 0,0zm12 -5c0,0 0,1 0,1 -1,0 -1,1 -1,2 0,-1 0,-1 0,-1 0,0 1,-1 1,-2zm2 -5c0,-1 0,-1 0,-1l0 0c0,0 0,0 0,0 0,0 0,0 0,1zm147 -38c0,0 -1,0 -1,0 0,0 0,0 0,0 0,0 1,0 1,0zm64 -19c0,-1 0,0 0,-1 0,0 0,0 0,0 0,0 0,0 0,0 0,0 0,0 0,0 0,0 0,0 0,0 0,0 0,1 0,1zm4 0c0,0 -1,0 -1,0 0,0 1,0 1,0zm12 -24c0,1 0,1 0,1 0,0 0,0 0,0 0,0 0,0 0,-1zm12 -8c0,0 0,0 0,0 0,0 0,0 0,0 0,0 0,0 0,0zm28 15c0,0 0,0 0,0 0,0 0,0 0,0 0,0 0,0 0,0zm138 86c0,0 1,0 0,0 0,0 0,0 0,0 0,0 0,0 0,0zm14 10c0,0 0,0 0,0 0,0 0,0 0,0 0,0 0,0 0,0zm-5 20c-1,0 -1,0 -1,1 0,-1 0,-1 0,-1 0,0 0,0 1,0zm3 -1c0,0 0,0 0,0 0,0 0,0 0,0 0,0 0,0 0,0zm38 21c0,0 0,0 0,0 0,0 0,0 0,0 0,0 0,0 0,0 0,0 0,0 0,1 0,-1 0,-1 0,-1 0,0 0,0 0,0 0,0 0,0 0,0zm14 38c0,0 0,0 0,0 0,1 1,1 2,1 0,1 0,1 0,1 -1,-1 -1,-2 -2,-2zm38 63c0,0 0,0 0,0 0,0 0,0 0,0 0,0 0,0 0,0zm74 329c0,-1 0,-1 0,-1 0,0 0,1 0,1 0,0 0,0 0,0 0,0 0,0 0,0zm-30 115c0,0 0,0 0,0 0,1 0,1 -1,1 0,0 0,0 0,0 0,0 1,-1 1,-1zm-105 83c0,0 0,0 0,0 0,0 0,0 1,0 0,0 0,0 0,0 -1,0 -1,0 -1,0zm-32 56c0,0 0,0 0,0 0,0 0,0 0,0 0,0 0,0 0,0zm-104 7c0,0 0,0 0,0 0,0 0,0 0,0 0,0 0,0 0,0zm-128 42c0,0 0,0 0,0 0,0 0,0 0,0 0,0 0,0 0,0zm-155 -25c0,1 0,1 0,1 -1,0 -2,0 -2,-1 1,0 1,1 2,0zm-50 -43c0,0 0,0 0,0 -1,0 -2,1 -2,2 0,-1 1,-1 2,-2zm-16 21c0,0 0,0 0,0 0,0 0,0 0,0 0,0 0,0 0,0zm-51 3c0,0 0,0 -1,0 0,0 1,0 1,0zm-5 -29c0,0 0,0 0,0 0,0 0,0 0,0 0,0 0,0 0,0zm-16 -20c0,0 0,0 0,0 0,0 0,0 0,0 0,0 0,0 0,0zm-80 -99c0,0 0,0 0,0 0,0 0,0 0,0 0,0 0,0 0,0zm-68 -354c0,0 0,0 0,0 0,0 0,-1 0,-1 0,1 0,1 0,1zm30 -87c0,0 0,0 0,0 0,0 0,0 1,0 0,0 0,-1 0,-1 0,1 -1,1 -1,1zm105 -83c0,1 0,1 0,1 0,0 0,0 -1,0 0,0 0,0 0,0 1,0 1,0 1,-1zm32 -55c0,0 0,0 0,0 0,-1 0,-1 0,-1 0,1 0,1 0,1zm104 -7c0,0 0,-1 0,-1 0,0 0,0 0,0 0,0 0,1 0,1zm128 -42c0,0 0,0 0,-1 0,0 0,0 0,0 0,1 0,1 0,1zm9 -13c0,0 0,0 0,1 0,-1 0,-1 0,-1 0,0 0,0 0,0zm40 -14l0 0c0,0 0,-1 -1,-1 0,0 0,0 0,0 1,0 1,1 1,1zm156 95c0,0 0,0 0,0 1,-1 2,-2 2,-3 0,1 -1,2 -2,3zm16 -22c0,0 0,0 0,0 0,0 0,0 0,0 0,0 0,0 0,0zm51 -2c0,0 0,0 1,0 -1,0 -1,0 -1,0zm5 28l0 0c0,0 0,0 0,0 0,0 0,0 0,0zm16 20c0,0 0,0 0,0 0,0 0,0 0,0 0,0 0,0 0,0zm27 21c0,0 0,0 0,0 0,0 0,0 0,0 0,0 0,0 0,0zm53 78c0,0 0,1 0,1 0,0 0,-1 0,-1 0,0 0,0 0,0zm68 355c0,0 0,0 0,0 0,0 0,0 0,0 0,0 0,0 0,0zm-138 166c1,0 2,-1 2,-1 0,0 0,0 0,0 -1,0 -1,0 -1,1 -1,0 0,0 -1,0zm-38 53c0,0 0,0 0,0 0,0 0,0 0,0 0,0 0,0 0,0zm-22 7c0,0 0,0 0,0 0,0 0,0 0,0 0,0 0,0 0,0zm-348 60c-1,0 -1,0 -1,0 0,0 0,0 1,0 0,0 0,0 0,0zm-64 -75c0,0 0,0 0,0 0,0 0,0 0,0 0,0 0,0 0,0zm-35 10c0,0 0,-1 0,-1 0,1 0,1 0,1zm-74 -61c0,0 0,0 0,0 0,0 0,0 0,0 0,0 0,0 0,0zm17 -599c-1,1 -2,1 -2,2 0,0 0,0 0,0 1,-1 1,-1 2,-2 0,0 0,0 0,0zm292 -130c0,0 0,0 0,0 0,0 0,0 0,0 0,0 0,0 0,0zm47 -4c0,0 0,0 0,0 0,0 0,0 0,0 0,0 0,0 0,0zm70 12c0,0 0,0 0,0 0,0 0,0 0,0l0 0zm7 39c0,0 0,0 0,0 1,0 2,0 2,0 -1,0 -1,0 -2,0zm56 39c0,0 0,0 0,0 0,0 0,0 0,0 0,0 0,0 0,0zm35 -11c0,1 0,1 0,1 0,0 0,0 0,-1zm157 557c0,0 0,0 0,0 0,0 1,0 1,0 0,0 0,0 -1,0zm-127 152c0,0 0,1 0,1 0,0 0,-1 0,-1 0,0 0,0 0,0zm-92 -15c0,0 0,1 0,0 0,1 1,1 0,1 0,0 0,0 0,-1zm-192 100c0,0 0,0 0,0 0,0 0,0 -1,0 0,0 0,0 0,0 1,0 1,0 1,0zm-68 30l0 0c0,0 0,0 0,0 0,0 0,0 0,0zm-78 -126c0,0 0,0 0,1 0,0 0,-1 0,-1 0,0 0,0 0,0zm-25 13c0,0 0,0 0,0 0,0 0,0 0,0zm-61 -37c0,0 0,0 0,0 0,0 0,0 0,0 0,0 0,0 0,0zm-9 -5c0,0 0,0 0,0 -1,0 -1,1 -1,1 0,0 0,0 0,0 0,0 0,-1 1,-1zm-112 -511c0,0 0,0 0,0 0,0 -1,0 -1,0 0,0 0,0 1,0zm127 -152c0,0 0,0 0,0 0,0 0,0 0,0 0,0 0,0 0,0zm33 -10c0,0 0,0 0,0 0,0 0,0 0,0 0,0 0,0 0,0zm319 -104c0,0 0,0 0,0 0,0 0,0 0,0 0,0 0,0 0,0zm30 43c0,0 -1,0 -1,0 1,0 1,0 1,0 0,0 0,0 0,0zm48 82c0,0 0,0 0,0 0,0 0,0 0,0 0,0 0,0 0,0zm86 25c0,0 0,0 0,0 0,0 0,0 0,0 0,0 0,0 0,0zm10 5c0,0 0,0 -1,0 1,-1 1,-1 1,-2 0,0 0,0 0,0 0,1 0,1 0,2zm-37 646c0,0 0,1 0,1 0,0 0,-1 0,-1zm-94 16c0,0 0,0 0,0 0,0 0,1 0,1 0,0 0,-1 0,-1zm-140 45c-1,0 -2,1 -3,2 1,-2 0,-3 -1,-5 1,1 2,2 4,3zm-92 46c0,0 0,0 0,0 0,0 -1,0 -1,-1 0,0 0,1 1,1zm-20 -16c0,0 0,0 0,0 0,0 0,0 0,0 0,0 0,0 0,0zm-156 -129c0,0 0,0 0,0 0,0 0,0 0,0 0,0 0,0 0,0zm-23 -16c0,0 0,0 0,0 0,0 0,0 1,0 0,0 0,0 0,0 -1,0 -1,0 -1,0zm-5 -43c0,0 0,0 0,0 0,0 0,0 0,0l0 0zm-10 -2c-1,0 -1,0 -1,0 0,0 0,0 0,0 0,0 0,0 1,0 -1,1 0,2 1,1 0,0 0,1 0,1 -1,-1 -1,-1 -1,-2zm-28 -69c0,0 0,0 0,0 0,0 0,0 0,0 0,0 0,0 0,0zm-31 36c0,1 0,1 0,1 0,0 0,0 0,-1zm-1 5c0,0 0,0 0,0 0,0 0,0 0,0 0,0 0,0 0,0zm-6 -1c0,0 0,0 0,0 0,0 0,0 0,0 0,0 0,0 0,0zm209 -544c0,0 0,0 0,0 0,0 -1,0 0,0 0,0 0,0 0,0zm23 -15c0,0 0,0 0,0 0,0 0,0 0,0 0,0 0,0 0,0zm161 -78c0,0 0,0 0,0 0,0 0,0 0,0 0,0 0,0 0,0zm71 -12c0,0 0,-1 0,-1 0,1 1,1 1,1 0,0 0,0 -1,0zm20 16c0,0 0,-1 0,-1 0,0 0,0 0,1 0,0 0,0 0,0zm156 128c0,0 0,0 0,0 0,0 0,0 0,0 0,0 0,0 0,0zm23 17c0,0 0,0 0,0 0,0 0,0 -1,0 0,0 0,0 0,0 1,0 1,0 1,0zm5 42c0,0 0,0 0,0 0,0 0,0 0,0 0,0 0,0 0,0zm10 2c1,0 1,0 1,0 0,0 0,0 0,0 0,0 0,0 -1,0 1,-1 0,-1 -1,-1 0,0 0,0 0,0 1,0 1,1 1,1zm28 69c0,0 0,0 0,0 0,0 0,0 0,0 0,0 0,0 0,0zm31 -36c0,0 0,-1 0,-1 0,0 0,1 0,1zm1 -5c0,0 0,0 0,0 0,0 0,0 0,0 0,0 0,0 0,0zm6 2c0,0 0,0 0,0 0,0 0,0 0,0 0,0 0,0 0,0zm-24 432c-1,0 -1,0 -1,0 0,0 0,0 1,0 0,0 0,0 0,0zm-21 20c0,0 0,0 0,0 0,0 0,0 0,0 0,0 0,0 0,0zm-57 37c0,0 0,0 0,0 0,0 0,0 0,0 0,0 0,0 0,0zm-1 3c0,0 0,0 0,0 0,0 0,0 0,0 0,0 0,0 0,0zm-5 18c0,0 0,0 0,0 0,0 0,0 0,0 0,0 0,0 0,0 0,0 0,0 0,0zm-63 58c0,-1 0,-1 0,-1 0,0 0,0 1,0 0,0 -1,0 -1,1zm5 7c0,0 0,0 0,0 0,0 0,0 0,0 0,0 0,0 0,0zm-24 -7c0,0 0,0 0,1 0,0 0,-1 0,-1 0,0 0,0 0,0zm-28 -3c0,0 0,0 0,0 0,0 0,0 0,0 0,0 0,0 0,0 0,0 0,0 0,0zm-17 -15c0,0 0,0 0,0 0,0 0,0 0,0 0,0 0,0 0,0zm-208 86c0,0 0,0 0,0 0,0 0,0 0,0 0,0 0,0 0,0zm-18 23c0,0 0,0 0,0 0,0 0,0 0,0 0,0 0,0 0,0zm-147 -118c0,0 0,0 0,0 0,0 0,0 0,0 0,0 0,0 0,0zm-1 -2c0,0 0,0 0,0 0,0 0,0 0,0 0,0 0,0 0,0zm-31 -36c0,0 0,0 0,0 0,0 0,0 0,0 0,0 0,0 0,0zm-80 -522c1,0 1,0 1,1 0,-1 0,-1 -1,-1 0,0 0,0 0,0zm21 -20c0,0 0,0 0,0 0,0 0,0 0,0 0,0 0,0 0,0zm57 -37c0,0 0,0 0,0 0,0 0,0 0,0 0,0 0,0 0,0zm1 -2c0,0 0,0 0,0 0,0 0,0 0,0 0,0 0,0 0,0zm5 -19c0,0 0,0 0,1 0,0 0,0 0,0 0,-1 0,-1 0,-1 0,0 0,0 0,0zm30 -32c0,0 0,0 0,0 0,0 0,0 0,0zm33 -25c0,0 0,0 0,0 0,0 0,0 -1,0 0,0 1,0 1,0zm-7 -9c0,0 0,0 0,0 0,0 0,0 0,0 0,0 0,0 0,0zm3 2c-1,0 -1,0 -1,0 0,0 0,0 0,0 0,0 0,0 1,0zm51 10c0,0 0,0 0,0 0,0 0,0 0,-1 0,0 0,0 0,0 0,0 0,0 0,1zm17 14c0,0 0,0 0,0 0,0 0,1 0,1 0,0 0,-1 0,-1zm137 -52c1,-1 2,-1 3,-2 -1,2 0,3 1,4 -1,-1 -2,-2 -4,-2zm71 -33c0,0 0,0 0,0 0,0 0,0 0,0 0,0 0,0 0,0zm165 94c0,0 0,0 0,0 0,0 0,0 0,0 0,0 0,0 0,0zm1 3c0,0 0,0 0,0 0,-1 0,-1 0,-1 0,1 0,1 0,1zm31 35c0,0 0,0 0,0 0,0 0,0 0,1 0,0 0,-1 0,-1zm100 501c0,0 0,0 0,0 0,0 0,0 0,0 0,0 0,0 0,0zm-15 4c0,0 1,0 1,0 0,0 -1,0 -1,1 0,-1 0,-1 0,-1zm-103 110c0,0 1,1 1,1 -1,0 -1,-1 -1,-1zm-106 26c0,0 0,0 0,0 0,0 -1,0 -1,0 0,0 1,0 1,0 0,0 0,0 0,0 0,0 0,0 0,0zm-154 44c0,0 0,0 0,0 0,0 -1,0 -1,0 0,0 1,0 1,0zm-20 18c0,0 0,0 0,0 0,0 0,0 0,0 0,0 0,0 0,0zm-141 -80c0,0 0,0 0,0 0,0 0,0 0,0 0,0 0,0 0,0zm-30 2c0,0 0,0 0,0 0,0 0,0 0,0 0,0 0,0 0,0zm-160 -146c0,0 0,0 0,0 0,0 0,-1 0,-1 0,0 0,0 0,0 0,0 0,0 0,1 0,0 1,1 1,1 0,0 0,0 0,0 0,0 0,-1 -1,-1zm-7 -387c0,0 0,0 0,0 0,0 0,0 0,0 0,0 0,0 0,0zm15 -4c0,0 -1,0 -1,0 0,0 1,0 1,0 0,0 0,0 0,0zm50 -23c0,0 -1,0 -1,0 0,0 0,0 0,0 0,0 1,0 1,0zm53 -87c0,0 -1,0 -1,-1 1,1 1,1 1,1zm68 -43c0,0 0,0 0,0 0,0 0,0 0,0 0,0 0,0 0,0zm38 17c0,0 0,0 0,0 1,0 1,0 1,0 0,0 -1,0 -1,0 0,0 0,0 0,0 0,0 0,0 0,0zm174 -62c0,0 0,0 0,0 0,0 0,0 0,0 0,0 0,0 0,0zm171 78c0,0 0,0 0,0 0,0 0,1 0,1 0,-1 0,-1 0,-1zm160 147c0,0 0,0 0,0 0,0 0,0 0,0 0,0 0,0 0,0 0,0 0,0 0,0 0,0 0,0 0,0 0,-1 -1,-1 -1,-2 0,0 0,0 0,0 0,1 0,1 1,2zm28 299c0,0 0,0 0,0 0,0 0,0 0,0 0,0 0,0 0,0zm-2 1c1,0 1,0 2,0 0,0 0,0 0,-1 0,0 0,0 0,0 0,0 0,0 0,1 -1,0 -1,0 -2,0 0,0 0,0 0,0zm-8 -1c0,0 0,0 0,0 1,0 1,0 1,0 0,0 0,0 0,0 0,1 0,0 0,1 0,0 1,0 1,0 0,0 0,0 -1,0 0,0 0,0 0,-1 0,0 0,0 -1,0zm-18 12c0,0 1,0 2,0 -1,0 -1,0 -1,1 -1,-1 -1,-1 -1,-1zm-34 61c0,0 1,0 1,0 0,0 -1,0 -1,0 0,0 0,0 0,0zm-18 41c0,0 -1,0 -1,0 0,0 0,0 1,0 -1,0 0,0 0,0 0,0 0,0 0,0 0,0 0,0 0,0 0,0 0,0 0,0zm-5 0c0,0 0,0 0,0 0,0 -1,0 -1,0 0,0 1,0 1,0zm-3 -1c0,0 0,0 0,0 0,0 0,0 0,0 0,0 0,0 0,0zm-108 129c0,0 0,0 0,0 0,0 0,0 0,0 0,1 0,1 0,1 0,0 0,0 0,0 0,0 0,0 0,-1zm-270 77c0,0 0,0 0,0 0,0 0,0 0,0 0,0 0,0 0,0zm-1 -2c0,-1 0,-1 0,-1 0,0 0,0 0,0 0,0 0,0 0,1 0,0 0,0 0,0zm-28 -33c-1,2 -2,1 -3,0 1,1 2,1 3,0zm-33 -55c-1,0 -1,1 -1,1 0,0 0,-1 1,-1zm-79 -25c0,0 0,0 0,0 -1,0 -1,0 -2,0 1,0 1,0 2,0zm-148 -154c0,0 0,0 0,0 0,0 0,0 1,0 -1,0 -1,0 -1,0 0,0 0,0 0,0zm-21 -285c-1,0 -1,0 -2,0 0,0 0,0 0,0 0,0 0,0 0,0 0,0 0,0 0,0 0,0 0,0 0,0 0,1 -1,0 0,0 1,0 2,0 2,0 0,0 0,0 0,0zm8 0c0,0 0,0 0,0 0,0 -1,0 -1,0 0,0 0,0 0,0 0,0 0,0 0,0 0,0 -1,0 -1,0 0,-1 0,-1 1,-1 0,1 0,1 0,1 0,0 0,0 1,0zm18 -12c0,0 -1,0 -2,0 1,0 1,0 1,0 1,0 1,0 1,0zm34 -61c0,0 -1,0 -1,0 0,0 1,0 1,0 0,0 0,0 0,0zm19 -41c0,0 -1,0 -1,0 0,0 0,0 0,0 1,0 1,0 1,0 0,0 0,0 0,0zm7 1c0,0 0,0 0,0 0,0 0,0 0,0 0,0 0,0 0,0zm108 -129c0,0 0,0 0,0 0,0 0,0 0,0 0,0 0,-1 0,-1 0,0 0,0 0,0 0,0 0,1 0,1zm203 -28c0,0 0,0 0,0 0,0 1,-1 1,-1 0,1 -1,1 -1,1zm67 -49c0,0 0,0 0,0 0,0 0,0 0,0 0,0 0,0 0,0zm1 3c0,0 0,0 0,0 0,0 0,0 0,0 0,0 0,0 0,0 0,0 0,0 0,0zm28 32c1,-1 2,0 3,0 -1,-1 -2,-1 -3,0zm260 234c0,0 0,0 -1,0 1,0 1,0 1,0 0,0 0,0 0,0zm13 285c0,0 0,0 0,0 0,0 0,0 1,0 0,0 -1,0 -1,0 0,0 0,0 0,0zm-97 125c0,1 0,2 0,3 0,-1 0,-1 0,-1 0,-1 -1,-1 -1,-1 0,0 1,-1 1,-1zm-512 75c0,0 0,0 0,0 0,0 0,0 0,0 0,0 0,0 0,0zm-36 -46c0,0 0,0 0,0 0,0 0,0 0,0 0,0 0,0 0,0zm-59 -135l0 0c1,-1 1,-1 1,-1l0 0c0,0 -1,0 -1,1zm-4 -15c1,0 0,0 1,0 -1,0 -1,0 -1,0 0,0 0,0 0,0zm-50 -239c0,0 0,0 0,1 0,-1 0,-1 -1,-1 1,0 1,0 1,0 0,0 0,0 0,0zm97 -124c0,-2 0,-2 0,-4 0,1 0,1 0,2 0,1 1,0 1,0 0,1 -1,1 -1,2zm132 -79c0,0 0,0 0,0 0,0 0,0 0,0 0,0 0,0 0,0zm212 -70c0,0 0,0 0,0 0,0 0,0 0,0 0,0 0,0 0,0 0,0 0,0 0,0 0,0 0,0 0,0zm77 44c1,0 1,-1 1,-1 0,1 0,1 -1,1zm91 30c0,0 0,-1 0,-1 0,0 0,1 0,1 0,0 0,0 0,0zm36 45c0,0 0,0 0,0 0,0 0,0 0,0 0,0 0,0 0,0zm63 150c-1,0 0,0 -1,0 1,0 1,0 1,0 0,0 0,0 0,0zm40 246c0,0 0,0 0,0 0,0 0,0 0,0 0,0 0,0 0,0zm-55 83c0,0 0,0 0,0 -1,0 -1,-1 -1,-1 0,0 0,0 0,0 0,0 1,0 1,1 0,0 0,0 0,0 0,0 0,0 0,0zm-102 118c0,0 0,-1 0,-1 0,0 0,1 0,1zm-274 65c0,0 0,0 0,0 0,0 0,0 0,0 0,0 0,0 0,0zm-44 -5c0,0 0,0 0,0 0,0 0,0 0,0 0,0 0,0 0,0zm-36 -59c0,0 0,0 0,0 0,0 0,0 0,0zm-10 8c1,0 1,1 1,1 0,0 0,-1 -1,-1zm-11 -25c0,1 -1,1 -1,1 0,0 0,0 0,0 0,0 0,0 1,-1zm-21 -30c0,0 0,0 0,0 0,0 0,0 0,-1 0,1 0,1 0,1zm-21 7c0,0 0,0 0,0 0,0 0,0 1,0 -1,0 -1,0 -1,0zm-54 -70c0,1 -1,0 -1,0 0,0 0,0 0,0 0,0 1,0 1,0zm-108 -61l0 -1c0,0 0,1 0,1 0,0 0,0 0,0 0,0 0,0 0,0 0,0 0,0 -1,0 1,0 1,0 1,0zm-2 -280c0,0 0,0 0,0 0,0 0,0 0,0 0,0 0,0 0,0zm55 -82c0,0 0,0 0,0 1,0 1,0 1,0 0,0 0,0 0,0 0,0 -1,0 -1,0 0,0 0,0 0,0 0,0 0,0 0,0zm369 -187c0,0 0,0 0,0 0,0 0,0 0,0 0,0 0,0 0,0zm129 115c0,0 0,0 0,0 0,0 0,0 0,0 0,0 0,0 0,0zm21 -8c0,0 0,0 0,0 0,0 0,0 -1,0 1,0 1,0 1,0zm54 70c0,0 1,0 1,0 0,0 0,0 0,0 0,0 -1,0 -1,0zm65 84c0,0 0,0 0,0 0,0 0,0 0,0 0,0 0,0 0,0zm44 -23c0,1 -1,1 -1,1l0 0c0,0 0,0 0,0 0,0 0,0 0,0 0,0 0,-1 0,-1 1,0 1,0 1,0zm-52 326c1,0 2,0 2,-1 0,1 -1,2 -2,1zm-35 46c0,0 0,0 0,1 0,0 0,0 0,0 0,-1 0,-1 0,-1zm-318 151c0,0 2,0 3,0 -2,1 -3,2 -4,2 0,-1 0,-2 1,-2zm-11 19c0,0 0,1 0,1 0,-1 0,-1 0,-1 0,0 0,0 0,0zm-2 -5c0,0 0,1 0,1 0,0 0,0 0,0 0,0 0,-1 0,-1zm-53 3c0,0 0,0 0,0 0,0 0,0 0,0 0,0 0,0 0,0zm-73 -108c0,0 0,0 0,0 0,0 0,0 0,0 0,0 0,0 0,0zm-54 32c0,0 0,0 0,0 0,0 1,0 1,0 0,0 0,0 -1,0zm-37 -51c0,0 0,0 0,0 0,0 1,-1 2,-1 -1,0 0,0 0,0 -1,0 -2,1 -2,1zm-15 -70c0,0 0,0 0,1 -1,-1 -1,-1 -1,-1 0,0 0,0 1,0zm-41 -58c0,0 -1,0 -1,1 0,0 0,0 0,0 0,-1 1,-1 1,-1 0,0 0,0 0,0zm7 -300c-1,1 -2,1 -2,1 0,-1 1,-1 2,-1zm35 -46c0,0 0,0 0,0 0,0 0,0 0,0 0,0 0,0 0,0zm318 -150c0,-1 -2,-1 -2,-1 1,-1 2,-1 3,-1 0,1 0,1 -1,2zm11 -20c0,0 0,0 0,0 0,0 0,0 0,1 0,-1 0,-1 0,-1zm2 5c0,0 0,0 0,0 0,0 0,0 0,0 0,0 0,0 0,0zm6 -10c0,0 0,0 0,0 0,0 0,0 0,0 0,0 0,0 0,0zm12 22c0,0 0,0 0,0 0,0 0,0 0,0 0,0 0,0 0,0zm35 -14c0,0 0,0 0,-1 0,0 0,0 0,0 0,1 0,1 0,1zm3 -2l0 0c0,0 0,0 0,0 0,0 0,0 0,0zm13 34c0,0 0,0 0,0 0,0 0,0 0,0 0,0 0,0 0,0zm23 25c0,0 0,0 0,0 0,0 0,0 0,0zm10 -7c-1,-1 -1,-1 -1,-2 0,1 0,1 1,2zm24 57c0,0 0,0 0,0 0,0 0,0 0,0 0,0 0,0 0,0zm54 -32c0,0 0,0 0,0 0,0 0,0 -1,0 1,0 1,0 1,0zm37 51c0,0 0,0 0,0 0,1 -1,1 -1,1 0,0 -1,0 0,0 0,0 1,0 1,-1zm15 70c0,0 0,0 0,0 1,0 1,0 1,1 0,0 0,-1 -1,-1zm51 354c0,0 1,0 1,1 0,-1 -1,-1 -1,-1 0,0 0,0 0,0zm-32 20c0,0 0,0 0,0 0,0 0,0 0,0zm-20 29c1,0 1,0 1,0 0,0 -1,0 -1,1 0,-1 0,-1 0,-1zm-31 21c0,0 0,0 0,0 0,0 0,0 0,0 0,1 1,1 1,1 -1,0 -1,0 -1,-1 0,0 0,0 0,0 0,0 0,0 0,0zm-71 34c0,0 0,0 -1,0 1,0 1,0 1,0zm-26 5c0,0 0,0 1,0 0,1 -1,1 -1,1 0,0 0,-1 0,-1zm-180 93c0,0 0,0 0,1 0,-1 0,-1 -1,-1 0,0 1,0 1,0zm-41 1c0,0 0,0 0,0 0,0 0,0 0,0 0,0 0,0 0,0zm-36 0c0,0 0,0 0,1 0,0 0,0 0,0 0,0 0,-1 -1,-1 1,0 0,0 1,0zm-10 -23c0,-1 0,-1 0,-1 0,0 0,0 0,0 0,0 0,0 0,1zm-43 -45c0,0 0,0 0,0 0,0 -1,0 -1,1 0,0 0,0 0,0 1,0 1,-1 1,-1zm-53 -34c0,0 0,0 0,0 0,0 0,0 0,0 0,0 0,0 0,0zm-6 18c0,0 0,0 0,0 0,0 0,0 0,0 0,0 0,0 0,0zm-5 0c0,0 0,0 0,0 0,0 0,0 0,0 0,0 0,0 0,0zm-15 -6c1,0 1,-1 1,-2 0,0 0,0 0,0 0,1 -1,1 -1,2l0 0zm-11 -6c0,0 0,0 0,0 0,0 0,0 0,0zm-6 -72c0,0 1,0 1,0 -1,1 -2,1 -3,2 1,-2 1,-3 2,-2zm-87 -349c0,1 0,1 0,1l0 0c0,0 0,0 0,-1 0,0 0,0 0,0zm7 -18c0,-1 -1,-1 -1,-1 0,0 1,0 1,0 0,0 0,0 0,1zm32 -21c0,0 0,0 0,0 0,0 0,0 0,0zm0 -8c0,0 0,0 0,0 0,0 0,0 0,0 0,0 0,0 0,0zm20 -21c-1,0 -1,0 -1,0 0,0 1,0 1,0 0,0 0,0 0,0zm31 -21c0,0 0,0 0,0 0,0 0,0 0,0 0,0 0,0 0,0 0,0 0,0 0,0 0,0 0,0 0,0 0,0 0,0 0,0 0,0 0,0 0,0 0,0 0,0 -1,0 1,0 1,0 1,0 0,0 0,0 0,0 0,0 0,0 0,0zm43 -50c1,0 0,0 0,0 0,0 0,0 0,0 0,0 0,0 0,0zm-9 -15c-1,1 -1,1 -1,1 0,-1 0,-1 0,-1 1,0 1,0 1,0zm243 -66c0,-1 0,-1 0,-1 0,0 1,0 1,1 0,0 -1,0 -1,0zm77 -2c0,0 0,0 0,0 0,0 0,0 0,0 0,0 0,0 1,0 0,0 0,0 -1,0zm53 68c0,0 0,0 0,0 0,0 1,0 1,-1 0,0 0,0 0,0 -1,1 -1,1 -1,1zm53 34c0,0 0,0 0,0 0,0 0,0 0,0 0,0 0,0 0,0zm6 -17c0,0 0,0 0,0 0,0 0,0 0,0 0,0 0,0 0,0zm5 0c0,0 0,0 0,0 0,0 0,-1 0,-1 0,0 0,0 0,1zm15 5c-1,1 -1,1 -1,2 0,0 0,0 0,0 0,0 1,-1 1,-2l0 0zm11 6c0,0 0,1 0,1 0,0 0,-1 0,-1zm6 72c0,0 -1,0 -1,0 1,0 2,-1 3,-1 -1,1 -1,2 -2,1zm26 397c0,1 0,1 0,1 0,0 0,0 0,0 0,0 0,0 0,-1zm-370 190c0,0 0,0 0,0 0,0 0,0 0,0 0,0 0,0 0,0zm-27 -46c0,0 0,0 0,0 0,0 0,0 0,0l0 0c0,0 0,0 0,0zm-24 -21c0,0 1,0 1,1 -1,-1 -1,-1 -1,-1zm-120 -82l0 0 0 0c0,0 0,0 0,0zm17 4c0,0 0,0 1,0 -1,0 -1,0 -1,0 0,0 0,0 0,0zm-34 -436c0,0 0,0 0,0 0,0 0,0 0,0 0,0 0,0 0,0zm84 -119c1,0 1,-1 1,0 0,0 0,0 0,1 0,-1 0,-1 -1,-1zm16 44c0,0 1,0 1,1 0,-1 -1,-1 -1,-1zm26 -5c0,0 0,0 -1,0 0,0 1,0 1,-1 0,1 0,1 0,1zm244 -110c0,0 0,0 0,0 0,0 0,0 0,0 0,0 0,0 0,0zm23 40c0,0 0,0 0,0 0,0 0,0 0,0 0,0 0,0 0,0zm131 105c0,0 0,0 0,0 0,0 0,0 0,0 0,0 0,0 0,0zm57 388c0,0 0,0 0,0 0,0 0,0 0,0 0,0 0,0 0,0zm3 11c0,0 0,0 0,0 0,0 0,0 0,0zm-387 214c0,0 0,0 0,0l0 0c0,0 0,0 0,0 0,0 0,0 0,0 0,0 0,0 0,0 0,-1 0,0 0,-1 0,1 0,1 1,1 -1,0 -1,0 -1,0zm-141 -99l0 0zm-79 -421c0,0 0,0 0,0 0,0 0,0 0,0 0,0 0,0 0,0zm-3 -10c0,0 0,-1 0,-1 0,0 0,1 0,1zm338 -184c0,-1 -1,-2 -2,-2 0,0 0,0 0,0 1,1 1,2 2,2 0,0 0,0 0,0zm19 -34c0,0 0,0 0,0 0,0 0,0 0,0 0,0 0,0 0,0zm30 4c0,0 0,0 0,0 0,0 0,0 0,0 0,0 0,0 0,0zm36 32c0,0 0,0 0,0 0,0 0,0 0,0 0,0 0,0 0,0zm24 21c0,0 0,0 -1,0 1,0 1,0 1,0zm81 45c0,0 0,0 0,0 0,0 0,0 0,0 0,0 0,0 0,0zm-21 514c0,0 0,0 0,0 0,0 0,0 0,0 0,0 0,0 0,0zm-68 -6c0,0 -1,0 -1,0 0,0 1,0 1,0zm-214 136c1,0 1,0 1,0 0,0 0,0 -1,0 0,0 0,0 0,0zm-37 -44c0,0 0,0 0,0 0,-1 1,-1 1,-1 0,0 0,0 0,1 0,0 -1,0 -1,0l0 0c0,0 0,0 0,0zm-96 -93c0,0 0,0 0,0 0,0 0,0 0,0 0,0 0,0 0,0zm-2 21c0,0 0,0 0,0 0,0 0,0 0,0 0,0 0,0 0,0zm-22 12l0 0zm103 -501c1,0 1,0 1,0 0,0 0,0 -1,0zm214 -136c-1,0 -1,1 -1,0 0,0 1,0 1,0 0,0 0,0 0,0zm133 138c0,0 0,0 0,0 0,0 0,0 0,0 0,0 0,0 0,0zm24 -34c0,0 0,0 0,0 0,0 0,0 0,0 0,0 0,0 0,0zm-35 502c0,0 0,0 0,0 0,0 0,0 0,0 0,0 0,0 0,0zm-360 10c0,0 0,0 0,0l0 0c0,0 0,0 0,0 0,0 0,0 0,0zm-34 -18c-1,0 -1,0 -1,0 0,0 0,0 1,0 0,0 0,0 0,0zm-1 3c0,0 0,0 0,0 0,0 0,0 0,0zm-40 28c0,0 0,0 0,0 1,0 1,0 1,0 0,0 0,0 -1,0zm31 -499c0,0 0,0 0,0 0,0 0,0 0,0 0,0 0,0 0,0zm319 -85c0,0 0,0 0,0 0,0 -1,0 -1,0 0,0 0,0 0,0 1,0 1,0 1,0l0 0c0,0 0,0 0,0zm5 6l0 0c0,0 0,0 0,0 0,0 0,0 0,0zm36 75c0,-1 0,-1 0,-1l0 0c0,0 0,0 0,0 0,0 0,0 0,1zm34 17c1,0 1,0 1,0 0,1 0,0 -1,1 0,0 1,-1 0,-1zm41 -31c0,0 0,0 0,1 -1,0 -1,-1 -1,-1 0,0 0,0 1,0zm-361 554c0,0 0,0 1,0 -1,1 -1,1 -1,1 0,0 0,-1 0,-1zm-74 -531c0,0 0,0 0,0 0,0 0,0 0,0 0,0 0,0 0,0zm288 -119c0,0 0,0 0,0 0,0 0,0 0,0 0,0 0,0 0,0zm-115 644c-1,0 -1,0 -1,1 0,-1 0,-1 0,-1 0,0 0,0 1,0zm-95 -14c0,0 0,0 0,1 0,-1 0,-1 -1,-1 1,0 1,0 1,0zm-31 -38c0,0 0,1 0,1 0,0 0,-1 0,-1 0,0 0,0 0,0zm-16 -5c0,0 0,-1 0,-1 0,0 0,0 0,1zm-15 -23c1,0 1,0 1,0 0,0 0,0 0,0 0,0 0,0 0,0 0,0 0,0 0,0 0,0 0,0 0,0 0,0 0,0 0,0 0,0 -1,0 -1,0 0,0 1,0 1,0 0,0 0,0 -1,0zm-46 40c0,0 0,-1 0,-1 0,1 0,1 0,1 0,0 0,0 0,0zm304 -581c0,0 0,0 0,0 0,0 0,0 0,0 0,0 0,0 0,0zm56 36c0,0 0,0 0,0 0,0 0,0 0,-1 0,1 0,1 0,1zm27 58c0,0 0,0 0,0 0,0 0,0 0,0 0,0 0,0 0,0zm16 6c0,0 0,0 1,0 -1,0 -1,0 -1,0zm15 23c-1,0 -1,0 -1,-1 0,0 0,0 0,0 0,0 0,0 0,0 0,0 0,0 0,0 0,0 0,0 0,0 0,0 0,0 0,0 0,0 1,0 1,0 0,0 -1,0 -1,0 0,0 0,0 1,1zm46 -40c0,0 0,0 0,0 0,0 0,0 0,0 0,0 0,0 0,0zm-59 446c0,0 0,0 0,0 0,-1 0,-1 1,-1 0,0 0,0 0,0 -1,0 -1,1 -1,1zm-209 82c0,0 0,0 0,0 0,0 0,0 0,0 0,0 0,0 0,0 0,0 0,0 0,0zm-36 53c0,0 0,0 0,0 0,0 0,0 0,0 0,0 0,0 0,0zm-81 -100c0,0 0,0 0,0 0,1 0,1 0,2 0,0 0,0 0,0 1,-1 1,-1 0,-2zm-66 -14c0,0 1,0 2,0 0,0 0,0 0,0 -1,0 -2,0 -2,0zm-8 18c0,0 0,0 0,0 0,0 0,0 0,0 0,0 0,0 0,0zm256 -525c1,-1 1,-1 1,-1 0,0 0,0 0,1 0,-1 0,0 -1,0zm13 -3c0,0 0,0 0,0 -1,-1 -2,-2 -3,-3 0,0 0,0 0,0 1,1 2,2 3,3zm25 -28c0,0 0,0 0,0 0,0 0,0 0,0 0,0 0,0 0,0zm6 2c0,0 0,0 -1,0 1,0 1,0 1,0zm51 43c0,-1 0,-1 0,-1 0,0 0,0 1,1 -1,0 -1,0 -1,0zm29 42c0,0 0,0 0,0 0,0 0,-1 0,-2 0,0 0,0 0,0 -1,1 -1,2 0,2zm27 25c0,0 0,0 0,0 0,0 0,0 0,0 0,0 0,0 0,0zm39 -11c0,0 -1,0 -2,1 0,0 0,-1 0,-1 1,1 2,0 2,0zm8 -18c0,0 0,0 0,0 0,0 0,0 0,0 0,0 0,0 0,0zm-300 554c0,0 0,0 1,0 -1,0 -1,0 -1,0zm-138 -108c0,0 0,0 0,0 0,0 0,0 0,0 0,0 0,0 0,0zm38 -406c0,0 0,0 0,0 0,0 0,0 0,0 0,0 -1,0 -1,0 1,0 1,0 1,0zm209 -82c0,0 0,0 0,0 0,0 0,0 0,0 0,0 0,0 0,0 0,0 0,0 0,0zm-76 518c0,0 0,0 0,0 0,0 0,0 0,0zm-22 52c0,0 0,0 0,0 0,0 0,0 0,0 0,0 0,0 0,0zm-129 -133c0,0 0,0 0,0 0,0 0,0 0,0 0,0 0,0 0,0zm231 -398c0,0 0,0 0,0 0,0 0,0 0,0zm22 -52c0,0 0,0 0,0 0,0 0,1 0,1 0,0 0,-1 0,-1zm18 -13c-1,-1 -1,-2 -2,-2 1,0 1,1 2,2zm111 146c0,0 0,0 0,0 0,0 0,0 0,0 0,0 0,0 0,0zm-283 468c0,0 0,0 0,1 0,0 0,-1 0,-1 0,0 0,0 0,0zm-11 -17c0,0 0,0 0,0 0,0 0,0 0,0 0,0 0,0 0,0zm-69 -83c0,0 0,0 0,0 0,0 0,1 1,1 0,0 0,0 0,0 -1,-1 -1,-1 -1,-1 0,0 0,0 0,0 0,0 0,0 0,0zm235 -500c0,0 0,0 0,0 0,0 0,0 0,0 0,0 0,0 0,0zm16 -6c1,2 1,3 -1,4 0,1 0,1 0,1 0,-1 1,-3 1,-5 0,0 0,0 0,0zm13 -13c0,0 0,0 0,0 0,0 0,0 0,0 0,0 0,0 0,0zm42 73c0,0 0,0 0,0 0,0 0,0 0,0 0,0 0,0 0,0zm38 28c0,0 0,-1 0,-1 0,0 0,0 -1,0 0,0 0,0 0,0 1,0 1,0 1,0 0,0 0,0 0,0 0,1 0,0 0,1zm-250 501c0,0 0,-1 0,-1 0,2 -1,3 -1,5 -1,-2 0,-3 1,-4zm0 15c-1,-1 -1,-2 -2,-2 1,0 1,1 2,2zm-38 -47c0,0 0,0 0,0 0,0 0,-1 0,0zm-47 -57c0,0 0,0 0,0 -1,1 -2,2 -1,4 0,0 0,0 0,0 1,-1 1,-3 1,-4zm255 -502c0,0 0,0 0,0 0,0 0,0 0,0 0,0 0,0 0,0 0,0 0,0 0,0 0,0 0,0 0,0 0,0 0,0 0,0zm11 6c0,0 0,0 0,0 0,0 0,0 0,0 0,0 0,0 0,0zm60 89c0,0 0,0 0,0 1,0 2,-2 1,-3 0,0 0,0 0,0 -1,1 -1,2 -1,3zm-198 411c-1,0 -1,0 -1,0 0,0 1,0 1,0zm0 10c0,0 0,0 0,0 0,0 0,1 0,1 0,0 0,-1 0,-1zm-57 81c0,0 0,0 0,0 0,0 0,0 0,0 0,0 0,0 0,0 0,0 0,0 0,0 0,0 0,0 0,0 0,0 0,0 0,0zm-5 -21c0,0 0,0 0,0 0,0 0,0 0,0 0,0 0,0 0,0zm132 -484c1,-1 1,-1 1,0 0,0 -1,0 -1,0zm81 -53c0,0 0,-1 0,-1 0,1 0,1 0,1zm7 31c0,0 0,0 0,0 0,0 0,0 0,-1 0,0 0,0 0,0 0,1 0,1 0,1zm1 1c1,1 2,1 2,2 0,-1 -1,-1 -2,-2zm-227 498c0,0 0,0 0,0 0,0 0,0 0,0 0,0 0,0 0,0zm-20 -42c0,0 0,0 0,0 0,0 0,1 0,1 0,0 0,0 0,0 0,0 0,-1 0,-1zm-1 -1c-1,0 -1,-1 -2,-2 1,1 1,2 2,2zm221 -505c0,0 0,0 0,0 0,0 0,0 0,0 0,0 0,0 0,0zm-113 415c-1,0 -1,0 -1,0 0,0 0,0 0,0 1,0 1,0 1,0zm-138 65c0,0 1,0 1,0 0,0 -1,0 -1,0 0,0 0,0 0,0zm170 -340c1,0 1,0 1,0 0,0 0,0 0,1 -1,-1 -1,-1 -1,-1zm69 -103c0,0 0,0 1,0 -1,0 0,0 -1,0 0,0 0,0 0,0 0,0 0,0 0,0zm18 -30c0,0 0,0 0,0 0,0 0,0 0,0 0,0 0,0 0,0zm51 69c0,0 -1,0 -1,0 0,-1 1,-1 1,-1 0,0 0,0 0,1zm-228 418c0,0 0,0 0,0l0 0c0,0 0,0 0,0zm-11 25c0,0 0,0 0,-1 0,0 0,0 0,0 0,0 0,0 0,0 0,0 0,0 0,1zm-1 23c0,0 0,0 0,0 0,0 0,0 0,0zm-6 5c0,0 0,0 0,0 0,0 0,0 0,0 0,0 0,0 0,0zm-21 -31c0,0 0,0 0,0 0,0 0,0 -1,0 1,0 1,0 1,0zm-23 -43c0,0 0,0 0,0 0,0 0,0 0,0 0,0 0,1 0,0zm210 -411c0,0 0,0 0,0 0,0 0,0 0,0 0,0 0,0 0,0zm39 -22c0,0 0,0 0,-1 0,1 0,1 1,1 -1,0 -1,0 -1,0zm23 42c0,0 0,0 0,0 0,0 0,0 0,0 0,0 0,0 0,0zm-219 372c0,0 0,0 0,0 0,0 0,0 1,0 -1,0 -1,0 -1,0zm-23 57c0,0 0,0 0,0 0,0 0,0 0,0 0,0 0,0 0,0zm189 -410c0,0 0,0 0,0 0,0 0,0 -1,0 1,0 1,0 1,0zm3 -87c0,0 0,0 0,0 0,0 0,0 0,0zm6 -5c0,0 0,0 0,0 0,0 0,0 0,0 0,0 0,0 0,0zm64 81c0,1 0,1 0,1 0,0 0,0 0,0 0,0 0,0 0,-1zm-172 306c0,0 0,0 0,0 0,0 0,0 0,0 0,0 0,0 0,0zm-64 102c-1,0 0,-1 0,-1 0,0 0,0 0,1 0,0 0,0 0,0zm96 -339c0,0 0,0 0,0 0,0 0,0 0,0 0,0 0,0 0,0zm64 -101c0,0 0,0 0,0 0,0 0,0 0,0 0,0 0,0 0,0zm-164 355c0,0 0,0 0,0 0,0 0,0 0,0zm-55 16c0,0 0,0 0,0 0,0 0,0 0,0l0 0c0,0 0,0 0,0 0,0 0,0 0,0 0,0 0,0 0,0zm223 -286c0,-1 0,-1 0,-1 0,0 0,0 0,1zm55 -16c0,0 0,0 0,0l0 0 0 0 0 0c0,0 0,0 0,-1 0,1 0,0 0,1zm-132 281c0,0 0,0 0,0 0,0 0,0 0,0 -1,0 0,0 0,0zm-102 86c-1,-1 -2,-2 -2,-3 0,1 1,2 2,3zm-3 -8l0 0 0 0zm0 2c0,0 0,0 0,0 0,0 0,0 0,0 0,0 0,0 0,0zm-44 -87c0,0 0,0 0,0 0,0 -1,-1 -1,-3 0,1 1,2 1,3zm135 -253c0,0 0,-1 0,-1 0,0 0,0 0,0 1,1 0,1 0,1zm149 7c0,0 0,0 0,0 0,-1 1,1 1,2 0,-1 -1,-2 -1,-2zm-125 275c0,0 0,0 0,0 0,0 0,0 0,0 0,0 0,0 0,0zm-34 -305c0,0 0,0 0,0 0,0 0,0 0,0 0,0 0,0 0,0zm-118 263l0 0 0 0 0 0zm234 -251c0,0 1,1 1,1 0,1 0,2 -1,1 0,-1 0,-1 0,-2zm-198 281c0,0 -1,-1 -1,-1 0,-1 0,-1 1,-1 0,1 0,2 0,2zm228 -300c0,0 0,1 0,1 0,-1 0,-1 0,-1 0,0 0,0 0,0 0,0 0,0 0,0zm-32 -53c0,-1 -1,-3 -2,-3 1,0 2,1 2,3zm1 2c0,0 0,0 0,0 0,0 0,0 0,0 0,0 0,0 0,0zm-227 370c0,0 0,0 0,0 0,0 0,0 0,0 0,0 0,0 0,0 0,0 0,0 0,0zm235 -392c0,0 0,0 0,0 0,0 0,0 0,0 0,0 0,0 0,0 -1,0 -1,0 -1,0 0,0 0,-1 0,-1 0,0 0,1 1,1zm-220 449c0,0 0,0 0,0 0,0 0,0 0,0 0,0 0,0 0,0zm228 -433c0,0 0,0 0,0 0,0 0,0 0,0 0,0 0,0 0,0zm-7 -43c0,0 -1,-1 -2,-2 0,0 0,-1 1,-1 3,1 2,2 1,3zm-213 493c1,0 1,0 1,0 0,0 0,0 0,0 0,0 0,0 -1,0zm254 -430c0,0 0,0 0,0 0,0 0,0 0,0 0,0 0,0 0,0zm-296 394c0,0 0,0 0,0 0,0 0,0 0,0 0,0 0,0 0,0zm41 62c0,1 1,1 2,2 0,1 0,1 -1,1 -3,-1 -2,-2 -1,-3zm166 -424c0,0 0,0 0,0 0,0 0,0 0,1 0,0 0,0 0,0 0,-1 0,-1 0,-1 0,0 0,0 0,0 0,0 0,0 0,0zm-118 329c0,0 0,0 0,0 0,0 0,0 0,0 0,0 0,0 0,0 0,0 0,0 0,0 0,0 0,0 1,0 0,0 -1,0 -1,0zm94 -382c0,0 0,0 0,0 0,0 0,0 0,-1 0,1 0,1 0,1zm-111 555c0,0 0,0 0,0 0,0 0,0 0,0 0,0 0,0 0,0zm211 -614c0,0 0,0 0,0 0,0 0,0 0,0 0,0 0,0 0,0zm-59 -60c0,0 0,0 0,0 0,0 0,0 0,0 0,0 0,0 0,0zm-215 125c0,0 0,0 0,0 0,0 0,0 0,0 0,0 0,0 0,0zm101 506c0,0 0,0 0,0 -2,-1 -3,-2 -4,-3 0,0 0,0 0,1 1,1 2,2 4,2zm177 -82c0,0 0,0 0,0 0,0 0,0 0,0 0,0 0,0 0,0zm-5 -513c0,0 0,0 0,-1 0,1 1,0 1,1 0,0 0,0 -1,0zm-269 577c0,0 0,0 0,0 0,0 0,0 0,0 0,0 0,0 0,0zm353 -528c0,0 0,0 0,0 -1,-1 -1,-1 -2,-1 0,0 0,0 0,0 0,0 1,1 2,1zm-101 -66c-1,1 -1,1 -1,2 0,0 0,-1 0,-2 0,0 1,0 1,0 0,0 0,-1 0,-1 0,0 0,0 0,0 0,0 0,0 0,0 1,1 2,1 3,0 0,0 0,0 0,0 -1,0 -2,0 -3,1 0,0 0,-1 0,-1 0,0 0,1 0,1 0,0 0,0 0,0zm-333 571c0,-1 -1,-1 -2,-1 0,0 0,0 0,0 1,0 1,1 2,1 0,0 0,0 0,0zm82 47c0,1 0,1 0,1 0,0 -1,0 -1,0 0,0 1,-1 1,-1zm17 18c1,-1 1,-2 1,-3 0,1 0,2 0,3 0,0 0,0 -1,0 0,0 0,0 0,0 0,0 0,0 0,0 0,0 0,0 0,0 -1,0 -2,0 -3,0 0,0 0,0 0,0 1,0 2,1 3,0 0,0 0,0 0,0 0,0 0,0 0,0 0,0 0,0 0,0zm240 -647c-1,-1 -1,0 -1,0 0,-1 0,-1 0,-1 0,0 1,0 1,1zm-175 704c0,0 0,0 0,0 0,0 0,0 0,0 0,0 0,0 0,0zm180 -695c0,0 0,0 0,0 0,0 0,0 0,0 0,0 0,0 0,0zm-419 148c0,0 0,0 0,0 0,0 0,0 0,0 0,0 0,0 0,0zm169 501c0,0 0,0 0,0 0,0 0,0 0,0 0,0 0,0 0,0zm413 -157c0,0 0,0 0,0 0,0 0,-1 0,-1 0,0 0,0 0,1zm-136 -478c0,0 0,0 0,0 0,0 -1,0 0,0zm-42 -60c0,0 0,0 0,0 0,0 0,0 0,0 0,0 0,0 0,0zm-268 672c0,-1 0,-1 0,-1 0,0 1,0 0,1zm350 9c-1,0 -1,0 -1,0 0,0 0,-1 0,-1 0,0 0,0 1,1zm106 -121l0 0c0,0 0,0 0,0 0,0 0,0 0,0zm23 -324c0,0 -1,0 -1,1 0,0 0,0 0,0 0,-1 1,-1 1,-1 0,0 0,0 0,0zm-117 417c-1,0 0,-1 0,-1 0,0 0,0 0,1 0,0 0,0 0,0zm9 14c1,0 1,0 1,0 0,0 0,0 0,1 0,-1 -1,-1 -1,-1zm-139 -705c0,0 0,0 0,0 0,0 0,0 0,0 0,0 0,0 0,0zm-154 808c0,0 0,0 0,0 0,0 0,0 0,0 0,0 0,0 0,0zm341 -672c0,0 0,0 0,0 0,0 0,0 0,0 0,0 0,0 0,0zm-100 -43c0,0 0,0 0,0 0,1 0,1 -1,1 1,0 1,-1 1,-1l0 0zm0 -25c0,0 0,0 0,0 0,0 0,0 0,0 0,0 0,0 0,0zm-139 -65c0,0 0,0 0,0 0,0 0,0 0,0 0,0 0,0 0,0zm-349 533c0,0 0,0 0,0 0,0 0,0 0,0 0,0 0,0 0,0zm60 136c0,0 0,0 0,-1 0,0 0,1 0,1 0,0 0,0 0,0zm473 -591c-1,0 -1,0 -1,0 0,0 0,0 1,0 0,0 0,0 0,0zm-19 39c0,0 0,0 0,0 0,0 0,0 0,0 0,0 0,0 0,0zm-398 606c0,0 0,0 0,0 0,0 0,0 0,0 0,0 0,0 0,0zm18 -38c0,0 0,0 0,0 0,0 0,-1 0,-1 0,1 0,1 0,1zm26 52c0,0 0,-1 0,-1 0,1 0,1 0,1 0,0 0,0 0,0zm445 -548c-1,0 -1,0 -1,0 0,0 0,0 1,-1 0,1 -1,1 0,1zm4 -50c0,0 0,0 0,0 0,0 0,1 -1,0 1,0 1,0 1,0zm-140 -100l0 0c0,0 0,0 0,0 0,0 0,0 0,0 0,0 0,0 0,0 0,0 0,0 0,0 0,0 0,0 0,0zm-425 574c0,0 0,0 0,0 0,0 0,0 0,0 0,0 0,0 0,0zm-5 49c0,0 0,0 0,0 0,0 0,0 1,0 -1,0 -1,0 -1,0zm369 -710c1,1 1,1 1,1 0,0 -1,0 -1,-1zm-229 811l0 0c0,0 0,0 0,-1 0,0 0,1 0,1 0,0 0,0 0,0 0,0 0,0 0,0 0,0 0,0 0,0zm291 -738c0,0 0,0 0,0 0,0 0,0 0,0zm-398 29c0,0 0,0 0,0 0,0 0,0 0,0 0,0 0,0 0,0zm504 694c0,0 0,0 0,0 0,0 0,0 0,0 0,0 0,0 0,0zm-593 -598c0,0 0,0 0,0 0,0 0,0 0,0 0,0 0,0 0,0zm195 626c0,0 0,0 0,0 0,0 0,0 0,0zm125 55c0,0 0,0 0,0 0,0 0,0 0,0 0,0 0,0 0,0l0 0zm362 -179c0,0 0,0 0,0 0,0 0,-1 0,-1 0,1 0,1 0,1zm-499 -629c0,1 0,1 0,1 0,0 0,0 0,0 0,0 0,0 0,-1zm-200 141c-1,0 -1,0 -1,0 0,0 0,0 1,-1 0,1 0,1 0,1zm516 614c0,0 0,0 0,0 0,0 0,-1 0,-1 0,0 0,1 0,1zm200 -141c1,0 1,0 1,0 0,1 0,1 -1,1 0,0 0,0 0,-1zm26 -468c0,0 0,0 0,0 0,0 0,0 -1,0 0,0 0,0 0,0 1,0 1,0 1,0zm-151 -122c0,0 0,1 0,1 0,0 0,-1 0,-1zm-204 -83c0,0 -1,0 -1,0 0,0 0,0 0,0 1,0 1,0 1,0 0,0 0,0 0,0 0,0 0,1 1,1l0 0c0,-1 -1,-1 -1,-1zm-413 668c0,0 0,0 0,0 0,0 0,0 1,0 0,0 0,0 0,0 0,1 0,1 0,1 -1,-1 -1,-1 -1,-1zm151 122c0,0 0,0 0,0 0,0 1,0 0,0zm-47 -675c-2,0 -2,0 -3,1 0,-1 -1,-3 -2,-4 2,1 3,2 5,3zm24 665c0,0 0,0 0,0 0,0 0,0 0,0 0,0 0,0 0,0 0,0 0,0 0,0zm268 79c0,0 0,0 0,0 0,0 0,0 1,0 -1,0 -1,0 -1,0zm268 -100c2,0 2,-1 3,-1 0,1 1,2 2,4 -1,-1 -3,-3 -5,-3zm-211 -812c0,0 0,0 0,0 0,0 0,0 0,0zm-138 980c0,-1 0,-1 0,-1 0,0 0,0 0,1zm247 -107c0,0 0,0 0,0 0,0 0,0 0,0 0,0 0,0 0,0l0 0zm251 -266c0,0 0,0 0,0 0,0 0,0 0,0 0,0 0,0 0,0zm-125 -457c0,0 0,0 0,0 0,1 0,1 0,1 0,0 0,0 0,0 0,0 0,0 0,-1zm-190 -145c0,0 0,0 0,0 0,0 0,0 0,0 0,0 0,0 0,0zm-142 67c0,0 0,-1 0,-1 0,0 0,1 0,1 0,0 0,0 0,0 0,0 0,0 0,0 0,0 0,0 0,0 0,0 0,0 0,0zm-401 301c0,0 0,0 0,-1 0,0 0,0 0,0 0,1 0,1 0,1zm147 448c0,0 0,0 0,0 0,0 0,0 0,0 0,0 0,0 0,0 0,0 0,0 0,0 0,0 0,0 0,0 0,0 0,0 0,0zm168 153c0,0 0,0 0,0 0,0 0,0 0,0 0,0 0,0 0,0zm142 -67c0,1 0,1 0,2 0,-1 0,-1 0,-2 0,0 0,0 0,0l0 0 0 0zm277 -756c0,0 0,0 0,0 0,0 0,0 0,0 0,0 0,0 0,0zm-11 -11c0,0 0,0 0,0 0,0 0,0 0,0 0,0 0,0 0,0zm-204 -144c0,1 0,2 0,2 0,0 0,-1 0,-2 0,0 0,0 0,0 0,0 0,0 0,0zm-255 84c0,-1 0,-1 0,-1 0,0 0,0 0,0 0,0 0,0 0,1zm-140 748c0,0 0,0 0,0 0,0 0,0 0,0 0,0 0,0 0,0zm11 11c0,0 0,0 0,0 0,0 0,0 0,0 0,0 0,0 0,0zm204 144c0,-1 0,-1 0,-2 0,1 0,1 0,2 0,0 0,0 0,0 0,0 0,0 0,0zm146 -94c0,0 -1,0 -1,0 0,0 1,0 1,0 0,0 0,0 0,0zm109 11c0,0 0,0 0,0 0,0 0,0 0,0 0,0 0,0 0,0zm175 -706c1,0 1,0 1,1 0,0 0,0 -1,0 1,-1 0,-1 0,-1zm-670 -21c0,0 0,0 0,0 0,0 0,0 0,0 0,0 0,0 0,0zm-10 612c0,0 -1,0 -1,0 0,0 1,0 1,0 0,0 0,0 0,0zm670 21c0,0 0,0 0,1 0,0 0,0 0,0 0,-1 0,-1 0,-1zm124 -149c0,0 0,0 0,0 0,0 0,0 0,0 0,0 0,0 0,0zm17 -284c1,0 0,0 0,0 1,0 0,0 1,0 0,-1 0,0 -1,0zm-492 -348c0,0 0,0 1,0 -1,0 -1,0 -1,0 0,0 0,0 0,0zm-433 297c0,0 0,1 0,1 0,-1 0,-1 0,-1 0,0 0,0 0,0zm-18 284c0,0 1,0 1,1 -1,0 0,-1 -1,-1 0,1 0,0 0,0zm493 349c0,-1 0,-1 0,-1 0,0 0,0 0,1 0,0 0,0 0,0zm-396 -773c0,0 0,0 1,0 0,0 -1,0 -1,0 0,0 0,0 0,0zm750 615c0,0 0,0 -1,0 0,0 1,0 1,0 0,0 0,0 0,0zm-171 -712c0,0 1,0 1,1 0,0 -1,0 -1,0 0,-1 0,-1 0,-1zm-181 -109c0,0 0,0 0,0 0,0 0,0 0,0 0,0 0,0 0,0zm-292 103c0,1 0,1 0,1 0,0 0,0 0,-1 0,0 0,0 0,0zm-111 103c0,0 0,1 0,1 0,0 0,0 0,-1 0,0 0,0 0,0zm176 712c0,0 -1,0 -1,0 0,0 1,0 1,0 0,0 0,0 0,0zm181 110c0,0 0,0 0,0l0 0 0 0zm292 -104c0,0 0,0 0,0 0,0 0,0 0,0 0,0 0,0 0,0zm111 -103c0,0 0,0 0,0 0,0 0,0 0,0 0,0 0,0 0,0zm117 -122c0,0 0,0 0,0 0,0 0,0 0,-1 0,0 0,0 0,1zm-18 -486c0,1 1,1 -1,3 0,0 0,0 0,0 2,-2 1,-2 1,-3zm-256 -129c-1,0 -1,0 -1,0l1 0c0,0 0,0 0,0zm-264 -36c0,-1 0,-1 0,-2 0,1 0,1 0,2zm-149 16c0,0 1,0 1,0 0,0 0,0 0,0 0,0 0,0 -1,0zm-163 112c0,0 0,0 0,0 0,0 0,1 0,1l0 0c0,0 0,-1 0,-1 0,0 0,0 0,0zm-44 39c0,0 0,0 0,0 0,0 0,0 0,0 0,0 0,0 0,0zm-82 599c0,0 0,-1 1,-2 0,0 0,0 0,0 -2,1 -1,2 -1,2zm256 129c1,0 1,0 1,0l-1 0c0,0 0,0 0,0zm264 37c0,0 0,1 0,1 0,-1 0,-1 0,-1zm149 -16c0,0 -1,0 -1,0 0,0 0,0 0,0 0,0 0,0 1,0zm163 -113c0,0 0,0 0,0 0,0 0,0 0,0 0,0 0,0 0,0 0,0 0,0 0,0zm44 -39c0,0 0,0 0,0 0,0 0,0 0,0 0,0 0,0 0,0zm131 -512c0,0 0,0 1,0 0,0 -1,0 -1,1 0,-1 0,-1 0,-1zm-934 -88c-1,0 -2,0 -3,2 0,0 0,0 0,0 1,-1 2,-2 3,-2zm-122 515c0,0 0,0 -1,0 0,0 1,0 1,0 0,0 0,0 0,0zm880 166c0,0 0,0 0,0 0,0 0,0 0,0 0,0 0,0 0,0zm155 -208c0,0 0,0 0,0 0,0 0,0 0,0l0 0zm-174 -557c-1,0 0,0 -1,0 1,0 0,0 1,0 0,0 0,0 0,0zm-146 -43c0,0 0,0 1,0 -1,0 -1,0 -1,0 0,0 0,0 0,0zm-515 51c0,0 0,0 0,0 0,0 0,0 0,0 0,0 0,0 0,0zm-4 763c0,0 0,0 0,0 -1,0 0,0 -1,0 0,0 1,0 1,0zm145 44c0,0 0,0 0,0 0,0 0,0 0,0 0,0 0,0 0,0zm515 -51c0,0 0,0 0,0 0,0 0,0 0,0 0,0 0,0 0,0zm-898 -457c1,0 1,0 2,0 1,0 2,0 3,0 0,0 0,0 0,0 -1,1 -3,1 -5,0zm1140 157c-1,0 -1,0 -2,0 -1,0 -2,0 -3,0 0,0 0,0 0,0 1,-1 3,0 5,0zm51 140c-1,0 -2,0 -2,-1 -3,-5 -8,-5 -13,-7 -8,-2 -19,-2 -25,-11 -1,0 -1,0 -2,0 -1,-1 -3,-1 -4,-2 -1,-3 -3,-3 -5,-3 -4,1 -8,2 -8,-4 0,-1 -1,-3 -3,-2 -3,-4 -7,-7 -12,-8 -2,-1 -4,-1 -6,-2 -13,-3 -26,-10 -39,-14 -2,-1 -4,-2 -6,-3 -1,0 -2,0 -2,0 -1,-1 -2,-2 -3,-3 -2,-1 -4,-2 -6,-4 0,0 1,-1 1,-1 0,0 1,0 1,0 2,2 3,1 4,0 3,1 6,1 9,0 0,-2 -1,-3 -2,-3 -2,-1 -4,-1 -6,-2 0,-2 -1,-4 -4,-6 -3,-1 -5,-3 -8,-4 -2,-1 -4,-2 -5,1 -3,3 -1,6 1,8 0,0 1,1 1,2 -1,0 -1,0 -1,1 0,0 1,0 1,0 0,1 0,1 -2,1 -1,-1 -2,-2 -3,-3 0,0 -1,0 -2,0 0,0 0,0 0,0 0,0 0,0 0,0 0,0 0,0 0,0 1,0 1,0 2,0 -4,-1 -2,-6 -3,-8 -2,-3 -3,-6 -7,-8 0,-1 -1,-1 -2,-1 -1,-2 -3,-3 0,-5 4,0 9,0 13,0l1 0c0,0 0,0 0,0 0,0 -1,0 -1,0 -1,3 2,4 2,4 3,-2 6,-1 8,1 -1,0 -1,0 -2,0 -1,0 -3,0 -3,2 0,2 2,3 3,3 6,0 13,3 19,0 2,0 5,1 7,-1 -2,-2 -5,-4 -7,-4 -1,0 -1,0 -1,0 9,-2 14,-8 12,-19 -1,-3 -2,-5 -4,-8 2,1 3,2 4,2 4,0 7,1 9,-3 1,-4 -2,-6 -5,-8 -4,-3 -8,-2 -12,-2 -2,0 -4,0 -6,1 0,0 0,-1 -1,-1 0,0 -1,1 -2,2 -2,0 -5,0 -8,-2 -1,-2 -2,-5 -5,-5 -3,0 -7,0 -10,0 -1,-2 -1,-4 -4,-5 -1,-1 -3,-2 -4,-3 -2,-1 -3,-2 -4,-3 5,-1 9,-3 14,-4 8,0 16,-1 24,0 2,2 5,1 7,1 6,0 12,0 18,3 1,0 1,1 2,1 2,2 4,3 7,4 2,1 5,1 7,0 5,0 9,0 14,0 5,1 11,3 16,5 5,2 9,5 14,6 4,2 8,2 11,0 1,-1 -1,-6 -4,-7 -2,-3 -4,-7 -8,-7 -2,-2 -5,-1 -7,-1 0,0 0,0 -1,0 -7,-2 -14,-1 -21,-1 -1,0 -2,0 -2,0 -4,-1 -7,-1 -10,-2 -2,0 -4,-1 -5,-1 -3,-1 -6,-2 -9,-2 -6,-1 -11,-5 -16,-8 -2,-2 -3,-4 -6,-4 -6,-4 -13,-4 -20,-5 -2,-1 -3,-3 -5,-5 0,0 0,0 0,-1 -1,-2 -1,-5 1,-8 -3,0 -5,0 -7,1 -4,0 -8,1 -13,2 -2,0 -3,0 -5,0 -3,0 -6,0 -9,0 -1,0 -1,-1 -1,-1 -2,-2 -3,-4 -5,-5 -1,-2 -1,-3 -2,-4 -1,0 -1,-1 -1,-1 9,-3 19,-5 29,-4 0,-1 0,-1 1,-1 0,0 0,0 0,0 0,0 -1,0 -1,1 4,3 10,2 15,3 -4,-5 -5,-10 -7,-14 0,-3 -1,-6 1,-9 1,-1 3,-2 2,-4 -2,-2 -4,-1 -7,0 -9,4 -19,7 -29,8 0,0 -1,0 -1,-1 0,0 -1,0 -2,-1 -2,-1 -4,-2 -5,-4 -3,-1 -4,-3 -6,-5 0,-1 0,-1 0,-1 1,-5 2,-10 2,-15 3,2 6,5 8,7 1,1 1,2 2,3 0,1 1,2 3,2 2,0 2,-1 2,-2 0,-2 -1,-3 -3,-3 0,-1 -1,-1 -2,-1 -3,-3 -6,-6 -9,-9 0,-1 0,-3 1,-4 6,-5 15,-4 22,-7 2,-5 7,-5 11,-6 4,0 6,-1 3,-5 -2,-3 0,-6 2,-9 1,-2 3,-3 4,-5 0,0 -1,-1 -1,-1 0,0 0,0 0,0 1,0 1,1 1,1 5,-7 11,-14 13,-22 1,-5 2,-10 6,-13 4,-4 11,-4 13,-10 1,-5 5,-7 9,-7 3,-1 5,-2 2,-5 -5,-4 -6,-10 -7,-15 -1,-2 -1,-3 -3,-3 -1,-2 -3,-5 -4,-6 -3,-3 -1,-5 1,-6 0,0 0,0 1,0 9,-1 19,-1 28,-5 1,-1 1,-2 1,-2 0,1 -1,1 -1,2 7,-1 13,-1 19,-1 1,-1 3,-1 3,-2 0,-2 -2,-2 -3,-2 -7,-1 -13,-2 -20,-3 0,0 0,-1 0,-1 0,0 0,-1 0,-2 0,-2 5,-2 3,-4 -2,-3 -5,0 -8,0 -1,0 -2,2 -3,2 -3,2 -6,3 -10,4 0,0 0,0 0,0 0,0 0,0 0,0 -10,2 -20,0 -30,-1 -1,-3 -2,-6 -5,-8 -2,-2 -3,-4 -4,-5 -1,-2 -2,-4 1,-4 8,-1 15,-6 24,-6 12,1 23,0 34,1 8,0 15,0 21,-5 2,-1 4,-3 1,-5 -5,-3 -3,-5 0,-8 1,-1 2,-1 3,-2 11,-4 23,-4 32,-10 8,-2 16,-3 21,-10 0,0 -1,0 -2,0 -2,2 -4,4 -7,5 -1,0 -1,0 -2,0 0,-1 0,-1 0,-1 3,-1 6,-2 5,-5 -1,-3 0,-9 -5,-10 -5,-1 -10,-3 -16,-3 -3,0 -6,0 -10,0 0,0 -1,0 -1,0 4,-3 8,-2 12,-2 2,1 4,1 7,1 -2,-2 -4,-1 -7,-1 -2,-3 -5,-2 -8,-1 -9,3 -18,3 -28,3 -3,0 -6,1 -8,4 -9,2 -17,7 -26,9 -4,0 -7,1 -11,1 0,0 0,0 0,0 -4,-7 3,-9 6,-13 0,0 0,0 0,0 4,-4 0,-12 6,-16 1,0 1,-2 0,-3 -5,-5 -2,-11 -2,-17 1,-2 -1,-4 -3,-5 -1,-1 -2,-2 -1,-4 2,-5 -7,-7 -4,-13 1,-1 -1,-1 -2,-1 -2,0 -3,-2 -4,-3 -1,-4 -4,-7 -7,-10 1,0 1,-1 0,-1 0,-2 2,-5 -2,-6 -5,-1 -9,-4 -14,-7 0,0 1,0 1,0 1,-3 4,-1 6,-2 2,-1 4,-2 3,-5 -1,-2 -2,-3 -4,-1 -1,0 -1,0 -2,0 -1,-1 1,-2 0,-3 0,-1 1,-1 1,-1 2,-1 5,-1 7,-3 0,-1 -1,-1 -1,-1 2,-2 0,-3 -2,-3 0,0 -1,1 -1,1 -5,2 -11,3 -16,5 0,0 -1,0 -1,0 -3,1 -3,4 -5,5 -1,0 -1,1 -2,1 0,0 0,0 0,0 0,1 -1,1 -1,1 -1,1 -2,1 -3,1 -2,-2 -3,0 -4,1 0,0 0,0 -1,0 0,0 -1,0 -2,-1 -1,-1 -2,-2 -4,-3 0,-2 0,-3 -1,-3 -2,1 -1,2 0,3 -2,4 -5,4 -7,4 0,-1 -1,-1 -1,-1 0,0 0,0 0,0 -2,0 -3,0 -4,0 -6,0 -10,-1 -11,6 -2,6 -8,4 -11,6 0,-1 -1,-1 0,-1 1,-2 3,-2 5,-2 4,0 6,-2 4,-6 0,0 0,0 0,0 -1,0 -1,-1 -2,-1 -1,-2 -4,-1 -5,-3 -2,-4 -4,-2 -4,1 0,3 -3,4 -2,7 -1,0 -2,0 -3,0 0,-1 -1,-1 -1,-1 -1,0 -1,0 -1,1 -1,-1 -2,-1 -4,0 -4,1 -2,2 -1,4 -4,1 -7,3 -10,5 -6,4 -11,9 -18,8 0,0 0,0 0,1 0,0 0,0 -1,0l1 -1c0,-4 -8,-6 -2,-11 4,-2 3,-5 0,-6 -9,-1 -15,-7 -22,-11 -8,-4 -8,-10 -1,-15 1,1 3,2 3,-1 1,-1 1,-1 1,-2 -1,-1 -2,-2 -3,-2 -4,1 -8,0 -11,0 -1,-3 -5,-5 -3,-9 3,-3 6,-6 10,-7 3,-1 4,-2 5,-5 0,0 -1,0 -1,0 -1,-2 -2,-2 -4,-2 0,0 0,0 0,-1 0,0 0,0 0,0 0,0 -1,0 -1,1 -2,3 -6,0 -8,3 -1,1 -1,3 -3,2 -3,-1 -3,-3 -3,-5 0,-3 4,-5 4,-8 7,0 9,-6 12,-10 1,0 2,-1 2,-2 4,-2 7,-6 10,-9 3,0 2,-3 3,-5 0,-1 0,-2 -1,-2 1,0 2,0 2,-1 1,-1 0,-1 -1,-1 -1,-1 -2,-2 -3,-2 0,-1 0,-2 0,-3 2,-2 3,-5 6,-6l0 0 0 -1c-2,0 -3,1 -5,2 -3,2 -1,-1 -1,-2 0,0 1,-1 1,-1 -3,0 -5,0 -8,0 -1,1 -4,3 -3,6 -2,2 -4,4 -4,7 -2,2 -4,4 -6,5 -1,0 -2,0 -3,0 3,-1 4,-5 7,-7 1,-2 0,-3 -1,-4 -3,-4 -3,-4 2,-6 1,-1 3,-1 2,-3 -2,-2 -2,-5 0,-7 0,-2 -1,-4 -2,-3 -2,3 -6,4 -8,6 -1,1 -5,3 -1,6 1,0 1,1 0,2 -4,1 -3,5 -5,8 -2,1 -5,4 -1,7 1,1 0,2 0,3 -1,2 -2,0 -3,0 -2,-2 -4,0 -4,2 -2,5 3,4 6,5 0,0 0,0 0,0 0,0 0,0 0,0 -2,2 -6,1 -8,2 0,0 0,-1 0,-2 0,-1 -1,-2 -1,-4 0,0 0,-1 0,-1 2,-2 4,-5 5,-7 2,-3 3,-6 5,-9 -1,-1 -1,-2 -3,-2 0,0 0,-1 0,-1 0,2 1,3 3,3 0,-2 3,-3 0,-5 0,-1 -1,-2 -1,-2 1,-2 2,-4 3,-5 3,-2 5,-4 5,-6 2,-1 1,-2 0,-3l0 -1c1,-6 -5,-3 -6,-6 -1,2 -1,4 -2,5 -5,3 -4,6 -2,11 0,0 0,0 0,1 0,1 0,1 -1,2 -2,2 -4,4 -6,6 -2,1 -3,1 -4,3 0,0 -1,1 -2,1 -4,2 -7,6 -12,9 1,-5 2,-7 2,-10 0,-2 0,-3 0,-5 2,-5 5,-9 7,-14 1,-4 -1,-3 -3,-3 0,-3 0,-5 1,-8 0,0 0,-1 0,-1 2,-1 1,-3 1,-5 -1,-1 -1,-1 -2,-1 -1,1 -1,1 0,2 0,0 0,1 0,1 -1,0 -2,1 -2,2 0,0 0,0 0,0 0,0 0,-1 -1,-1 -2,2 -2,4 -2,6 0,0 0,0 0,0 0,4 -5,7 -2,11 0,0 -1,1 -1,1 -1,1 -2,2 -2,3 -6,3 -10,9 -18,8 0,0 0,-1 0,-1 -1,-1 -2,-2 -2,-4 -2,-6 -6,-9 -13,-8 0,-1 -1,-1 -1,-1 -1,-5 -4,-5 -9,-3 0,0 -7,2 -7,-4 0,-1 0,-2 0,-4 -3,-3 -6,2 -9,-1 -5,-2 -7,-5 -5,-10 1,-1 0,-2 0,-2 0,-1 1,-3 -1,-4 0,2 0,4 -2,5 -2,-2 2,-6 -3,-7 0,0 -1,0 -1,0 -1,1 -4,2 -1,5 0,1 0,2 0,3 -3,2 -4,5 -2,8 -3,2 -5,6 -7,9 -1,3 -2,1 -2,-1 -1,-2 4,-5 1,-6 -4,-2 -1,-4 -1,-6 -1,-4 1,-8 -4,-10l0 0c-1,-1 0,-4 -2,-4 -2,0 -2,2 -3,4 0,2 -1,5 1,8 2,4 2,8 1,12 -6,-3 0,3 -2,4 -4,1 -4,6 -9,6 -3,-4 -6,-7 -4,-13 1,-1 0,-3 -1,-4 -4,-1 -7,-4 -11,-4 -1,-7 -7,-4 -10,-6 0,-1 0,-1 0,-2 0,0 -1,-1 -1,-1 0,-2 0,-5 1,-7 0,-3 -2,-5 -4,-3 -4,3 -4,-1 -6,-2 0,0 0,0 0,1 0,0 0,0 0,0 0,-1 1,-1 0,-1 2,-9 -4,-17 -3,-26 3,-4 0,-8 1,-12 1,-6 -1,-7 -5,-8 0,-1 0,-1 0,-1 -1,-3 1,-6 -3,-7 0,0 0,0 0,-1 1,-4 -3,-4 -5,-6 -2,-2 -3,-4 -6,-5 0,0 0,-1 0,-1 0,-1 -1,-1 -1,-2 -8,1 -13,-3 -16,-9 0,-1 0,-1 -1,-1 0,0 0,0 0,0 -3,-3 -3,2 -5,2 -2,2 -4,0 -5,2 0,1 0,1 0,2 -2,-1 -3,-1 -4,-1 -3,-6 -10,-2 -15,-3 -8,-1 -15,3 -23,7 -4,2 -9,3 -12,6 0,0 0,0 0,0 0,0 0,0 0,0l0 0c-3,0 -5,4 -8,3 -2,1 -4,2 -5,2 -1,-1 -3,-3 -5,-2 -3,4 -7,2 -10,2 0,2 0,3 0,4 0,-1 1,-2 0,-4 0,-2 1,-5 -1,-7 -1,1 -3,2 -4,4 -1,-4 2,-10 -5,-12 -1,0 -1,0 -1,0 -3,0 -7,0 -7,-4 -1,-1 -1,-1 -2,-2 0,5 3,8 6,10 -1,3 -2,2 -4,1 -3,-2 -1,-7 -6,-8 1,6 -1,12 1,17 2,3 2,6 0,9 -1,-1 -3,-3 -6,-3 -2,-2 -3,-6 -3,-10 0,-4 0,-8 -3,-12 0,2 -1,2 -2,1 0,-1 0,-1 0,-2 -5,9 -8,10 -19,8 -4,-1 -7,0 -11,2 3,1 5,1 7,0 2,0 3,1 3,2 2,0 4,0 7,-1 1,-2 6,-2 6,-1 2,4 6,7 7,12 0,0 0,0 1,0 0,0 0,0 0,0 -1,0 -1,0 -1,0 -3,7 -2,9 5,10 0,0 0,1 1,1 0,3 0,5 1,7 0,2 1,3 -1,3 -2,2 -4,4 -6,4 -3,2 -8,2 -10,6 -5,1 -8,4 -10,7 -3,1 -6,3 -8,6 -4,1 -8,5 -12,7 0,0 -1,0 -1,0 -2,0 -4,0 -5,2 -3,2 -6,3 -9,3 -5,-1 -5,2 -3,5 0,0 0,0 0,0 -1,0 -2,1 -3,0 0,0 0,1 0,1 0,0 0,0 0,0 -1,0 -1,1 -2,1 -1,1 -1,2 0,3 0,0 -1,0 -1,0 0,0 0,0 0,0 0,0 -1,0 -1,0 0,0 0,1 -1,1 -1,1 -1,3 -3,3 -3,1 -6,3 -9,5 -7,4 -9,9 -6,16 0,1 0,1 1,1 0,0 0,0 0,0 -2,0 -4,0 -5,0 0,-1 0,-1 0,-1 0,0 0,0 0,0 1,-5 -1,-9 -1,-13 0,0 -1,0 -1,0 0,-3 -2,-7 3,-10 -4,0 -7,0 -9,-1 0,0 0,0 0,0 0,-1 0,-2 -1,-2 -2,-1 -2,-2 -3,-4 -2,-5 -2,-12 -11,-7 0,0 -1,-1 -2,-2 -1,6 -1,13 0,19 0,1 0,2 0,3 1,10 2,11 11,13 1,0 2,2 2,2 -3,-1 -5,1 -7,4 0,0 -1,0 -1,0 -6,1 -6,-3 -7,-7 -1,-9 1,-19 -4,-26 0,0 0,0 0,1 -5,-1 -7,1 -8,5 0,-1 0,-1 0,-1 0,-1 0,-1 0,-2 -1,0 -2,-1 -4,-1 1,3 -1,4 -3,4 1,2 0,3 -2,4 0,-2 -1,-3 -2,-3 -3,2 -4,0 -6,-1 0,-5 -2,-10 -2,-15 1,-4 -1,-3 -3,-3 -2,-1 -4,1 -5,2 -2,4 -5,9 -10,11 -2,1 -5,0 -6,2 -1,0 -1,-1 -2,-1 0,0 0,-1 0,-1 -3,-1 -4,3 -6,5 -3,0 -6,0 -9,-2 3,-1 5,-3 3,-7 -2,2 -5,4 -7,1 -2,-1 -4,-4 -2,-7 0,0 0,0 0,0 0,0 -1,0 -1,0 0,0 -1,1 -1,1 0,2 0,4 -3,4 7,5 3,12 5,18 -3,-2 -3,-3 -5,1 0,1 -1,1 -2,1 -2,0 -5,-1 -6,0 -4,5 -8,3 -13,2 0,2 0,5 3,6 1,-1 -2,-4 2,-3 6,1 12,-3 18,-3 3,0 3,1 3,3 -2,0 -4,-1 -5,2 0,1 0,1 -1,0 -4,-3 -7,1 -11,0 -3,0 -5,3 -9,4 0,0 0,1 0,1 -1,1 -3,1 -5,1 0,0 0,0 -1,0 -1,-1 -2,-1 -4,-2 -5,-3 -7,2 -11,4 -5,1 -10,0 -11,-7 0,0 0,-1 0,-2 -4,2 -1,-4 -4,-4 0,6 0,12 0,18 0,2 -1,4 -3,5 -3,-1 -4,1 -6,3 -2,2 -4,4 -8,4 0,-1 1,-1 1,-1 0,-1 -1,-1 -1,-1 5,-4 9,-9 16,-11 -1,-1 -2,-3 -2,-4 -2,-1 -4,0 -5,2 -1,2 -2,3 -5,2 -4,-1 -6,1 -6,4 -1,-2 -3,-4 -3,-7 -1,-3 -3,-4 -6,-3 -1,1 -1,1 0,2 0,0 0,0 0,1 -3,5 -1,10 -1,15 0,0 0,0 1,0 0,0 0,0 0,0 -1,0 -1,0 -1,0 -1,0 -1,0 -1,0 0,-2 0,-3 0,-4 0,-1 0,-2 0,-2 -1,-5 0,-9 0,-13 -1,-1 -1,-2 -2,-2 -1,1 -5,-2 -4,2 2,5 0,9 0,14 0,-1 -1,-1 -2,-1 -1,-1 -1,-1 -2,0 0,0 0,1 1,2 0,3 -1,6 0,9 0,2 0,4 0,5 1,1 1,2 1,3 -3,-2 -4,-2 -5,2 -2,6 -3,14 -10,17 -1,0 -2,0 -3,1 -3,0 -7,0 -6,5 1,1 -2,3 -4,4 -2,0 -2,-3 -3,-4 0,-1 0,-2 0,-4 -2,-1 -3,0 -3,2 0,1 0,1 0,2 0,0 0,0 0,0 -3,2 -3,4 -1,7 0,0 -1,0 -1,-1 0,0 0,0 -1,0 0,-1 -1,-3 -3,-5 1,-3 0,-5 -4,-4 0,0 0,0 0,0 0,0 -1,0 -1,0 0,-3 -1,-2 -2,-2 -1,0 -2,-1 -3,-1 0,2 1,4 1,6 0,0 1,1 1,1 -1,0 -1,-1 -1,-1 0,0 0,0 0,0 -1,-1 -1,-2 -3,-3 -3,3 -2,6 0,8 1,6 2,11 4,16 0,0 -1,0 -1,0 -1,1 -1,2 -2,3 -1,-1 -1,-3 -3,-3 -1,0 0,3 -1,4 0,0 0,1 0,1 -1,1 -1,1 -2,1 -2,0 -3,-3 -5,-1 -1,2 -1,5 1,6 1,1 1,1 2,2 0,0 0,0 0,0 -4,4 -8,8 -11,11 -2,2 -5,4 -4,7l0 0c-4,-2 -8,-4 -11,-7 -2,0 -2,1 -3,2 -1,1 -3,1 -3,3 0,0 0,0 0,0 0,1 0,2 -1,2 0,1 0,1 0,1 0,2 1,4 2,5 0,0 0,1 0,1 0,1 0,2 2,2 1,0 2,1 3,1 0,0 0,0 1,0 0,0 -1,0 -1,0 0,0 0,0 0,1 0,-1 0,-1 0,-1 -1,-2 -2,-2 -4,-1 -1,2 0,5 -3,6 -2,1 -3,1 -5,2 -3,4 -7,7 -12,5 -2,0 -6,-6 -4,2 0,1 -1,2 -2,2 0,1 0,0 0,1 -1,0 -1,0 -2,0 -1,0 -2,0 -2,0 -5,-2 -7,0 -6,5 1,1 1,1 1,2 0,0 0,0 0,0 1,5 3,9 -5,10 -1,0 -2,2 -2,4 0,1 -1,2 -3,2 0,0 0,0 0,0 0,0 0,0 0,0 -1,-4 -3,-7 -7,-8 -5,-1 -5,1 -4,4 -2,-1 -4,-3 -6,-1 0,1 1,3 1,5 -3,0 -6,2 -7,-4 0,-1 -5,-5 -8,-1 -3,-2 -5,-4 -8,-6 -2,-2 -3,-1 -3,1 1,2 5,2 6,5 -4,1 -7,0 -8,-4 -1,-2 -2,-4 -3,-3 -3,4 -7,4 -9,7 -4,4 -3,8 -3,12 -2,0 -3,-1 -4,-1 0,0 0,0 0,0 0,0 0,0 0,0 0,-1 0,-2 0,-2 -1,-1 -1,-1 -1,-2 -2,-1 -3,-2 -4,0l0 0c-1,5 2,7 6,8 4,2 7,6 10,10 1,8 1,8 9,3 -4,-3 -5,-7 -3,-12 2,-6 8,-10 13,-14 1,1 2,1 3,2 -1,4 -3,8 3,11 1,1 0,2 -1,3 -1,1 -2,2 -1,3 1,2 2,1 4,1 2,-1 4,-2 5,1 1,3 -1,3 -3,3 -2,0 -3,-1 -5,-2 0,0 -1,0 -2,-1 -1,-1 -3,-3 -4,-2 -1,1 0,2 1,2 1,2 3,3 5,4 0,0 1,0 1,0 -4,1 -5,3 -2,7 3,4 6,9 12,8 2,0 3,0 5,0 2,2 4,3 6,4 0,4 0,8 0,12 0,1 0,3 -2,4 -2,0 -4,0 -5,-1 -1,-2 -2,-3 -3,-4 -2,-1 -4,-2 -5,-4 0,-2 -2,-4 -3,-4 -5,1 -8,-3 -12,-4 -2,-1 -4,-4 -6,-2 0,-2 -1,-3 -3,-3 -2,-1 -2,1 -2,2 -6,-4 -6,2 -8,5 -2,2 -2,2 2,5 2,2 4,4 5,7 -2,0 -3,-1 -4,-3 -1,-2 -3,-1 -4,0 -2,2 4,0 2,3 -2,1 -4,0 -6,2 1,2 3,0 3,2 -7,1 -10,-4 -12,-9 0,0 2,0 1,-1 0,0 -1,-1 -1,-1 -1,-2 -3,-1 -4,-1 2,-3 5,-2 8,-4 -2,-1 -3,-2 -4,-4 -3,-2 -8,-2 -9,0 -2,2 -7,6 -1,9 0,1 0,2 0,2 -3,1 -3,-4 -6,-4 1,7 7,10 9,16 0,0 1,0 1,0 -1,0 -1,0 -1,0 -2,2 3,3 1,5 0,0 0,0 0,0 0,0 0,-1 -1,-1 -6,-3 -13,-6 -18,-12 -1,-1 -3,0 -3,2 0,5 -5,6 -8,8 -1,1 -2,2 -3,1 0,0 -1,0 -1,0 -2,1 -5,1 -7,2 -1,0 -2,0 -3,1 -4,-4 -7,-3 -10,0 -5,-2 -10,-4 -16,-5 -1,0 -2,-1 -3,-1 -1,0 -1,0 -2,-1 0,0 -1,0 -1,0 -4,-4 -9,-7 -14,-9 -4,-2 -8,-3 -13,-3 -5,0 -7,3 -5,8 1,2 2,3 2,4 1,1 2,1 2,1 3,5 8,6 13,7 9,2 19,3 25,11 1,0 1,0 2,0 1,1 3,2 4,3 1,2 3,2 5,2 4,-1 8,-2 8,4 0,1 1,4 3,3 3,3 7,7 12,7 2,2 4,2 6,2 13,4 26,11 39,14 2,1 4,2 6,3 1,0 2,0 2,1 1,1 2,1 3,2 2,1 4,3 6,4 0,0 -1,1 -1,1 0,0 -1,0 -1,0 0,0 0,1 -1,1l0 0c1,0 1,-1 1,-1 -2,-1 -3,-1 -4,0 -3,0 -6,-1 -9,1 0,2 1,2 2,3 2,1 4,1 6,1 0,2 1,5 4,6 3,2 5,3 8,4 2,2 4,2 5,-1 3,-3 1,-5 -1,-7 0,-1 -1,-2 -1,-2 1,-1 1,-1 1,-1 0,-1 -1,0 -1,-1 0,0 0,-1 2,0 1,0 2,1 3,2 1,1 1,1 2,0 0,0 0,0 0,0 0,0 0,0 0,0 0,0 0,0 0,0 -1,0 -1,0 -2,0 4,2 2,6 3,9 2,2 3,6 7,7 0,1 1,1 2,1 1,2 3,4 0,5 -4,0 -9,0 -13,0l-1 1c0,0 0,0 0,0 0,-1 1,-1 1,-1 1,-2 -2,-3 -2,-3 -3,1 -6,0 -8,-1 1,0 1,0 2,-1 1,0 3,0 3,-2 0,-2 -2,-2 -3,-2 -6,-1 -13,-3 -19,-1 -2,0 -5,-1 -7,2 2,2 5,3 7,3 1,0 1,0 1,0 -9,2 -14,9 -12,19 1,3 2,6 4,8 -2,0 -3,-1 -4,-1 -4,0 -7,-1 -9,3 -1,3 2,6 5,7 4,3 8,3 12,2 2,1 4,0 6,-1 0,1 0,1 1,1 1,0 1,0 2,-1 2,-1 5,-1 8,2 1,1 2,4 5,4 3,0 7,1 10,1 1,2 1,4 4,5 1,1 3,2 5,2 1,1 2,2 3,4 -5,1 -9,2 -14,3 -8,1 -16,2 -24,0 -2,-1 -5,-1 -7,-1 -6,0 -12,0 -18,-3 -1,0 -1,0 -1,-1 -3,-2 -5,-3 -8,-3 -2,-2 -5,-2 -7,0 -5,0 -9,0 -14,0 -5,-2 -11,-4 -16,-5 -5,-2 -9,-5 -14,-6 -4,-2 -8,-3 -11,0 -1,1 1,5 4,7 2,2 4,7 8,6 2,2 5,1 7,1 0,0 0,0 1,1 0,0 1,0 1,0 0,0 0,0 1,0 6,1 12,0 19,1 1,0 2,0 2,0 4,0 7,0 10,1 2,1 4,1 5,1 3,1 6,2 9,3 6,0 11,5 16,7 2,2 3,4 6,4 6,4 13,4 20,5 2,2 3,3 5,5 0,0 0,1 0,1 1,3 1,5 -1,8 3,1 5,0 7,0 4,-1 8,-2 13,-2 2,0 4,-1 5,-1 3,0 6,0 9,0 1,1 1,1 1,1 2,2 3,4 5,6 1,1 1,2 2,3 1,1 1,1 1,2 -9,2 -19,4 -29,4 0,0 0,0 -1,0 0,0 0,0 0,0 0,0 1,0 1,0 -4,-4 -10,-3 -15,-4 4,5 5,10 7,14 0,3 1,6 -1,9 -1,1 -3,3 -2,5 2,2 4,1 7,0 9,-5 19,-7 29,-9 0,0 1,1 1,1 0,0 1,1 2,1 2,2 4,3 5,4 3,2 4,4 6,6 0,0 0,0 0,1 -1,5 -2,9 -2,14 -3,-2 -6,-5 -8,-7 -1,-1 -1,-1 -2,-2 0,-2 -1,-3 -3,-3 -2,0 -2,1 -2,2 0,2 1,3 3,4 1,0 1,0 2,0 3,3 6,6 9,9 0,1 0,3 -1,4 -6,5 -15,4 -22,7 -2,5 -7,5 -11,6 -4,0 -6,1 -3,5 2,4 0,7 -2,9 -1,2 -3,3 -4,6 0,0 1,0 1,0 0,0 0,0 0,0 -1,0 -1,0 -1,0 -5,7 -11,13 -13,21 -1,6 -2,10 -6,14 -4,3 -11,3 -13,10 -1,5 -5,6 -9,7 -3,0 -5,2 -2,4 5,4 6,10 7,16 1,1 1,2 3,2 1,3 3,5 4,7 3,3 1,4 -1,5 0,0 0,1 -1,1 -9,1 -19,0 -28,4 -1,1 -1,2 -1,3 0,-1 1,-2 1,-3 -6,1 -13,1 -19,2 -1,0 -3,0 -3,2 0,1 2,2 3,2 7,1 13,1 20,2 0,1 0,1 0,1 0,1 0,1 0,2 0,3 -5,2 -3,5 2,3 5,-1 8,-1 1,0 2,-1 3,-2 3,-2 7,-3 10,-3 0,0 0,0 0,0 0,0 0,0 0,0 10,-2 20,-1 30,1 1,3 3,5 5,7 2,2 3,4 4,6 1,1 2,3 0,3 -9,2 -16,7 -25,6 -12,-1 -23,0 -34,0 -8,0 -15,0 -21,4 -2,2 -4,4 -1,5 5,3 3,5 0,8 -1,1 -2,2 -3,3 -11,3 -22,4 -32,10 -8,1 -16,2 -21,10 0,0 1,-1 2,-1 2,-2 4,-4 7,-5 1,0 1,1 2,1 0,0 0,0 0,1 -3,1 -7,1 -5,4 1,4 0,9 5,10 5,2 10,3 16,3 0,-1 0,-2 1,-3 -1,1 -2,2 -1,3 3,0 6,0 10,0 0,0 1,0 1,0 -4,3 -8,2 -12,3 -2,-2 -4,-2 -7,-2 2,2 4,2 7,2 2,2 5,1 8,1 9,-3 18,-4 28,-4 3,0 6,0 8,-4 9,-2 17,-7 26,-8 4,-1 7,-1 11,-1 0,0 0,0 0,0 4,7 -3,8 -6,12 0,0 0,0 0,0 -4,5 0,12 -6,16 -1,1 -1,3 0,3 5,6 2,12 2,17 0,3 1,4 3,5 1,2 2,3 1,5 -2,4 7,7 4,12 -1,1 1,2 2,2 2,0 3,1 4,2 2,4 4,7 7,11 -1,0 0,0 0,0 0,2 -2,6 2,6 5,1 9,5 14,7 0,1 -1,1 -1,1 -1,2 -4,0 -6,1 -2,1 -4,2 -3,5 1,2 2,3 4,1 1,0 1,0 2,0 1,1 -1,3 0,4 0,0 -1,1 -1,1 -2,1 -5,1 -7,3 0,0 1,0 1,0 -2,2 0,3 2,3 0,0 1,0 1,-1 5,-1 11,-3 16,-5 0,0 1,0 1,0 3,0 3,-4 5,-5 1,0 1,-1 2,-1 0,0 0,0 0,0 0,0 1,-1 1,-1 1,-1 2,-1 3,0 2,1 3,-1 4,-2 0,0 0,0 1,0 0,1 1,1 2,1 1,1 2,2 4,4 0,1 0,3 1,2 2,0 1,-2 0,-3 2,-3 5,-3 7,-3 1,0 1,0 1,0 0,0 0,0 1,0 1,0 2,0 3,0 6,0 10,1 12,-6 1,-5 7,-3 10,-5 0,0 1,0 0,1 -1,1 -3,1 -5,1 -3,0 -6,2 -4,6 0,0 0,0 0,0 1,1 1,1 2,1 1,2 4,1 5,3 2,4 4,2 4,-1 0,-2 3,-4 2,-7 1,0 2,0 3,1 0,0 1,1 1,1 1,0 1,-1 1,-1 1,0 2,0 4,0 4,-1 2,-3 1,-4 4,-2 7,-4 11,-6 5,-4 10,-9 17,-8 0,0 0,0 0,0 0,0 1,0 1,0l-1 0c0,4 8,7 2,11 -4,2 -3,5 0,6 9,1 15,7 22,11 8,5 8,10 1,15 -1,0 -3,-2 -3,2 -1,0 -1,0 -1,1 1,1 2,2 3,3 4,-2 8,-1 11,-1 1,3 5,5 3,9 -3,4 -6,7 -10,7 -3,1 -4,3 -5,5 0,0 1,0 1,0 1,2 2,3 4,3 0,0 0,0 0,0 0,0 0,0 0,0 0,0 1,0 1,0 2,-3 6,-1 8,-3 1,-1 1,-4 3,-3 3,1 3,4 3,6 0,3 -4,4 -4,7 -7,0 -9,7 -12,10 -1,1 -2,2 -2,3 -4,2 -7,5 -10,8 -3,1 -2,4 -3,5 0,1 1,2 1,3 -1,0 -2,0 -2,0 -1,1 0,1 1,1 1,1 2,3 3,3 0,0 0,1 0,2 -1,2 -3,5 -6,6l0 1 0 0c2,0 3,0 5,-1 3,-2 1,1 1,1 0,1 0,1 -1,2 3,0 5,0 8,0 1,-2 4,-3 3,-7 2,-2 4,-4 4,-7 2,-1 4,-3 6,-5 1,0 2,0 3,0 -3,2 -4,5 -7,7 -1,2 0,3 1,4 3,4 3,4 -2,6 -1,1 -3,2 -2,3 2,3 2,5 0,8 0,1 1,3 2,2 3,-3 6,-3 8,-5 1,-1 5,-4 1,-6 -1,-1 -1,-2 0,-2 4,-2 3,-6 5,-8 2,-2 5,-5 1,-8 -1,0 0,-2 0,-3 1,-2 2,0 3,1 2,1 4,-1 4,-2 2,-6 -3,-5 -6,-6 0,0 0,0 0,0 0,0 0,0 0,0 2,-2 6,-1 8,-2 0,1 0,1 0,2 0,2 1,3 1,4 0,0 0,1 0,1 -2,3 -4,5 -5,8 -2,2 -3,6 -5,8 1,1 2,2 3,3 0,0 0,0 0,0 0,-2 -1,-2 -3,-3 0,2 -3,4 0,5 0,1 1,2 1,3 -1,1 -2,3 -3,5 -3,1 -5,3 -5,6 -2,1 -1,2 0,3l0 0 0 1c-1,5 5,3 6,6 1,-2 1,-5 2,-5 5,-3 4,-7 2,-11 0,-1 0,-1 0,-1 0,-1 0,-2 1,-3 2,-2 4,-4 6,-6 2,0 3,-1 4,-3 1,0 1,0 2,-1 4,-2 7,-5 12,-8 -1,4 -2,7 -2,9 0,2 0,4 0,5 -2,5 -5,9 -7,14 -1,5 1,4 3,4 0,2 0,5 -1,7 0,1 0,1 0,1 -2,2 -1,4 -1,5 1,1 1,2 2,2 1,-1 1,-2 0,-3 0,0 0,0 0,0 1,-1 2,-1 2,-2 0,0 0,-1 0,-1 0,1 0,1 1,1 2,-1 2,-3 2,-5 0,0 0,0 0,0 0,-4 5,-7 2,-11 0,-1 1,-1 1,-2 1,-1 2,-1 2,-2 6,-4 10,-9 18,-9 0,1 0,1 0,1 2,1 2,3 2,4 2,6 6,9 13,9 0,0 1,0 1,0 1,6 4,5 9,4 0,-1 7,-3 7,3 0,1 0,3 0,4 3,3 6,-2 9,1 5,2 7,5 5,11 -1,0 0,1 0,2 0,1 -1,2 1,4 0,-2 0,-5 2,-6 2,3 -2,7 3,8 0,0 1,0 1,0 1,-2 4,-3 1,-5 0,-1 0,-3 0,-4 4,-2 4,-4 2,-7 3,-3 5,-6 7,-10 1,-2 2,-1 3,1 0,3 -5,5 -2,6 4,2 1,5 1,7 1,3 -1,8 4,9l0 0c1,1 0,4 2,4 2,1 3,-2 3,-4 0,-2 1,-5 -1,-7 -2,-4 -2,-8 -1,-13 6,3 0,-3 2,-3 4,-1 4,-7 9,-6 3,3 6,7 4,12 -1,2 0,3 1,4 4,1 7,4 11,5 1,6 7,4 10,6 0,0 0,1 0,1 0,0 1,1 1,1 0,3 0,5 -1,8 0,3 2,5 4,3 4,-4 4,0 6,2 0,-1 0,-1 0,-1 0,0 0,0 0,0 0,0 -1,0 0,1 -2,9 4,17 3,26 -3,3 0,8 -1,12 -1,5 1,7 5,8 0,0 0,0 0,1 1,2 -1,5 3,6 0,0 0,1 0,1 -1,4 3,5 5,7 2,1 3,3 6,4 0,1 0,1 0,2 0,0 1,1 1,1 8,0 13,3 16,10 0,0 0,0 1,0 0,0 0,0 0,0 3,3 4,-1 5,-1 1,-2 4,-1 5,-3 0,0 0,-1 0,-1 2,0 3,0 4,0 3,7 10,3 15,4 8,1 15,-4 23,-7 4,-2 9,-3 12,-7 0,0 0,0 0,0 0,0 0,0 0,0l0 0c3,1 5,-3 8,-2 2,-1 4,-2 5,-3 1,2 3,3 5,2 3,-4 7,-2 10,-2 0,-1 0,-3 0,-4 0,1 -1,3 0,4 0,3 -1,5 1,8 1,-2 3,-3 4,-4 1,4 -2,10 5,11 1,0 1,0 1,0 3,0 7,0 7,5 1,0 1,1 2,1 0,-4 -3,-7 -6,-10 1,-3 2,-2 4,0 3,2 1,7 6,7 -1,-5 1,-11 -1,-17 -2,-3 -2,-5 0,-8 1,1 3,3 6,2 2,3 3,6 4,10 0,4 -1,9 2,12 0,-2 1,-2 2,-1 0,1 0,2 0,3 5,-9 8,-11 19,-9 4,1 7,0 11,-2 -3,-1 -5,-1 -7,0 -2,1 -2,0 -3,-2 -2,0 -4,0 -7,2 -1,1 -6,2 -6,0 -2,-4 -6,-7 -7,-12 0,0 0,0 -1,0 0,0 0,0 0,0 1,0 1,0 1,0 3,-7 2,-9 -5,-10 0,0 0,-1 -1,-1 0,-2 0,-5 -1,-7 0,-1 -1,-3 1,-3 2,-2 4,-3 6,-4 3,-2 8,-2 10,-6 5,-1 8,-4 10,-7 3,-1 6,-2 8,-5 4,-1 8,-5 12,-7 0,-1 1,-1 1,-1 2,1 4,0 5,-1 3,-3 6,-4 9,-3 5,0 5,-2 3,-5 0,0 0,0 0,0 1,-1 2,-1 3,-1 0,0 0,0 0,-1 0,0 0,0 0,0 1,0 1,0 2,-1 1,-1 1,-1 0,-2 0,0 1,0 1,0 0,0 0,0 0,0 0,0 1,0 1,0 0,-1 0,-1 1,-2 1,-1 1,-2 3,-2 3,-2 6,-4 9,-6 7,-4 9,-9 6,-16 0,0 0,0 -1,0 0,0 0,0 1,0 1,0 3,0 4,0 0,0 0,0 0,1 0,0 0,0 0,0 -1,4 1,8 1,12 0,0 1,0 1,0 0,4 2,7 -2,11 3,-1 6,-1 8,0 0,0 0,0 0,1 0,0 0,1 1,2 2,0 2,2 3,3 2,5 2,13 11,8 0,-1 1,1 2,1 1,-6 1,-12 0,-18 0,-1 0,-2 0,-3 -1,-11 -2,-12 -11,-14 -1,0 -2,-1 -2,-2 3,1 5,-1 7,-4 0,0 1,0 1,0 6,0 6,4 7,8 1,8 -1,18 4,26 0,-1 1,-1 1,-2 4,2 6,-1 7,-5 0,1 0,1 0,2 0,0 0,1 0,1 1,1 2,1 4,1 -1,-2 1,-4 3,-3 -1,-2 0,-3 2,-4 0,2 1,3 2,2 3,-1 4,1 6,2 1,5 2,9 2,14 -1,4 1,3 3,3 2,1 4,-1 5,-1 2,-5 5,-9 10,-11 2,-2 5,0 6,-3 1,1 1,1 2,1 0,1 0,1 0,2 3,0 4,-3 6,-5 3,0 6,-1 9,1 -3,2 -5,4 -3,7 2,-1 5,-3 7,-1 2,2 4,4 2,7 0,0 0,1 0,1 0,0 1,0 1,-1 0,0 1,0 1,-1 0,-2 0,-3 3,-3 -6,-5 -3,-12 -5,-19 3,3 3,3 5,0 0,-2 1,-2 2,-1 2,0 5,0 6,-1 4,-5 8,-3 13,-2 0,-2 0,-4 -2,-6 -2,1 1,4 -3,4 -6,-1 -12,2 -18,2 -3,0 -3,0 -3,-2 2,-1 4,1 5,-3 0,-1 0,-1 1,0 4,3 7,-1 11,0 3,0 6,-3 9,-4 0,0 0,0 0,-1 1,0 3,-1 5,-1 0,0 0,0 1,0 1,1 2,2 4,2 5,3 7,-1 11,-3 5,-1 10,-1 11,6 0,1 0,2 0,3 4,-2 1,3 4,3 0,-6 0,-11 0,-17 0,-3 1,-5 3,-5 3,0 4,-2 6,-4 2,-2 4,-4 8,-4 0,1 -1,1 -1,2 1,0 1,0 1,0 -5,4 -9,9 -16,11 1,2 2,3 2,5 2,0 4,-1 5,-3 1,-2 2,-3 5,-2 4,2 6,0 6,-4 1,2 3,4 3,7 1,4 3,5 6,3 1,0 1,-1 0,-1 0,-1 0,-1 0,-1 3,-5 1,-10 1,-15 0,-1 0,0 -1,0 0,0 0,0 0,0 1,0 1,0 1,0 1,0 1,0 1,0 0,1 0,2 0,4 0,0 0,1 0,2 1,4 0,8 1,12 0,1 0,2 1,3 1,-2 5,2 4,-3 -2,-4 0,-9 0,-13 0,0 1,0 2,1 1,0 1,0 2,0 0,-1 0,-2 -1,-2 0,-4 1,-7 0,-10 0,-2 0,-3 0,-5 -1,-1 0,-2 -1,-3 3,2 4,3 5,-2 2,-6 3,-13 10,-17 1,0 2,0 3,0 3,-1 7,0 6,-6 -1,0 2,-3 4,-3 2,-1 2,2 3,3 0,1 0,3 0,4 2,1 3,0 3,-1 0,-1 0,-2 0,-3 0,0 0,1 0,1 3,-3 3,-5 1,-7 1,0 1,0 1,0 0,0 1,0 1,0 1,2 1,4 3,5 -1,4 0,6 4,4 0,0 0,0 0,0 0,0 1,1 1,1 0,2 1,2 2,1 1,1 2,1 3,2 0,-3 -1,-5 -1,-7 0,0 -1,0 -1,0 1,0 1,0 1,0 0,0 0,0 0,0 1,1 1,2 3,3 3,-3 2,-5 0,-8 -1,-5 -2,-10 -4,-16 0,0 1,0 1,0 1,-1 1,-2 2,-3 1,2 1,4 3,3 1,0 0,-2 1,-4 0,0 0,0 0,-1 1,0 2,-1 3,-1 1,0 2,3 4,1 1,-2 1,-4 -1,-6 -1,0 -1,-1 -2,-2 0,0 0,0 0,0 4,-4 8,-7 11,-11 2,-2 5,-3 4,-6 4,2 8,4 11,7 2,0 2,-2 3,-3 1,0 3,-1 3,-2 0,0 0,-1 0,-1 0,-1 0,-1 1,-2 0,0 0,-1 0,-1 0,-2 -1,-4 -2,-5 0,0 0,0 0,-1 0,-1 0,-2 -2,-2 -1,0 -2,0 -3,0 0,0 0,0 -1,0 1,-1 1,0 1,-1 0,0 0,0 0,0 0,0 0,0 0,1 1,1 2,1 4,0 1,-2 0,-5 3,-6 2,-1 3,-1 5,-2 3,-3 7,-7 12,-5 2,0 7,6 4,-2 0,-1 1,-2 2,-2 0,0 0,0 0,0 1,0 1,0 2,0 1,0 2,0 2,0 6,1 7,-1 6,-6 -1,0 -1,-1 -1,-1 0,0 0,0 1,-1 -2,-4 -4,-9 4,-10 1,0 2,-1 2,-3 0,-2 1,-3 3,-3 0,0 0,0 0,0 0,0 0,0 0,0 1,4 3,7 7,8 5,1 5,-1 4,-4 2,1 4,3 6,2 0,-2 -1,-4 -1,-5 3,-1 6,-2 7,3 0,1 5,5 8,1 3,2 5,5 8,7 2,1 3,1 3,-2 -1,-2 -5,-2 -6,-5 4,-1 7,1 8,5 1,1 2,4 3,2 3,-3 7,-3 10,-7 3,-4 2,-8 2,-12 2,1 3,1 4,1 0,0 0,0 0,0 0,1 0,2 0,3 1,0 1,1 2,1 1,2 2,2 3,0l0 0c1,-5 -2,-6 -6,-7 -4,-3 -7,-7 -10,-10 -1,-9 -1,-9 -9,-4 4,4 5,7 3,12 -2,6 -8,10 -13,14 -1,0 -2,-1 -3,-1 1,-5 3,-9 -3,-12 -1,-1 0,-2 1,-3 1,-1 2,-1 1,-3 -1,-1 -2,-1 -4,0 -2,0 -4,2 -5,-1 -1,-3 1,-3 3,-4 2,1 3,1 5,2 1,0 1,1 2,1 1,1 3,3 4,2 1,0 0,-1 -1,-2 -1,-2 -3,-3 -5,-4 0,0 -1,0 -1,0 4,-1 5,-2 2,-7 -3,-4 -6,-9 -12,-8 -2,0 -3,0 -5,0 -2,-1 -4,-2 -6,-4 0,-3 0,-7 0,-11 0,-2 0,-4 2,-4 2,-1 4,-1 5,1 1,1 2,2 3,3 2,1 4,3 5,4 0,3 2,5 3,5 5,-2 8,2 12,4 2,0 4,3 6,1 0,2 1,3 3,4 2,0 2,-1 2,-3 6,4 6,-2 8,-4 2,-2 2,-3 -2,-5 -2,-3 -4,-5 -5,-8 2,0 3,2 4,3 1,2 3,1 4,0 2,-2 -4,0 -2,-3 2,0 4,0 6,-2 -1,-1 -3,0 -3,-1 7,-2 10,3 12,8 0,0 -2,0 -1,1 0,1 1,1 1,2 1,1 3,1 4,0 -2,3 -5,2 -8,4 2,2 3,3 4,4 3,2 8,2 9,0 2,-2 7,-5 1,-9 0,0 0,-1 0,-2 3,0 3,4 6,4 -1,-7 -7,-9 -9,-15 0,0 0,0 -1,0 1,0 1,0 1,0 2,-2 -3,-4 -1,-6 0,0 0,0 0,0 0,1 0,1 1,1 7,3 13,6 18,12 1,1 3,0 3,-1 0,-5 5,-6 8,-9 1,-1 2,-1 3,-1 1,1 1,1 2,0 1,-1 4,-1 6,-1 1,0 2,-1 3,-1 4,3 7,3 10,-1 5,2 10,5 16,5 1,1 2,1 3,1 1,1 1,1 2,1 0,0 0,0 1,0 4,4 9,7 14,9 4,3 8,4 13,4 5,0 7,-4 5,-9 -1,-1 -2,-3 -2,-4z"></path>
  <path fill="#2a6a9d" d="M270 923c2-2 5-3 7-5-5-2-6 1-7 5zM270 900c3 0 6 0 8-4-3 0-6 2-8 4zM1180 787c1-1 2-2 3-3-2 0-3 0-5 0-2-3-3 0-4 1-1 2 0 2 2 2 1 3 3 5 4 0zM1128 813c1-1 2-2 2-3 0-1-2-2-3-1-1 0-2 0-2 1 1 1 2 3 3 3zM1102 797c0-2-1-4-4-5 1 3 1 5 4 5zM1123 777c2 1 4 1 6-1-2-1-4-2-6 1zM1154 791c-1 0-1 1-1 1 1 1 1 2 2 1 1 0 1 0 1-1 0 0-1-1-2-1zM266 997c0 2 1 2 3 2 1-1 1-3 0-4-1 0-3-1-3 2zM269 970c-1 1-2 3-4 5 1 0 2 0 3 1 0 1 0 4 2 3 2-1 2-4 0-6 0-1 0-2-1-3zM313 996c-2 0-2 2-3 4-1 2-1 4-2 6-1 0-1 0-2 0 0 2-2 4 2 6 2 0 4-1 5-4l0 0c2-2 0-5 1-7-1-2 1-4-1-5zM449 1063c-4 0-8 0-10 5 1 4 5 2 8 2 3 0 2-3 2-5 0 0 0-1 0-1 0-1 0-1 0-1zM361 1004c0 0 1 1 1 1 1 1 2 0 2-1 0 0 0-1-1-1-1 0-2 0-2 1zM459 1023c-1 1-3 2-4 2 0 2 0 4-1 5-1 6 1 12 0 18 3-7 5-16 8-23 0-1 0-2-1-2 0-1-1-1-2 0zM469 1080c4 2 5-1 7-2 0-1-1-2-2-3-4-1-1 6-5 5zM937 998c1 3-1 7 2 10 3-6 1-12 0-18 0-2 0-4-1-5-1-1-2-1-2 1 0 4 0 8 1 12zM1059 878c1-2-2-2-3-4 0-1-1-2-2-2-2-2-4-8-5-6-3 2 1 5 1 8 3 2 4 4 4 6 2 1 5 0 5-2zM1045 862c0 1 0 2 1 2 1-1 1-2 1-2 0 0-1-1-2-1 0 0 0 1 0 1zM410 1009c1 0 3 0 3-1 0-1 0-1-1-1 0 0-1 1-2 2zM677 1085c6-1 9-4 6-9-3-4-6-7-11-6-4 2-4 0-2-2 0 0 1 0 1 0-1-2-1-3-2-4-2-2-1-9-4-8-4 1 0 6 0 9 0 1 0 3-1 3-6 2-7 7-10 11-1 3-1 6 3 6 2 0 3-1 3-2 2 2 5 2 8 2 1 1 1 2 2 2-4 6-9 6-14 5-5-1-10-3-14 3 1 5 5 5 9 5 6 0 12-2 17 0 1-2 0-3 0-4 1 0 2 0 2-1 2-4 5-2 7-1 0 0 1 0 1 0 0-1 0-1 0-2 1-1 0-1-1-2-1-1-1-2-2-3 0 0 1 0 1-1 0 0 0 0 1-1zM933 966c2 3-1 7 2 10 0-5 1-10-1-15-2 2-1 3-1 5z"></path>
  <path fill="#2a6a9d" d="M659 1069c-1,-5 3,-10 0,-14 -1,0 -2,-1 -2,-2 -1,-1 -1,-2 -2,-2 -2,0 -2,2 -1,3 0,4 1,9 2,14 1,0 4,3 3,1z"></path>
  <path fill="#2a6a9d" d="M654 1071c1-1 1-2 2-3 0-1-1 0-1 0-1 0-2 0-2 1 0 1 0 1 1 2zM650 1086c0-1 0-2 0-2 0 0-1-1-1-1 0 0-1 1-1 1 0 0 1 1 2 2zM941 989c0 2 1 4 3 4 0-4 0-7-3-11-2 3-1 5 0 7zM937 966c4-2-1-6 2-8 5-3 3-6 1-9-2 5-5 11-3 17zM938 982c0-4 5-7 0-11-2 4-1 7 0 11zM804 1024c4 0 7-5 12-5-1-2 1-3 0-6-3 6-10 6-12 11zM685 1025c2 0 3 1 5-1-2 0-3 0-5 1zM995 939c-1-2 0-4-1-6-2 3-3 5 1 6zM1149 868c0-1 0-1 0-1 1 0 1 0 1 1-1 0-1 0-1 0zm1-8c-7-4-14-7-21-9-3 0-5 0-7 2-2 3 0 5 2 7 4 4 9 6 15 7 7 3 16 3 24 4 1 0 2 0 2-1 1-2 0-2-1-3-4-4-9-6-14-7zM94 485c0 1-1 1-2 1-2-1-3 0-4 1-1 2 2 2 2 3 1 1 2 2 2 3 3-3 7-4 10 0 1 1 2 1 3 0 0-3-1-5 1-8 1-1 1-2-1-2-3 1-8-5-11 2zM1196 574l0 0c-2-1-4-1-6-1-7 0-14 0-21-1-1 0-2 0-3 0-3-1-6 0-10 0 0 1-1 1-1 2 3 1 7 1 10 3 0 0 0 0 1 0 3 2 7 1 10 1 5 1 10 3 15 4 0 0 0 0 1 0 8 3 16 2 25 0-7-2-13-8-21-8zM953 1018c-2-4-6-3-9-2 0 0 0 0 0 0 0 0 0 0 0 0-1 0-2 0-3 0-3 0-5 2-4 5 0 3 0 6 2 8 1 2 3 3 5 3 4 2 9 3 12-1 4-4 0-7-1-10-1-1-1-2-2-3zM1200 604c-7-4-15-6-23-6-2 0-2 0-2 2 1 6-6 3-7 6 2 2 5 4 8 4 0 3 2 3 4 3 7 3 13 5 20 5 5 2 9 4 13 0 2 0 3-1 3-2 0-2-1-2-3-2-1-1-2-2-3-3 0-6-6-5-10-7zM1071 859c1 0 2 0 2 2 6 3 13 4 19 5-5-5-11-9-19-10-1 0-5-1-2 3zM1176 304c5-4 11-6 17-5 1 0 3 1 4 1 3 1 5 0 7-3 1-2 2-4 0-6-3-2-6-3-9-1-2 1-3 2-4 4-4 1-8 2-13 1 0 0-1 0-2 0-2-1-6 0-9-1 0 0 0 0-1 0-6 0-10 3-15 7-3 3-2 5 2 6 8 3 16 3 23-3zM1244 613c-4-4-8-1-12-1-2-1-4-2-6-1 1 3 4 2 6 3 3 5 7 4 11 3 3-1 3-2 1-4zM1139 220c1 0 1-2 0-2-3-2-5 1-8 2-2 1-4 2-5 4 1 1 2 2 3 2 4-1 7-3 10-6zM1247 578c-3-2-7-4-10-5-1 0-3 0-3 1-1 2 1 2 2 3 3 2 7 3 11 2 0 0 0-1 0-1zM1182 1066c-2-1-3-3-6-2 1 2 3 4 5 5 2 3 4 4 7 5 2 2 5 3 8 2-1-2-2-3-4-5-2-3-6-4-10-5zM1238 560c-5 0-10 0-15 3 6 3 11-1 15-3zM1197 690c-3-1-7-2-10-1-2 0-3 1-1 2 7 3 15 0 22 1-3-3-7-2-11-2zM1156 483c-2 0-3 0-3 2 0 1 1 2 2 2 3 1 7 1 11-1-4-1-7-2-10-3zM1197 783c-2-4-5-5-10-5 2 4 5 6 8 7 2 1 3 3 6 3 1 0 2 1 4 2 1 0 2 2 3 1 1-1 0-3-1-3-3-2-6-5-10-5zM1170 856c1 3 4 5 7 5 1 0 2-1 2-2-1-3-3-4-7-4-1 0-2 0-2 1zM87 503c1 1 1 2 2 1 1-1 2-3 1-3-7-4 1-6 1-8-1 0-2 0-4 0-3 3-2 6 0 10zM1115 539c5 2 11 0 16 1 1 0 2 0 3 1 3 2 5 3 9 2 0 0 0-1 0-2-2-2-5-3-8-2-2-1-3-2-5-3-2-3-4-6-6-9 0-3 0-6-1-8 0-1 0-3 0-4-1-2 2-5-1-6-4-1-5 2-7 4-2 3 1 5 3 7 0 4-2 5-5 6-2 1-5 2-5 5 0 4 4 6 7 8zM1190 900c3 3 5 5 9 4-4-5-4-5-9-4zM1184 465c5 0 7-2 11-4-5-2-8 0-11 4zM1106 870c-3-3-6-3-10-4 4 5 5 5 10 4zM1176 448c0 0 1 2 1 2 3 0 5-2 8-3 0 0 0 0 0 0 0-1 0-1 0-2-3 2-6 1-9 3zM1236 1042c0 3-3 8 4 8 1-3-3-4-2-7-1-1-1-1-2-1zM1243 632c-5 0-10 0-15 0 0 0 0 0 0 0 3 1 7 1 10 2 1-2 4-1 5-2zM127 600c-1 2 0 3 2 3 1 0 3 0 3-2 0-2-1-3-2-3-2-1-3 0-3 2zM1195 362c2-3 0-3-3-3-3 0-4 2-6 4 3 0 6 2 9-1zM94 583c1-1 1-2 0-2-1-1-2-1-3 0-1 0-2 0-3 1 1 2-2 1-2 2l0 0c1 1 1 2 2 3 2-1 4-1 6-4zM1241 393c0 0 0 0-1 0-4 1-6 7-12 6 5 4 10 1 15-1 0 0 0-1 0-1 0 0 0 0 0 0 0 0 0 1 0 1 0 1 1 2 3 3 0-1 0-2 1-3 0 0 1-1 1-2-1-1-1-1-2 0 0 0 0-1 0-1-2-1-3-1-5-2zM1240 742c2-1 3-1 4-1-1-3-4-3-6-3-2 0-5-1-7-1-1-1-2-1-3-1-2-3-6-2-9-1-1 0-2 1-2 2 1 1 2 1 4 1 5 4 11 1 16 2 1 1 2 1 3 2zM1059 957c0 0 1-1 1-1-1-2-3-3-6-3 1 2 2 4 5 4zM1176 436c0 0 0 0 0 0 0 0 0 0 0 0 0 0 0 0 0 0zm41-27c2 0 3 0 4 0 3-1 6-3 3-6 0-1-1-1-1-1-3-2-6-6-10-3-4 0-6 3-7 5-1 2-1 3 0 4 0 0 0 0 0 0-3 0-5-2-8 0-3 1-7-2-9 2-3 5-8 7-12 10-2 1-4 2-6 5 1 0 3 0 4 0-1 0-1 0-2 1 0 0 0 0 0 1l0 0c0-1 0-1 0-1-4 3-8 6-10 12-1 1-1 3 1 4 4 1 7 1 9-2 5-2 8-5 10-10 2 0 3-2 4-4 1 0 2-2 2-3 3-1 5-1 8 0 0 0 1 0 1-1 5-7 11-11 19-12 0-1 0-1 0-1zM1236 1099c0 2 1 2 2 2 1 0 2 0 2-1-1-1-1-2-3-2 0 0-1 0-1 1zM1105 509c3 1 5 0 6-2-3-1-4 1-6 2zM1187 852c0 0 0 1 0 1 1 2 3 3 5 2-1-3-2-4-5-3zM1232 648c-2-2-4-2-6-1 2 2 4 2 6 1zM1241 586c-1 0-1 1-1 1 1 2 2 1 5 1-1-3-3-3-4-2zM97 498c0-1 0-1-2-2-1 0-1 1-1 2 0 1 1 2 2 2 0 0 1-1 1-2zM1205 737c-2-2-3-2-6-1 2 1 4 3 6 1zM1132 503c-2-1-3 0-5 1 2 1 4 2 5 0 0 0 0-1 0-1zM1239 805c0 0-1 0-1 0-2-2-3-3-6-3 1 3 4 4 6 5 1 1 2 2 4 2 1 0 1-1 1-1-1-2-3-2-4-3zM1231 585c-2-1-3-2-5-1 1 2 3 1 5 1zM157 886c-1 1 0 1 1 2 1 0 1-1 1-2 0-1 0-2-1-2-1 0-1 1-1 2zM1041 943l0 0c-3-2-5-5-8-7 0 0-1-1-3-2-1 0-3-1-5 1 0 2 1 3 2 4 4 3 7 5 11 6 2 0 4 2 5 0 0-1-1-2-2-2zM1188 882c1 0 2 2 2 0 0-2-1-2-4-2 1 1 1 1 2 2zM1215 891c1 0 1 1 2 1 1 0 1-1 1-1 0-1-1-2-2-2 0 1-1 1-1 2zM1232 322c-1-1-3-1-4-2 0 2 2 4 4 3 1 0 0-1 0-1zM1186 486c1 0 1 0 1-1 0 0 0-1-2-1 0 0-1 1-1 1 0 2 1 1 2 1zM107 592c0 1 0 0 1 0 0-1-1-1-1-1-1 0-1 0-1 0 0 1 0 1 1 1zM1240 829c1 0 2 1 2-1 0 0-2-1-3 0 0 0 1 1 1 1zM28 352c-1 0-1-2-2-1-1 1 1 4-2 1-1-1-1-5-4-4-3 1-3 4-4 6 4 1 7 1 10 2 1 0 2-2 3-2 1-1 0-2-1-2zM1242 469c4 3 5 0 6-4-3 0-4 2-6 4zM1239 326c2 2 3 3 6 2-2-1-3-3-6-2zM1241 476c0 2 1 4 3 5 0-2 0-4 0-6-1 0-2-1-3 1zM98 426c-1 0-3-1-2 2 1 1 2 2 3 1 1-1 0-2-1-3zM96 455c0-1-1-2-2-2-1 0-2 0-2 1 0 2 1 2 2 2 0 0 2 0 2-1zM53 371c1 0 3 0 3-2-1-2-3-2-5-2-1 0-4-1-4 1 1 3 4 3 6 3zM972 184c4 2 5-2 6-5-2 2-5 2-6 5zM978 201c-3 0-6 1-8 4 3 0 6-2 8-4zM68 315c0 1-2 2-3 3 2 0 3 0 5 0 2 2 3-1 4-2 1-2 0-2-2-2-1-2-3-5-4 1zM118 291c0 2 2 2 3 2 1 0 2-1 2-2-1-1-2-3-3-2-1 0-2 1-2 2zM146 304c0 3 1 4 4 5-1-3-1-4-4-5zM125 324c-2 0-4-1-6 1 2 1 4 2 6-1zM94 311c1 0 1-1 1-2-1-1-1-1-2-1-1 0-1 0-1 1 0 1 1 1 2 2zM982 105c0-2-1-3-3-3-1 2-1 3 0 5 2 0 3 0 3-2zM979 132c1-2 2-4 4-5-1 0-2 0-3-1 0-2 0-4-2-3-2 1-2 3 0 5 0 1 1 2 1 4zM935 105c2 0 2-2 3-3 1-2 1-5 2-6 1 0 1 0 2 0 0-2 2-5-2-6-2-1-4 0-5 3l0 0c-2 2 0 5-1 8 1 1-1 3 1 4zM887 97c0 0-1-1-1-1-1 0-2 0-2 1 0 1 0 2 1 2 1 0 2-1 2-2zM789 78c1-1 3-1 4-2 0-2 0-3 1-5 1-6-1-12 0-18-3 8-5 16-8 23 0 1 0 2 1 3 1 1 1 0 2-1zM311 103c-1-3 1-7-2-10-3 6-1 12 0 18 0 2 0 4 1 6 1 0 2 0 2-1 0-5 0-9-1-13zM189 223c-1 2 2 2 3 4 0 1 1 2 2 3 2 1 4 7 5 6 3-2-1-6-1-9-3-1-4-3-4-6-2 0-4 0-5 2zM203 239c0-1 0-1-1-1-1 0-1 1-1 1 0 1 1 1 2 1 0 0 0 0 0-1zM838 93c-1-1-3-1-3 1 0 0 0 0 1 1 0-1 1-2 2-2zM315 135c-2-2 1-7-2-9 0 4-1 9 1 14 2-1 1-3 1-5zM307 112c0-2-1-3-3-4 0 4 0 8 3 11 2-3 2-5 0-7zM311 136c-4 2 1 5-2 7-5 3-3 6-1 10 2-6 5-11 3-17zM310 119c0 4-5 8 0 11 2-3 1-7 0-11zM444 77c-4 0-7 6-12 5 1 2-1 4 0 6 3-6 10-5 12-11zM558 77c2 0 3 1 5-1-2 0-3-1-5 1zM253 163c1 2 0 3 1 6 2-3 3-5-1-6z"></path>
  <path fill="#fefefe" fill-rule="nonzero" d="M442 311c31 0 57 26 57 58 0 32-26 57-57 57-32 0-58-25-58-57 0-32 26-58 58-58zm-50 159l99 0 0 320-99 0 0-320zM554 470l95 0 0 44 2 0c13-25 45-52 94-52 101 0 119 66 119 153l0 175-99 0 0-155c0-37-1-85-52-85-52 0-60 40-60 82l0 158-99 0 0-320z"></path>
</svg>
