<svg width="169" height="61" viewBox="0 0 169 61" fill="none" xmlns="http://www.w3.org/2000/svg">
<path d="M31.488 51.52C31.4027 52.5867 30.976 53.5253 30.208 54.336C29.4827 55.104 28.5653 55.7653 27.456 56.32C26.3893 56.832 25.2373 57.216 24 57.472C22.8053 57.728 21.7173 57.856 20.736 57.856C17.8347 57.856 15.232 57.1733 12.928 55.808C10.624 54.4 8.66133 52.608 7.04 50.432C5.41867 48.2133 4.13867 45.76 3.2 43.072C2.304 40.4693 1.792 37.9093 1.664 35.392C1.74933 37.9947 2.24 40.6187 3.136 43.264C4.07467 45.9947 5.35467 48.4693 6.976 50.688C8.59733 52.9067 10.5813 54.72 12.928 56.128C15.2747 57.4933 17.92 58.176 20.864 58.176C22.4853 58.176 24.064 57.92 25.6 57.408C27.136 56.896 28.5653 56.192 29.888 55.296C28.9067 56.7893 27.6053 57.856 25.984 58.496C24.3627 59.136 22.6987 59.456 20.992 59.456C19.072 59.456 17.3013 59.1787 15.68 58.624C14.0587 58.112 12.48 57.28 10.944 56.128L10.688 55.104C8.93867 54.0373 7.424 52.7147 6.144 51.136C4.90667 49.5573 3.88267 47.8507 3.072 46.016C2.304 44.1813 1.728 42.2613 1.344 40.256C1.00267 38.2507 0.832 36.2453 0.832 34.24C0.832 32.1067 1.024 29.9947 1.408 27.904C1.83467 25.7707 2.41067 23.68 3.136 21.632C2.96533 21.632 2.88 21.568 2.88 21.44C1.984 23.4027 1.32267 25.4293 0.896 27.52C0.469333 29.6107 0.256 31.744 0.256 33.92C0.256 38.0587 1.06667 42.048 2.688 45.888C4.30933 49.6853 6.72 52.9067 9.92 55.552C8.256 54.272 6.784 52.8 5.504 51.136C4.26667 49.472 3.24267 47.7013 2.432 45.824C1.62133 43.904 1.00267 41.92 0.576 39.872C0.192 37.824 0 35.7547 0 33.664C0 30.848 0.384 27.9893 1.152 25.088C1.96267 22.144 3.15733 19.4773 4.736 17.088C6.35733 14.6987 8.36267 12.7573 10.752 11.264C13.1413 9.728 15.936 8.96 19.136 8.96C20.5867 8.96 21.952 9.19467 23.232 9.664C24.5547 10.1333 25.792 10.752 26.944 11.52C28.096 12.288 29.1627 13.1627 30.144 14.144C31.168 15.1253 32.128 16.128 33.024 17.152L31.68 18.304C31.0827 18.0907 30.5067 17.7707 29.952 17.344C29.44 16.8747 28.9707 16.4053 28.544 15.936L28.16 16.384C28.7147 17.024 29.2267 17.7707 29.696 18.624C30.1653 19.4347 30.4 20.288 30.4 21.184L29.696 22.336C29.1413 22.2933 28.4373 21.9733 27.584 21.376C26.7733 20.736 25.856 20.0747 24.832 19.392C23.8507 18.6667 22.8267 18.0053 21.76 17.408C20.736 16.8107 19.7333 16.512 18.752 16.512C17.472 16.512 16.32 16.832 15.296 17.472C14.3147 18.112 13.4187 18.944 12.608 19.968C11.7973 20.992 11.0933 22.1653 10.496 23.488C9.94133 24.8107 9.472 26.1547 9.088 27.52C8.74667 28.8853 8.46933 30.2293 8.256 31.552C8.08533 32.832 8 33.9627 8 34.944C8 36.608 8.256 38.4427 8.768 40.448C9.32267 42.4533 10.112 44.3307 11.136 46.08C12.2027 47.7867 13.504 49.216 15.04 50.368C16.576 51.52 18.3253 52.096 20.288 52.096C21.184 52.096 22.1013 52.0107 23.04 51.84C24.0213 51.6267 24.896 51.2853 25.664 50.816L26.176 51.392C24.5547 52.6293 22.6987 53.248 20.608 53.248C18.56 53.248 16.6827 52.7573 14.976 51.776C15.7867 52.3307 16.6827 52.736 17.664 52.992C18.7307 53.2907 19.7973 53.44 20.864 53.44C22.8267 53.44 24.6613 52.8853 26.368 51.776L26.944 52.608C27.3707 52.1387 27.904 51.6907 28.544 51.264C29.184 50.7947 29.8453 50.5173 30.528 50.432L31.488 51.52ZM7.04 38.656C7.25333 41.1307 7.97867 43.4987 9.216 45.76C10.4533 47.9787 12.0747 49.7707 14.08 51.136C12.0747 49.728 10.496 47.9147 9.344 45.696C8.14933 43.4347 7.38133 41.088 7.04 38.656Z" fill="#393D3F"/>
<path d="M45.421 57.472C45.293 57.8133 45.229 58.0693 45.229 58.24C45.229 58.368 45.2717 58.56 45.357 58.816L37.741 57.6V57.344C37.4423 57.344 37.293 57.088 37.293 56.576C37.293 56.2347 37.3357 55.8933 37.421 55.552C37.5063 55.2107 37.5703 54.9333 37.613 54.72C37.9543 52.672 38.2103 50.7307 38.381 48.896C38.5943 47.0613 38.765 45.12 38.893 43.072C38.893 39.0613 38.7863 35.4347 38.573 32.192C38.4023 28.9067 38.317 25.6853 38.317 22.528C38.317 19.84 38.445 17.4293 38.701 15.296C38.957 13.1627 39.085 10.944 39.085 8.64C39.085 7.01867 39.021 5.376 38.893 3.712L40.365 3.456C40.493 3.456 40.621 3.54133 40.749 3.712C40.877 3.84 40.9837 4.13867 41.069 4.608C41.1543 5.03467 41.2183 5.65333 41.261 6.464C41.3463 7.232 41.389 8.23467 41.389 9.472H42.157C42.2423 6.57067 42.4343 4.26667 42.733 2.56C43.0743 0.853334 43.4797 0 43.949 0C44.3757 0 44.7383 0.469334 45.037 1.408C45.3357 2.304 45.5703 3.52 45.741 5.056C45.9543 6.592 46.1037 8.34133 46.189 10.304C46.317 12.2667 46.381 14.2933 46.381 16.384V24.448C47.2343 23.5093 48.301 22.656 49.581 21.888C50.9037 21.12 52.3543 20.736 53.933 20.736C56.237 20.736 58.1783 21.312 59.757 22.464C61.3783 23.5733 62.7223 24.96 63.789 26.624C64.8557 28.2453 65.6663 29.9947 66.221 31.872C66.8183 33.7067 67.245 35.328 67.501 36.736C67.7143 37.5893 67.9063 38.5493 68.077 39.616C68.2903 40.6827 68.461 41.7707 68.589 42.88C68.717 43.9893 68.8023 45.0987 68.845 46.208C68.9303 47.3173 68.973 48.3413 68.973 49.28C68.973 49.408 68.9517 49.7707 68.909 50.368C68.909 50.9227 68.8663 51.52 68.781 52.16C68.6957 52.8 68.5677 53.376 68.397 53.888C68.2263 54.4 67.9917 54.656 67.693 54.656C67.6077 54.656 67.5437 54.6347 67.501 54.592C67.5863 53.6107 67.6503 52.6507 67.693 51.712C67.7357 50.7733 67.757 49.8133 67.757 48.832C67.757 46.5707 67.6077 44.3307 67.309 42.112C67.053 40.064 66.669 37.9947 66.157 35.904C66.5837 37.7813 66.9037 39.6373 67.117 41.472C67.373 43.4347 67.501 45.3973 67.501 47.36C67.501 49.7067 67.373 51.9893 67.117 54.208C66.6903 54.3787 66.3703 54.784 66.157 55.424C65.9863 56.064 65.8157 56.7467 65.645 57.472C65.4743 58.1973 65.2397 58.8373 64.941 59.392C64.685 59.9893 64.2583 60.288 63.661 60.288C63.4477 60.288 63.2557 60.1387 63.085 59.84C62.957 59.584 62.829 59.2427 62.701 58.816C62.573 58.432 62.4663 58.0053 62.381 57.536C62.3383 57.024 62.317 56.5547 62.317 56.128C62.317 55.8293 62.3597 55.5733 62.445 55.36C62.5303 55.1467 62.6157 54.8907 62.701 54.592C62.8717 53.568 62.9783 52.544 63.021 51.52C63.1063 50.4533 63.149 49.3653 63.149 48.256C63.149 46.976 63.085 45.5467 62.957 43.968C62.829 42.3893 62.6157 40.7893 62.317 39.168C62.0183 37.5467 61.6343 35.9893 61.165 34.496C60.6957 32.96 60.0983 31.616 59.373 30.464C58.6903 29.2693 57.8797 28.3307 56.941 27.648C56.0023 26.9227 54.9357 26.56 53.741 26.56C52.8023 26.56 51.949 26.9653 51.181 27.776C50.4557 28.544 49.7943 29.5467 49.197 30.784C48.6423 31.9787 48.1517 33.3227 47.725 34.816C47.341 36.2667 46.9997 37.6533 46.701 38.976V39.296C46.957 37.9733 47.277 36.6293 47.661 35.264C48.0877 33.8987 48.5997 32.64 49.197 31.488C49.837 30.2933 50.5837 29.2693 51.437 28.416C52.2903 27.5627 53.293 27.008 54.445 26.752C55.469 26.752 56.3863 27.1147 57.197 27.84C58.0077 28.5653 58.7117 29.5253 59.309 30.72C59.949 31.872 60.4823 33.1947 60.909 34.688C61.3783 36.1387 61.741 37.5893 61.997 39.04C62.2957 40.4907 62.509 41.8773 62.637 43.2C62.765 44.48 62.829 45.5467 62.829 46.4C62.829 47.7653 62.765 49.1307 62.637 50.496C62.509 51.8187 62.3383 53.12 62.125 54.4C61.9117 52.5653 61.7623 50.6453 61.677 48.64C61.5917 46.6347 61.4423 44.6507 61.229 42.688C61.0157 40.7253 60.6957 38.8053 60.269 36.928C59.8423 35.008 59.181 33.216 58.285 31.552L58.861 31.36C58.477 30.6347 58.1143 30.1013 57.773 29.76C57.4743 29.4187 57.1757 29.1627 56.877 28.992C56.621 28.8213 56.3223 28.672 55.981 28.544C55.6397 28.3733 55.2557 28.096 54.829 27.712H53.869C52.4183 27.712 51.117 29.0773 49.965 31.808C48.813 34.5387 47.7463 38.3787 46.765 43.328L46.573 47.36C46.829 45.6107 47.149 43.6267 47.533 41.408C47.9597 39.1467 48.4503 37.0347 49.005 35.072C49.6023 33.0667 50.285 31.4027 51.053 30.08C51.8637 28.7147 52.8023 28.032 53.869 28.032C54.3383 28.032 54.893 28.1813 55.533 28.48C56.173 28.7787 56.8343 29.376 57.517 30.272C56.9197 29.5893 56.3223 29.0773 55.725 28.736C55.1277 28.3947 54.5943 28.224 54.125 28.224L53.677 28.288C52.8237 28.288 52.077 28.8213 51.437 29.888C50.797 30.9547 50.1997 32.3413 49.645 34.048C49.133 35.712 48.685 37.632 48.301 39.808C47.917 41.9413 47.5543 44.096 47.213 46.272C46.8717 48.4053 46.5517 50.4747 46.253 52.48C45.997 54.4427 45.7197 56.1067 45.421 57.472ZM44.141 58.496C44.397 58.4107 44.5463 58.2827 44.589 58.112C44.6743 57.9413 44.7597 57.856 44.845 57.856L45.293 54.464L44.269 57.664L44.077 58.048C43.3517 58.0053 42.6477 57.92 41.965 57.792C41.3677 57.7067 40.7277 57.6213 40.045 57.536C39.405 57.408 38.829 57.3013 38.317 57.216C38.189 56.832 38.125 56.5547 38.125 56.384C38.125 56.3413 38.125 56.2987 38.125 56.256C38.1677 56.2133 38.189 56.1707 38.189 56.128L37.741 56.064C37.8263 56.7467 37.8903 57.152 37.933 57.28C38.0183 57.3653 38.125 57.4507 38.253 57.536L44.141 58.496ZM59.629 24.064C58.7757 23.4667 57.8583 22.9973 56.877 22.656C55.8957 22.272 54.8717 22.08 53.805 22.08C52.0983 22.08 50.6263 22.5493 49.389 23.488C48.1517 24.384 47.149 25.3867 46.381 26.496V26.688C46.765 26.1333 47.1917 25.6 47.661 25.088C48.173 24.5333 48.7277 24.064 49.325 23.68C49.9223 23.2533 50.605 22.912 51.373 22.656C52.141 22.4 53.0157 22.272 53.997 22.272C55.917 22.272 57.6237 22.8267 59.117 23.936C60.653 25.0453 61.9757 26.4107 63.085 28.032C62.6157 27.3067 62.1037 26.6027 61.549 25.92C61.037 25.2373 60.397 24.6187 59.629 24.064Z" fill="#393D3F"/>
<path d="M75.144 57.976C75.3147 56.7813 75.464 55.3947 75.592 53.816C75.7627 52.1947 75.912 50.5733 76.04 48.952C76.168 47.3307 76.296 45.752 76.424 44.216C76.552 42.6373 76.68 41.272 76.808 40.12C76.5947 41.272 76.4027 42.5947 76.232 44.088C76.0613 45.5813 75.8907 47.1173 75.72 48.696C75.5493 50.2747 75.3787 51.8533 75.208 53.432C75.0373 54.968 74.888 56.3547 74.76 57.592C74.12 57.1653 73.8 53.5893 73.8 52.864C73.8 52.0107 73.8213 51.3067 73.864 50.752C73.9067 50.1547 73.9707 49.472 74.056 48.704L74.76 51.064C74.7173 50.8507 74.696 50.6587 74.696 50.488V49.848C74.696 48.8667 74.8027 47.7573 75.016 46.52C75.2293 45.24 75.464 43.96 75.72 42.68C76.0187 41.3573 76.2747 40.0987 76.488 38.904C76.7013 37.6667 76.808 36.6 76.808 35.704L76.04 35.512C75.9547 36.536 75.8267 37.7093 75.656 39.032C75.4853 40.312 75.2933 41.656 75.08 43.064C74.9093 44.4293 74.7387 45.7947 74.568 47.16C74.4827 47.8853 74.3973 45.568 74.312 46.208C74.3973 45.0133 74.504 46.7333 74.632 45.368C74.8453 43.4053 75.0587 41.464 75.272 39.544C75.528 37.5813 75.7627 35.6613 75.976 33.784C76.1893 31.9067 76.4027 30.1787 76.616 28.6C76.616 27.96 76.7653 27.2773 77.064 26.552C77.4053 25.784 77.64 24.9947 77.768 24.184C78.024 24.2693 78.2373 24.312 78.408 24.312H78.856C79.2827 24.312 79.56 24.4187 79.688 24.632C79.816 24.8027 79.88 25.0587 79.88 25.4V25.72L80.456 25.912C80.7973 25.272 81.2027 24.76 81.672 24.376C82.1413 23.992 82.6107 23.8 83.08 23.8C84.104 23.8 84.616 24.888 84.616 27.064C84.616 28.216 84.488 29.4533 84.232 30.776C84.0187 32.056 83.912 33.3147 83.912 34.552V35.384C83.912 36.7493 83.7627 38.2427 83.464 39.864C83.1653 41.4427 82.824 43.064 82.44 44.728C82.0987 46.3493 81.7787 47.928 81.48 49.464C81.1813 51 81.032 52.408 81.032 53.688C81.032 53.9867 81.0533 54.3067 81.096 54.648C81.1387 54.9893 81.16 55.3093 81.16 55.608C81.16 56.248 81.032 56.6533 80.776 56.824C80.5627 56.952 80.2853 57.016 79.944 57.016C79.944 56.4613 79.9227 55.7787 79.88 54.968C79.8373 54.1573 79.816 53.432 79.816 52.792C79.7307 53.2613 79.688 53.9013 79.688 54.712C79.688 55.5227 79.6453 56.2907 79.56 57.016H78.6V57.784C78.216 58.4667 77.704 58.808 77.064 58.808C76.7653 58.808 76.424 58.7227 76.04 58.552C75.656 58.3813 75.3573 58.1893 75.144 57.976ZM88.328 8.824C87.6027 9.25067 86.9413 9.80533 86.344 10.488C85.7467 11.1707 85.128 11.832 84.488 12.472C84.872 12.216 85.2133 11.9387 85.512 11.64C85.8107 11.3413 86.1093 11.0427 86.408 10.744C86.7493 10.4453 87.0907 10.1467 87.432 9.848C87.816 9.54934 88.2427 9.272 88.712 9.016C88.84 9.18667 88.9467 9.336 89.032 9.464C89.16 9.592 89.224 9.72 89.224 9.848L87.752 11.32C87.752 11.2347 87.6667 11.1493 87.496 11.064C87.368 10.9787 87.2613 10.936 87.176 10.936C87.048 11.3627 86.8347 11.704 86.536 11.96C86.2373 12.216 85.9387 12.4507 85.64 12.664C85.3413 12.8773 85.0427 13.112 84.744 13.368C84.4453 13.624 84.232 13.9653 84.104 14.392V14.52C84.104 14.5627 84.168 14.584 84.296 14.584L87.496 11.576L86.28 12.792C85.6827 13.3893 85.0427 14.008 84.36 14.648C83.72 15.2453 83.1013 15.7787 82.504 16.248C81.9493 16.7173 81.608 16.952 81.48 16.952L81.416 16.888C81.1173 16.8027 80.7973 16.76 80.456 16.76C80.1573 16.76 79.8373 16.7387 79.496 16.696C79.496 16.3547 79.432 15.992 79.304 15.608C79.2187 15.224 79.176 14.9253 79.176 14.712C79.176 14.4987 79.2827 14.392 79.496 14.392C79.496 14.264 79.4107 14.072 79.24 13.816C79.112 13.5173 78.9627 13.1973 78.792 12.856C78.6213 12.472 78.4507 12.088 78.28 11.704C78.152 11.2773 78.088 10.8507 78.088 10.424C78.088 9.99733 78.2587 9.592 78.6 9.208C78.984 8.78134 79.4107 8.41867 79.88 8.12C80.392 7.82133 80.8827 7.56533 81.352 7.352C81.8213 7.13867 82.1627 6.98934 82.376 6.904C82.5467 6.904 82.6107 6.81867 82.568 6.648C82.5253 6.43467 82.5893 6.328 82.76 6.328L83.912 6.712C83.8267 6.92533 83.5493 7.288 83.08 7.8C82.6533 8.26934 82.3333 8.61067 82.12 8.824C82.4187 8.61067 82.76 8.29067 83.144 7.864C83.5707 7.43734 83.8907 7.11734 84.104 6.904C84.3173 6.98934 84.5093 7.07467 84.68 7.16C84.8507 7.24534 84.9787 7.288 85.064 7.288L85.256 7.096C85.5547 7.096 85.8747 7.16 86.216 7.288C86.6 7.416 86.9413 7.56534 87.24 7.736C87.5387 7.90667 87.7947 8.09867 88.008 8.312C88.2213 8.52534 88.328 8.696 88.328 8.824ZM74.184 47.744C74.2267 47.2747 74.2693 46.8053 74.312 46.336C74.2693 46.848 74.2267 47.3173 74.184 47.744Z" fill="#393D3F"/>
<path d="M114.736 49.216H96.112L92.912 58.304H85.296L101.232 13.76H109.68L125.616 58.304H117.936L114.736 49.216ZM112.688 43.264L105.456 22.592L98.16 43.264H112.688Z" fill="#393D3F"/>
<path d="M135.561 28.16C136.628 26.368 138.036 24.9813 139.785 24C141.577 22.976 143.689 22.464 146.121 22.464V30.016H144.265C141.406 30.016 139.23 30.7413 137.737 32.192C136.286 33.6427 135.561 36.16 135.561 39.744V58.304H128.265V23.04H135.561V28.16Z" fill="#393D3F"/>
<path d="M160.06 28.992V48.512C160.06 49.8347 160.358 50.7947 160.956 51.392C161.596 51.9467 162.662 52.224 164.156 52.224H168.635V58.304H162.876C159.59 58.304 157.073 57.536 155.324 56C153.574 54.464 152.7 51.968 152.7 48.512V28.992H148.54V23.04H152.7V14.272H160.06V23.04H168.635V28.992H160.06Z" fill="#393D3F"/>
</svg>
