<svg xmlns="http://www.w3.org/2000/svg" width="157.03" height="138.583" fill-rule="evenodd" clip-rule="evenodd" image-rendering="optimizeQuality" shape-rendering="geometricPrecision" text-rendering="geometricPrecision" viewBox="0 0 1037 915" id="youtube">
  <path fill="#ee3537" d="M83 194c-1 0-1 0-1 1 0-1 0-1-1-1 1 0 1 0 2 0zm-2 7c6 3 12 5 18 7 2 0 4 0 6-2 1-2-1-4-2-5-3-4-8-5-12-6-7-3-13-3-20-3-1-1-2-1-2 0-1 1 0 2 1 3 3 3 7 5 11 6zM958 512c0-1 1-1 2-1 2 1 3 0 3-1 1-1-1-1-2-2 0-1-1-2-1-2-3 2-5 3-8 0-1-1-2-1-2 0-1 2 0 4-2 6 0 0 0 2 1 2 3-1 7 4 9-2zM43 438l0 0c2 1 4 0 5 0 6 1 12 0 18 2 1 0 1 0 2 0 3 1 5 1 8 0 1-1 1-1 1-2-3-1-5-1-8-2 0-1 0-1-1 0-2-2-5-1-8-1-4-1-8-2-13-4 0 0 0 0 0 0-7-3-14-1-21 0 6 2 11 7 17 7zM245 69c2 4 5 3 8 2 0 0 0 0 0 0 0 0 0 0 0 0 1 0 1 0 2 0 3 0 4-2 3-4 0-2 0-5-2-7 0-2-2-2-4-2-3-2-7-3-10 1-2 3 1 5 2 8 0 1 1 1 1 2zM40 413c6 4 12 5 19 5 1 0 1 0 2-2-1-5 4-2 5-5-1-1-3-3-6-3 0-2-2-2-4-3-5-2-11-3-17-3-3-2-7-4-10-1-1 1-2 1-2 2 0 1 1 2 2 2 1 1 2 1 3 2 0 5 5 5 8 6zM147 201c-1 1-2 0-2-1-5-3-10-4-16-4 5 4 10 7 16 8 1 0 5 1 2-3zM50 668c0 0 0 0 0 0l0 0 0 0zm22-9c0 0 0-1 0-1-4 0-8 1-12 4-5 3-9 5-15 4 0 0-1 0-2-1-3 0-5 0-6 3-1 1-2 3 0 5 2 2 4 2 7 1 1-1 3-2 4-4 3 0 6-1 10-1 0 0 1 0 2 1 2 1 4 0 7 0 0 0 1 0 1 0 5 1 9-2 12-5 3-3 2-4-1-6-2 0-5 0-7 0zM3 405c3 4 7 1 10 2 2 1 4 1 6 0-2-2-4-1-5-2-3-4-6-3-10-2-2 0-2 1-1 2zM90 732c-1 0-1 1 0 2 3 1 5-1 7-2 2-1 3-1 4-3 0-1-1-2-2-2-3 1-6 2-9 5zM1 435c2 2 5 3 8 3 1 1 3 1 3 0 0-1-1-2-2-2-2-3-6-3-9-3 0 1 0 1 0 2zM55 30c1 1 3 2 5 1-1-2-3-3-4-4-2-2-4-4-6-4-2-2-4-3-6-2 0 2 1 3 2 4 3 2 6 3 9 5zM8 449c4 1 8 1 12-2-5-2-8 1-12 2zM42 342c3 0 6 1 9 1 1 0 2-1 1-2-7-2-13 0-19-1 3 3 6 2 9 2zM77 513c1 1 2 0 2-1 0-1-1-2-2-2-3 0-6-1-8 1 2 1 5 2 8 2zM42 265c2 3 5 4 9 3-2-3-4-4-7-5-1-1-3-3-5-3-1 0-2-1-3-1-1-1-2-2-3-1 0 1 1 2 1 2 3 2 5 4 8 5zM65 204c-1-3-4-4-6-4-1 0-2 0-2 1 1 3 3 4 6 4 1 0 2 0 2-1zM964 497c0-1-1-2-2-1 0 1-1 2-1 3 6 3 0 4 0 7 1 0 2 0 3 0 3-3 2-6 0-9zM111 467c-5-1-10 0-14-1-1 0-2 0-2 0-2-2-5-3-8-2 0 0 0 1 0 1 2 2 4 3 7 2 1 1 3 2 4 3 2 2 3 4 5 7 0 2 0 5 1 7 0 1 0 2 0 3 0 1-2 4 1 5 3 1 4-2 5-4 2-2 0-4-2-5 0-3 2-4 4-5 2-1 4-2 5-4-1-4-4-5-6-7zM48 167c-2-2-4-4-7-3 3 4 3 4 7 3zM53 529c-4-1-6 1-9 2 4 2 6 1 9-2zM118 192c2 3 5 3 8 3-3-3-4-4-8-3zM59 543c1-1 0-2 0-2-2 0-4 1-7 2 0 0 0 0 0 0 0 1 0 1 0 2 3-1 5 0 7-2zM10 49c0-3 2-7-3-6-1 2 2 3 1 5 1 1 2 1 2 1zM4 390c4 0 8 0 12 0 0 0 0 0 0-1-2 0-5 0-8-1-1 2-3 1-4 2zM931 416c1-1 0-2-1-2-2 0-3 0-3 2 0 1 0 2 2 2 1 1 2 0 2-2zM44 614c-2 3 0 3 2 3 3 0 4-2 6-4-3 0-5-1-8 1zM958 430c0 1 0 2 0 2 1 1 2 1 3 0 1 0 1 0 2 0-1-2 2-1 2-3l0 0c-1 0-1-1-1-2-2 1-4 1-6 3zM5 588c1 0 1 0 1 0 4-1 6-6 11-5-5-3-9 0-13 1 0 0 0 1 0 1 0 0 0 0 0 0 0 0 0-1 0-1 0-1-1-2-2-2 0 0-1 1-1 2-1 0-1 1-1 2 0 1 1 0 2 0 0 0 0 1 0 1 1 0 2 1 3 1zM6 299c-1 0-2 0-3 1 1 2 3 2 5 2 2 0 4 0 6 1 1 0 2 1 2 1 3 2 5 1 8 1 1 0 2-1 1-2 0-1-1-1-2-1 0 0 0 0 0 0-4-3-9-1-14-2-1-1-2-1-3-1zM157 120c0 0-1 1-1 1 1 2 3 2 6 2-2-2-3-3-5-3zM21 578c0 0 0 0 0 0 0 0 0 0 0 0 0 0 0 0 0 0zm39-26c0 0 0 0 0 0 0 0 0 0 0 0 0 0 0 0 0 0zm-34 23c-2 0-3 0-4 0-2 1-5 2-2 5 0 1 0 1 1 1 2 1 5 5 8 2 3 0 5-2 6-4 1-1 0-2 0-3 0 0 0 0 0 0 2 0 4 1 6 0 3-1 6 1 8-2 2-4 6-6 10-8 2-1 4-1 5-4-1 0-2 0-3 0 0 0 1-1 1-1 4-2 7-5 8-10 1-1 1-3 0-4-3-1-6 0-8 2-4 2-7 4-8 8l0 1c0 0 0 0 0 0 0-1 0-1 0-1-2 1-2 2-3 4-1 0-2 1-2 3-2 0-4 0-7-1 0 0 0 1 0 1-4 6-10 9-16 11 0 0 0 0 0 0zM10 2c0-1-1-2-2-2 0 0-1 0-1 1 0 1 1 2 2 2 0 0 1 0 1-1zM119 492c-3-1-4 0-5 2 2 1 3-1 5-2zM50 207c0 0 1-1 1-1-1-1-3-2-5-1 1 2 2 3 4 2zM14 377c1 2 2 1 4 0-1-1-3-2-4 0zM6 428c0 0 1-1 1-1-1-1-2-1-4 0 0 1 2 2 3 1zM956 501c0 1 0 1 1 1 1 0 2 0 1-1 0-1 0-2-1-2 0 0-1 1-1 2zM36 302c1 2 3 2 5 1-2 0-3-2-5-1zM97 497c1 1 2 0 3-1-1-1-3-1-4 0 0 0 0 1 1 1zM7 246c1 0 1 0 1 0 2 2 3 2 6 3-2-3-4-3-6-4-1-1-2-2-3-2 0 0-1 1-1 1 1 2 2 1 3 2zM14 429c1 1 3 2 4 1-1-2-2-2-4-1zM906 179c1-1 0-1 0-1-1-1-1 0-2 1 1 0 1 1 1 1 1 1 1 0 1-1zM172 132l0 0c3 1 4 3 6 5 1 1 2 1 3 2 1 0 3 1 4-1 1-1-1-2-2-3-2-2-5-5-9-5-1 0-3-2-3 0-1 1 0 1 1 2zM50 182c-1 0-2-1-2 0 0 2 1 2 3 2 0-1-1-1-1-2zM27 175c0 0-1-1-1-1-1 0-1 0-1 1 0 1 1 1 1 1 1 0 1 0 1-1zM13 648c1 0 3 0 4 1-1-2-2-3-3-3-1 0-1 1-1 2zM51 511c0 0-1 0-1 1 0 0 1 1 2 0 0 0 1 0 1 0 0-1-1-1-2-1zM948 423c0 0-1 0-1 0 0 1 0 1 1 1 0 0 1 0 1 0 0-1-1-1-1-1zM6 226c0 0-1-1-1 1 0 0 1 1 3 0-1 0-1-1-2-1zM1013 622c1 1 1 2 2 1 1 0-1-3 2-1 1 2 1 4 3 4 2-1 3-3 3-6-3 0-5 0-8-1-1 0-2 1-2 2-1 1 0 1 0 1zM5 525c-4-3-4 0-5 3 2 0 4-1 5-3zM7 644c-1-2-2-3-5-2 2 1 3 2 5 2zM6 520c0-2-1-4-3-5 0 2 0 4 0 5 1 0 2 1 3 0zM955 561c1 0 3 1 2-2-1-1-2-1-3 0-1 1 1 1 1 2zM957 537c0 1 1 1 2 1 0 0 1 0 1-1 0-1 0-1-1-1-1 0-2 0-2 1zM993 606c-1 0-3 0-3 2 0 2 3 2 5 2 0 0 2 0 2-1 0-3-3-2-4-3z"></path>
  <path fill="#ee3537" d="M898 659c0,0 0,0 0,0 -1,0 -1,0 -1,1 0,0 0,-1 1,-1zm-93 109c0,0 0,0 0,0 0,0 0,0 0,0 0,0 0,0 0,0zm-12 1c0,0 0,0 0,0 0,0 0,0 0,0 0,0 0,0 0,0zm-41 33c0,0 0,0 0,-1 0,1 0,1 0,1 0,0 0,0 0,0 0,0 0,0 0,0zm-155 16c0,0 0,0 0,0 0,0 0,0 1,0 -1,0 -1,0 -1,0zm-262 20c0,0 0,0 0,0 0,0 0,0 0,0 0,0 0,0 0,0zm-8 -17c-1,0 0,0 0,0 0,0 0,0 -1,0 0,0 0,0 1,0zm-55 -4c0,0 0,0 0,0 0,0 0,0 0,0 0,0 0,0 0,0zm-15 -25c0,0 0,0 -1,0 0,0 0,0 0,0 1,0 1,0 1,0zm-13 -41c0,0 0,0 0,0 0,2 0,3 1,4 0,0 -1,0 -1,0 1,-1 1,-3 0,-4zm-69 -30c0,0 0,0 0,0 0,0 0,0 0,0 0,0 0,0 0,0zm-2 -7c0,0 0,0 0,0 0,0 0,0 0,0 0,0 0,0 0,0zm-72 -169c0,0 0,-1 0,-1 0,0 0,0 0,0 0,0 0,0 0,1zm24 -104c0,0 0,0 0,0 0,0 0,0 0,0 0,0 0,0 0,0zm-13 -34c0,0 0,0 0,0 0,0 0,0 0,0 0,0 0,0 0,0zm14 -24c1,0 0,0 1,0 -1,0 -1,0 -1,0 0,0 0,0 0,0zm-11 -34c0,0 0,0 0,0 0,0 -1,0 -1,0 0,0 1,0 1,0 0,0 0,0 0,0zm-9 -27c0,-1 0,-1 0,-1 0,0 0,0 0,1 0,0 0,0 0,0zm33 -66l0 0c0,0 1,0 1,-1 0,0 -1,0 -1,1zm92 -110c0,0 0,0 0,0 0,0 0,0 0,0 0,0 0,0 0,0zm12 0c0,-1 0,-1 0,-1 0,0 0,0 0,0 0,0 0,0 0,1zm42 -33c0,0 0,0 0,0 0,0 0,0 0,0 0,0 0,0 0,0 0,0 0,0 0,0zm154 -16c0,0 0,0 0,0 0,0 0,0 0,0 0,0 0,0 0,0zm263 -21c0,1 0,1 0,1 0,0 0,0 0,0 0,0 0,-1 0,-1zm8 18c0,0 0,0 0,0 0,0 0,0 0,0 0,0 0,0 0,0zm55 4c0,0 0,0 0,0 0,0 0,0 0,0 0,0 0,0 0,0zm15 25c0,0 0,0 0,0 0,0 0,0 0,0 0,0 0,0 0,0zm12 41c0,0 0,0 0,0 1,-2 0,-3 0,-4 0,0 0,0 0,0 -1,1 -1,2 0,4zm69 30c0,0 0,0 0,0 0,0 0,0 0,0 0,0 0,0 0,0zm2 7c0,0 0,0 0,0 0,0 0,0 0,0 0,0 0,0 0,0zm72 169c1,0 0,1 1,1 0,0 0,0 0,0 -1,0 0,-1 -1,-1zm-23 104c0,0 0,0 0,0 0,0 0,0 0,0 0,0 0,0 0,0zm12 34c0,0 0,0 0,0 0,0 0,0 0,0 0,0 0,0 0,0zm-14 24c0,0 0,0 0,0 0,0 1,0 1,0 0,0 -1,0 -1,0zm11 34c1,0 1,0 1,0 0,0 0,0 0,0 0,0 0,0 0,0 0,0 0,0 -1,0zm9 27c0,0 0,0 0,0 0,0 0,0 0,0 0,0 0,0 0,0zm-161 201c-1,0 -1,1 -1,1 0,0 0,0 0,1 0,-1 0,-1 0,-1 0,0 0,0 0,0 0,0 0,-1 0,-1 1,0 1,0 1,0zm-129 34c0,0 0,0 0,0 0,0 0,0 0,0 0,0 0,0 0,0zm-373 -36c0,0 0,0 -1,0 0,0 1,0 0,0 1,0 1,0 1,0zm-206 -176c0,0 0,0 0,1 0,-1 0,-1 0,-1zm40 -59c0,0 1,-1 1,-2 0,1 0,1 0,1 0,1 0,1 -1,1zm57 -131c0,0 0,0 0,0 0,0 0,-1 0,-1 0,0 0,1 0,1zm-41 -23l0 0c0,0 0,0 0,0 0,0 0,0 0,0 0,-1 0,-1 0,-1 0,0 0,0 0,0 0,0 0,0 0,1l0 0zm2 -30c0,0 0,0 0,0l0 0c0,0 0,0 0,0zm-4 -20c0,0 0,0 0,-1 0,0 0,0 1,0 -1,1 -1,1 -1,1zm-48 -54c0,0 0,0 0,0 0,0 0,0 0,0 0,0 0,0 0,0zm159 -156c0,0 0,0 0,0 0,0 0,-1 0,-1 0,1 0,1 0,1zm42 -22c0,-1 0,-1 0,-1 0,0 0,-1 0,-1 0,0 0,0 0,1 0,0 0,0 0,0 0,0 0,0 0,1 0,0 0,0 0,0zm129 -34c0,0 0,0 0,0 0,0 0,0 0,0 0,0 0,0 0,0zm373 36c0,0 0,-1 0,-1 0,1 0,1 0,1 0,0 0,0 0,0zm196 184c0,0 0,0 0,-1 0,1 0,1 0,1l0 0zm-30 50c-1,1 -1,2 -1,3 0,-1 0,-1 0,-2 -1,0 0,-1 1,-1zm-57 132c0,0 0,0 0,0 0,0 0,0 0,0 0,0 0,0 0,0zm40 23c0,0 0,0 0,0 0,0 0,0 0,0 0,0 0,0 0,0 0,0 0,1 0,1 0,0 0,0 0,0 0,0 0,-1 0,-1l0 0zm-1 30c0,0 0,0 0,0 0,0 0,0 0,0 0,0 0,0 0,0zm3 19c0,1 1,1 1,1 0,0 -1,0 -1,0 0,0 0,0 0,-1zm48 55c0,0 0,0 0,0 0,0 0,0 0,0 0,0 0,0 0,0zm-56 10c0,0 0,0 0,0 0,0 0,0 0,0 0,0 0,0 0,0zm-31 31c0,0 0,0 0,0 0,0 0,0 0,0 0,0 0,0 0,0zm-24 50c0,0 0,0 0,0 -1,0 -2,1 -3,1 1,0 2,0 3,-1zm-26 20c0,0 0,0 0,0 0,0 0,0 0,0 0,0 0,0 0,0zm-48 38c0,0 0,0 0,0 0,0 0,0 0,0l0 0c0,0 0,0 0,0 0,0 0,0 0,0zm-73 51c0,0 0,0 0,0l0 0c0,0 0,0 0,0 0,0 0,0 0,0zm-62 16c0,0 0,0 0,0 0,0 0,0 0,0 0,0 0,0 0,0zm-120 28c0,0 0,0 0,0 0,0 0,0 0,0 0,0 0,0 0,0zm-192 -38c-1,1 -2,1 -2,3l0 0c0,-2 1,-3 2,-3zm-21 -17c0,0 0,0 0,1 0,0 0,-1 0,-1 0,0 0,0 0,0zm-89 -88c0,0 0,0 0,0 0,0 0,0 0,0 0,0 0,0 0,0 0,0 0,0 0,0zm-64 -1c0,0 0,0 0,0 0,0 0,0 0,0 0,0 0,0 0,0l0 0zm-108 -85c1,0 1,0 1,0 0,0 -1,0 -1,0 0,0 0,0 0,0zm-6 6c0,-1 0,-1 1,-1 0,0 0,0 0,0 0,0 -1,0 -1,1zm0 0c0,0 0,0 0,1 0,0 1,1 0,1 -1,0 -1,0 -1,0 0,-1 1,-1 1,-2zm88 -55c0,0 0,0 0,0 0,0 0,0 0,0 0,0 0,0 -1,0 1,0 1,0 1,0zm-31 -36c0,0 0,0 0,0 0,0 0,0 0,0l0 0zm13 -138c0,0 0,0 0,0 0,-1 0,-1 -1,-2 1,1 1,1 1,2zm2 -6c0,0 0,0 0,0 0,0 0,0 0,0 0,0 0,0 0,0zm19 -61c0,0 0,0 0,1 0,-1 -1,0 -1,-1 0,0 1,0 1,0zm-16 -52c0,0 0,0 0,0 0,-1 0,-1 0,-1 0,0 0,0 0,1zm31 -31c0,0 0,0 0,0 0,0 0,0 0,0 0,0 0,0 0,0zm49 -70c0,0 0,0 0,0 0,0 0,0 0,0 0,0 0,0 0,0zm49 -38c0,0 0,0 0,0l0 0c0,0 0,0 0,0 0,0 0,0 0,0 0,0 0,0 0,0zm73 -51c0,0 0,0 0,0l0 0c0,0 0,0 0,0 0,0 0,0 0,0zm61 -17c1,0 1,0 1,0 0,1 0,1 0,1 0,0 -1,-1 -1,-1zm120 -27c0,0 0,0 0,0 0,0 0,0 0,0 0,0 0,0 0,0zm193 38c0,-1 1,-2 2,-3l0 0c-1,1 -1,2 -2,3zm20 17c0,-1 0,-1 0,-1 0,0 0,0 0,0 0,0 0,1 0,1zm261 174c0,0 0,0 -1,-1 1,0 1,0 2,0 0,0 -1,1 -1,1zm6 -6c0,0 0,1 0,1 0,0 0,0 0,0 0,0 0,-1 0,-1zm0 0c0,0 1,0 1,-1 0,0 -2,-1 0,-1 0,0 1,0 1,0 -1,0 -2,1 -2,2zm2 2c0,0 0,0 0,0 0,0 0,0 0,0zm-89 53c-1,0 -1,0 -1,0 0,0 1,0 1,0 0,0 0,0 0,0 0,0 0,0 0,0zm17 174c0,0 0,0 0,0 0,1 1,1 1,1 0,0 -1,-1 -1,-1zm-1 6c0,0 0,0 0,0 0,0 0,0 0,0 0,0 0,0 0,0zm-19 60c0,0 0,0 0,0 0,0 0,0 0,0 0,0 0,0 0,0zm59 48c0,0 0,0 0,0 0,0 0,0 0,0 0,0 0,0 0,0 0,0 0,0 0,0zm-433 236c0,-1 0,-1 1,-1 0,0 0,1 0,1 0,0 0,0 -1,0zm-96 33c-1,0 -1,0 -1,0 0,0 0,0 1,0zm-125 -89c1,0 1,0 2,-1 0,0 0,0 0,0 -1,0 -2,0 -2,1 0,0 0,0 0,0 0,0 0,0 0,0 0,0 0,0 0,0zm-61 -63c0,0 0,0 0,0 0,0 0,0 0,0 0,0 0,0 0,0zm-79 -22c0,0 0,0 0,0 0,0 0,0 0,0 0,0 0,0 0,0zm-56 -141c0,0 0,0 0,0 0,0 0,0 0,0 0,0 0,0 0,0zm35 -218c0,0 0,0 0,0 0,0 0,0 1,0 -1,0 -1,0 -1,0zm-29 -46c0,0 0,0 0,0 0,0 0,0 0,0 0,0 0,0 0,0zm-7 -7c0,0 0,0 0,0 0,0 0,0 1,0 -1,0 -1,0 -1,0zm-25 -10c0,0 0,0 0,0 0,0 0,0 0,0 0,0 0,0 0,0 0,0 0,0 0,0zm433 -236c0,0 0,1 0,1 0,-1 0,-1 -1,-1 1,0 1,0 1,0zm97 -33c0,0 0,0 1,0 -1,0 -1,0 -1,0zm125 89c-1,0 -2,0 -2,1 0,0 0,0 0,0 0,0 1,-1 2,-1 0,0 0,0 0,-1 0,0 0,0 0,0 0,1 0,1 0,1zm60 62c0,0 0,0 0,0 0,0 0,0 0,0 0,0 0,0 0,0zm79 23c0,0 0,0 0,0 0,0 0,0 0,0 0,0 0,0 0,0zm0 236c-1,1 -2,2 -2,3 0,-1 1,-2 2,-3zm35 67c0,0 0,0 0,0 0,0 0,0 0,0 0,0 0,0 0,0 0,0 0,0 0,0zm-14 56c0,0 0,0 0,0 0,0 0,0 0,0 0,0 0,0 0,0zm29 46c0,0 0,0 0,0 0,0 0,0 0,0 0,0 0,0 0,0zm-137 147c0,0 0,0 0,0 0,0 0,0 0,0 0,0 0,0 0,0zm-15 6c0,0 0,0 0,0 0,0 0,0 0,0 0,0 0,0 0,0zm-61 44c0,0 0,0 1,0 0,0 -1,0 -1,0 0,0 0,0 0,0zm-25 16c0,0 0,0 0,0 0,0 0,0 0,0 0,0 0,0 0,0zm-86 -22c0,0 0,0 0,0 0,0 0,0 0,0 0,0 0,0 0,0zm-33 22c0,0 0,0 0,0 -1,0 -1,0 -1,0 0,0 0,0 1,0zm-201 -15c0,0 0,0 0,0 0,0 -1,0 -1,0 0,0 1,0 1,0zm-41 -5c0,0 0,0 0,0 0,0 0,0 0,0 0,0 0,0 0,0zm-66 -51c0,1 -1,1 -2,1 1,0 2,0 2,-1zm-7 -20c0,1 0,1 0,2l0 0c1,-1 1,-1 0,-2 0,0 0,0 0,0zm-151 -103c0,0 0,0 0,1 0,0 0,0 0,0 0,-1 0,-1 0,-1zm27 -46c0,0 0,0 0,0 0,0 0,0 0,0 0,0 0,0 0,0zm0 -259c0,0 0,0 0,0l0 0c0,0 0,0 0,0 0,0 0,0 0,0 0,0 0,0 0,0 0,0 0,0 0,0 0,0 0,0 0,0 0,0 0,0 0,0 0,0 0,0 0,0zm82 -127c-1,0 -1,-1 -1,-1 0,0 0,0 0,0 0,0 0,0 1,1zm55 -33c-1,0 -1,0 -1,0 0,0 0,0 0,0 1,0 0,0 1,0zm60 -44c0,0 0,0 0,0 0,0 0,0 0,-1 0,1 0,1 0,1zm26 -16c-1,0 -1,0 -1,0 0,0 0,0 1,0 0,0 0,0 0,0zm85 22c0,0 0,0 0,0 0,0 0,0 0,0 0,0 0,0 0,0zm34 -22c0,0 0,0 0,0 0,0 0,0 0,0 0,0 0,0 0,0zm201 15c0,-1 0,-1 0,-1 0,0 0,0 0,0 0,0 0,0 0,1zm40 5c0,0 0,0 0,-1 0,0 0,0 1,0 -1,1 -1,1 -1,1zm66 51c1,-1 2,-1 2,-1 0,0 -1,0 -2,1zm7 20l0 0c0,0 0,0 0,0 0,0 0,0 0,0 0,-1 0,-1 0,-2 0,0 0,0 0,0 0,1 0,1 0,2 0,0 0,0 0,0zm12 5c0,0 0,0 0,0 0,0 0,0 0,0 0,0 0,0 0,0zm140 97c0,0 0,0 0,0 0,0 0,0 0,0 0,0 0,0 0,0zm-27 47c0,0 0,0 0,0 0,0 0,0 0,0 0,0 0,0 0,0zm0 259c0,0 -1,-1 -1,-1l0 0c0,0 0,0 0,0 0,0 0,0 0,0 0,0 0,0 0,0 0,0 0,0 0,0 0,0 0,0 0,0 0,0 0,0 1,0 0,0 0,0 0,1zm16 13c0,0 0,0 0,1l0 0c0,-1 0,-1 0,-1 0,0 0,0 0,0zm-49 40c0,0 0,1 0,1 0,0 -1,0 -1,0 1,0 0,-1 1,-1zm-9 -1c0,0 0,0 0,0 0,0 0,0 0,0 0,0 0,0 0,0zm-8 23c0,0 0,0 0,0 0,0 0,0 0,0 0,0 0,0 0,0zm-32 53c0,-1 0,-1 0,-1 0,0 0,0 0,0 0,1 0,1 0,1zm-22 12c0,0 1,0 1,0 0,0 -1,0 -1,0 0,0 0,0 0,0zm0 4c0,1 0,1 0,1 0,0 0,0 0,-1zm-49 33c0,0 0,-1 0,-1 0,0 1,-1 2,0 0,0 0,0 1,0 -1,0 -2,0 -3,1zm-70 36c0,0 0,0 0,0 0,0 0,0 0,0 0,0 0,0 0,0zm-234 80c-1,1 -1,2 -2,2 0,0 0,0 0,0 1,0 1,-1 2,-2zm-51 -60c0,0 0,0 0,0 -1,0 -1,0 -1,0 0,0 1,0 1,0zm-35 -34c0,-1 0,-1 0,-1 0,0 0,0 0,1zm-38 -15c0,0 0,0 0,0 0,0 0,0 0,0 0,0 0,0 0,0zm-27 8c0,0 0,0 0,0 0,0 0,0 0,1 0,-1 0,-1 0,-1zm-8 -20c0,0 0,0 0,0 0,0 0,0 -1,0 0,0 1,0 1,0zm-160 -450c0,0 0,0 0,0 0,0 0,0 0,0 -1,0 -2,0 -3,-1 1,1 2,1 3,1zm-21 -15c0,0 0,0 0,0 -1,0 0,1 0,1 0,0 0,0 0,0 0,0 0,-1 0,-1zm49 -39c0,0 0,-1 0,-2 0,0 0,0 0,0 0,1 0,1 0,2zm8 1c0,0 0,0 0,0 0,0 0,0 0,0 0,0 0,0 0,0zm9 -24c0,0 0,1 0,1 -1,0 -1,0 -1,0 0,0 0,-1 1,-1zm53 -64c0,-1 0,0 0,0 0,-1 0,-1 0,-1 0,0 0,0 0,1zm1 -6c0,1 0,1 0,1 0,0 0,0 0,-1zm18 -8c0,0 0,0 0,0 0,0 0,0 0,0 0,0 0,0 0,0zm31 -23c0,0 0,0 0,1 -1,0 -1,0 -2,0 0,0 -1,0 -1,-1 1,0 2,0 3,0zm70 -37c0,0 0,0 -1,0 1,0 1,0 1,0 0,0 0,0 0,0zm234 -79c0,-1 1,-2 1,-3 0,0 0,0 0,0 -1,1 -1,2 -1,3zm51 60c0,0 0,0 0,0 0,0 0,-1 0,-1 0,1 0,1 0,1zm34 34c0,0 0,0 0,0 0,0 0,0 0,0zm39 15c0,0 0,0 0,0 0,0 0,0 0,0 0,0 0,0 0,0zm27 -8c0,0 0,0 -1,0 1,0 1,-1 1,-1 0,1 0,1 0,1zm8 20c0,0 0,0 0,0 0,-1 0,0 0,-1 0,1 0,1 0,1zm1 1l0 0c0,0 0,0 0,0 0,0 0,0 0,0zm159 449c0,0 -1,0 -1,0 1,0 1,0 2,0 0,0 1,0 2,0 -1,0 -2,0 -3,0zm-104 140c0,0 0,0 0,0 0,0 0,0 0,0 0,0 0,0 0,0zm-54 39c0,0 0,0 0,0 0,0 0,0 0,0 0,0 0,0 0,0zm-36 20c0,1 0,1 1,2 0,0 -1,0 -1,0 0,-1 0,-1 0,-2zm-12 11c0,0 0,0 0,0 0,0 0,0 0,0zm-12 3c0,0 0,1 0,1 0,0 0,0 0,-1 0,0 0,0 0,0zm-14 -4c0,0 1,0 1,0 0,0 -1,0 -1,0zm-10 11c0,0 0,0 0,1 0,0 0,-1 0,-1zm-107 -13c0,0 0,0 0,0 1,1 2,2 3,3 -1,-2 -1,-3 -3,-3zm-4 31c0,0 0,0 0,0 0,0 0,0 0,0 0,0 0,0 0,0zm-2 -1c0,0 0,0 0,0 0,0 -1,-1 -1,-1 1,0 1,1 1,1zm-83 50c0,0 0,0 0,0 0,0 0,0 0,0 0,0 0,0 0,0zm-1 -4c0,1 0,1 0,1 0,0 0,0 0,0 0,0 0,0 0,-1zm-98 -89c0,0 0,0 0,0 0,0 0,0 0,0 0,0 0,0 0,0 -1,1 -1,2 -2,2 1,0 2,-1 2,-2zm-26 5c0,0 0,0 0,0 0,0 0,0 0,0 0,0 0,0 0,0zm-16 -17c0,0 0,0 0,0 1,0 2,0 2,0 0,0 -1,-1 -2,0zm-20 11c0,0 0,0 0,0 0,0 0,0 0,0 0,0 0,0 0,0zm-28 -37c0,0 -1,0 -1,0 0,0 1,0 1,0zm-37 -32c0,0 0,0 0,0 0,0 0,0 0,0 0,0 0,0 0,0zm-47 -18c0,0 0,0 0,0 0,0 -1,0 -1,0 0,0 0,0 1,0zm-73 -38c0,1 1,1 1,1 0,0 0,0 0,0 0,0 -1,0 -1,-1 0,0 0,0 0,0zm23 -93c0,0 0,0 0,0 0,0 0,0 0,0 0,0 0,0 0,0zm-16 1c0,0 0,0 0,1 0,0 0,0 0,0 0,0 0,-1 0,-1zm1 -15c0,1 1,1 1,1 0,0 0,0 -1,0 1,0 0,0 0,-1zm2 -4c0,0 0,0 0,0 0,0 0,0 0,0 0,0 0,0 0,0zm14 -10c0,0 0,0 0,0 0,0 0,0 0,0 0,0 0,0 0,0zm3 -27c0,0 0,0 0,0 -1,-1 -2,0 -3,1l0 0c0,0 0,0 0,0 0,0 0,0 0,0 1,0 2,-1 3,-1zm3 -2l0 0 0 0 0 0zm86 -336c0,0 0,0 0,0 0,0 0,0 0,0 0,0 0,0 0,0zm55 -39c0,0 0,0 0,0 0,0 0,0 0,0 0,0 0,0 0,0zm35 -19c0,-1 0,-1 0,-2 0,0 0,0 0,0 0,1 0,1 0,2zm12 -11c0,0 0,0 0,0 0,0 0,0 0,0zm12 -4c0,0 0,0 1,0 0,0 0,0 0,0 -1,0 -1,0 -1,0zm14 5c0,0 0,0 0,0 0,0 0,0 0,0zm11 -12c0,0 0,0 0,0 0,0 0,0 0,0zm79 33l0 0c0,-1 0,-2 0,-4l0 0c-1,2 -1,3 0,4zm27 -19c0,0 0,0 0,0 -1,-1 -2,-2 -2,-3 0,1 1,3 2,3zm4 -31c0,0 0,0 0,0 0,0 0,0 1,0 -1,0 -1,0 -1,0zm3 1c0,0 0,0 0,0 0,0 0,0 0,0 0,0 0,0 0,0zm83 -50c0,0 0,0 0,0 0,0 0,0 0,0 0,0 0,0 0,0zm1 3c0,0 0,0 0,0 0,0 0,0 0,0 0,0 0,0 0,0zm84 86c0,0 0,0 0,0 0,0 0,0 0,0l0 0c0,0 0,0 0,0zm14 4c0,0 0,0 0,0 0,0 0,0 0,0 0,0 0,0 0,0 0,-1 1,-2 1,-2 0,0 -2,0 -1,2zm25 -5c0,0 0,0 1,0 0,0 0,0 0,0 -1,0 0,0 -1,0zm17 17c-1,0 -1,0 -1,0 0,0 -1,0 -2,0 1,0 2,1 3,0zm20 -11c0,0 0,0 0,0 0,0 0,0 0,0 0,0 0,0 0,0zm28 36c0,0 0,0 0,0 0,0 0,0 0,0zm84 51c0,0 0,0 0,-1 0,1 0,1 0,1 0,0 0,0 0,0zm73 37c-1,0 -1,0 -1,0 0,0 0,0 0,0 0,0 0,0 1,0 0,0 0,0 0,0zm-24 94c0,0 0,0 0,0 0,0 0,0 0,0 0,0 0,0 0,0zm17 -2c0,0 0,0 0,0 0,0 0,0 0,0 0,0 0,0 0,0zm-2 15c0,0 0,0 0,0 0,0 0,0 0,0 0,0 0,0 0,0zm-1 5c0,0 0,0 0,0 0,0 0,0 0,0 0,0 0,0 0,0zm-15 10c0,0 0,0 0,0 0,0 0,0 0,0 0,0 0,0 0,0zm-3 27c0,0 0,0 0,0 1,0 2,0 3,-1l0 0c0,0 0,0 0,0 0,0 0,0 0,0 -1,0 -2,0 -3,1zm-3 2c0,0 0,0 0,0 0,0 0,0 0,0 0,0 0,0 0,0zm-126 343c0,0 0,0 0,0 0,0 0,0 0,0 0,0 0,0 0,0 0,0 0,0 0,0zm-36 36c0,0 0,0 0,0 0,0 1,0 1,0 0,0 -1,0 -1,0zm-42 22c0,0 0,0 0,0 0,0 0,0 0,0 0,0 0,0 0,0zm-37 3c0,0 0,0 0,0 0,0 0,0 0,0 0,0 0,0 0,0zm-81 -11c0,0 0,0 0,0 0,0 0,0 0,0 0,0 0,0 0,0zm-42 44c0,0 0,0 0,0 0,0 0,0 0,0 0,0 0,0 0,0zm-33 15c0,0 0,0 0,0l0 0 0 0c0,0 0,0 0,0 0,0 0,0 0,0 0,0 0,0 0,0zm-12 2c0,0 0,-1 0,-1 0,0 0,0 1,0 -1,0 -1,1 -1,1zm-97 -61c0,0 0,0 0,0l0 0c0,0 0,0 0,0zm-14 -5c0,0 0,0 0,0 0,0 0,0 -1,0 1,0 1,0 1,0zm-17 -6c-1,0 -1,0 -1,0 0,0 0,0 1,0zm-42 7c0,0 0,0 0,0 0,0 0,0 0,0zm-31 -620c0,0 0,1 0,1 0,0 0,0 0,0 0,0 0,0 0,-1 0,0 0,0 0,0zm36 -35c0,0 0,0 0,0 0,0 0,0 0,0 0,0 0,0 0,0zm43 -22c0,0 0,0 0,0 0,0 0,0 0,0 0,0 0,0 0,0zm37 -4c0,0 0,1 0,1 0,0 0,-1 0,-1 0,0 0,0 0,0zm155 -47c0,0 0,0 0,0 0,0 0,0 0,0l0 0c0,0 1,0 1,0 0,0 0,0 0,0 -1,0 -1,0 -1,0zm12 -2c0,0 0,0 0,0 0,0 0,0 0,1 0,-1 0,-1 0,-1zm85 42c0,0 0,0 0,0 0,0 0,0 0,0 0,0 0,0 0,0zm27 24c0,0 0,0 0,0 0,0 0,0 0,0 0,0 0,0 0,0zm17 6c0,0 0,0 1,0 -1,0 -1,0 -1,0zm25 3c0,0 0,0 0,0 0,0 0,0 0,0 0,0 0,0 0,0zm16 -10c1,0 1,0 1,0 0,0 0,0 -1,0zm52 607c0,0 0,0 0,0 0,0 0,1 0,1 0,0 0,0 0,0 -1,0 -1,-1 0,-1zm-1 -3c0,0 0,0 0,0 0,0 0,0 0,0 0,0 0,0 0,0zm-11 6c0,0 0,0 0,0 0,0 0,0 0,0 0,0 0,0 0,0 0,0 0,0 0,0zm-11 21c0,0 0,-1 0,-1 0,0 0,0 0,1 0,0 0,0 0,0zm-16 11c0,0 0,0 0,0 0,0 0,0 0,0 0,0 0,0 0,0zm-22 9c0,0 0,0 0,-1 0,1 0,1 0,1 0,0 0,0 0,0zm-44 26c0,0 0,0 0,0 0,0 0,0 -1,0 0,0 1,0 1,0zm-29 -13c0,0 0,0 0,0 0,0 0,0 0,0 0,0 0,0 0,0zm0 6c0,0 0,0 0,0 0,0 0,0 0,0 0,0 0,0 0,0zm-28 -29c0,0 0,0 0,0 0,0 0,0 0,0 0,0 0,0 0,0zm-1 5c0,0 0,0 0,0 0,0 0,1 0,1 0,0 0,-1 0,-1zm-109 75c0,0 0,0 0,0 0,0 0,0 0,0 0,0 0,0 0,0zm-105 -14c0,0 0,0 0,0 0,0 0,0 0,0 0,0 0,0 0,0zm-6 -30c0,0 -1,0 -1,0 0,0 1,0 1,0zm-6 11c0,0 1,0 1,0 0,0 0,0 0,0 0,0 -1,0 -1,0zm-45 -32c0,0 0,0 0,0 0,0 0,0 0,0 0,0 0,0 0,0zm-61 -41c0,0 0,0 0,0 0,0 0,0 0,0 0,0 0,0 0,0zm-6 -6c0,0 0,0 0,0 0,0 0,0 0,0 0,0 0,0 0,0zm-13 -555c0,0 0,0 0,0 0,0 0,0 0,0 0,0 0,0 0,0 0,0 0,0 0,0zm11 -20c0,0 0,0 0,1 0,0 0,-1 0,-1 0,0 0,0 0,0zm17 -11c0,0 0,0 0,0 0,0 0,0 0,0 0,0 0,0 0,0zm22 -9c0,0 0,0 0,0 -1,0 -1,0 -1,0 0,0 0,0 1,0zm44 -26c0,0 0,0 0,0 0,-1 0,0 0,0 0,0 0,0 0,0zm29 13c0,0 0,0 0,0 0,0 0,0 0,0 0,0 0,0 0,0zm0 -6c0,0 0,0 0,0 0,0 0,0 0,0 0,0 0,0 0,0zm27 28c0,0 1,0 1,1 -1,0 -1,-1 -1,-1 0,0 0,0 0,0zm2 -5c-1,0 -1,0 -1,0 0,0 0,0 0,0 0,0 0,0 1,0zm95 -67c0,0 0,0 0,0 0,0 0,0 0,0 0,0 0,0 0,0zm14 -7c0,0 0,0 0,0 0,0 -1,0 -1,0 0,0 1,0 1,0zm105 14c0,0 0,0 0,0 0,0 0,0 0,0 0,0 0,0 0,0zm5 30c1,0 1,-1 1,0 0,0 0,-1 -1,0zm51 21c0,0 0,0 0,0 0,0 1,0 1,0 0,0 -1,0 -1,0zm61 40c0,0 0,0 0,0 0,0 0,0 0,0 0,0 0,0 0,0zm6 7c0,0 0,0 0,0 0,0 0,0 0,-1 0,1 0,1 0,1zm15 5c0,0 0,0 0,0 0,0 1,1 2,2 0,0 0,0 0,0 -1,-1 -1,-2 -2,-2zm-85 604c0,0 0,0 0,0 0,0 0,0 0,0 0,0 0,0 0,0zm-71 -12c0,0 0,-1 0,-1 0,1 0,1 0,1 0,0 0,0 0,0zm-119 68c0,0 0,0 0,0 0,0 0,0 0,0 0,0 0,0 0,0zm-78 4c0,0 0,0 0,-1 0,0 0,0 0,0 0,1 0,1 0,1zm-137 -120c0,0 0,0 0,0 0,0 0,0 0,0 0,0 0,0 0,0zm-15 -1c0,0 0,0 0,0 -1,-1 -2,-1 -2,-2 0,0 0,0 0,0 0,1 1,2 2,2zm-6 -26c0,0 0,0 0,0 0,0 0,0 0,0zm-8 -13c0,0 0,0 0,0 0,0 0,0 0,0 0,0 0,0 0,0zm-22 -468c1,0 2,-1 2,-1 0,0 -1,1 -2,1zm26 -39c0,0 0,0 0,0 0,-1 -1,-1 -1,-2 0,1 0,0 1,0 0,1 0,2 0,2zm1 3c0,0 0,0 0,0 0,0 0,0 0,0 0,0 0,0 0,0zm94 -61c0,0 0,0 0,0 -1,0 -1,0 -1,0 0,0 0,0 1,0zm71 12c0,0 0,0 0,0 0,0 0,0 0,0 0,0 0,0 0,0zm50 -11c0,-1 0,-1 0,-1 0,1 0,0 0,1 0,0 0,0 0,0zm68 -57c0,0 0,0 0,0 0,0 0,0 0,0 0,0 0,0 0,0zm78 -4c0,0 0,0 0,0 0,0 0,0 0,0 0,0 0,0 0,0zm134 117c0,1 0,1 0,1 0,0 0,0 0,-1 0,1 0,0 0,0zm3 3c0,0 0,0 0,0 0,0 0,0 0,0 0,0 0,0 0,0zm19 13c0,0 0,0 0,0 0,0 0,0 0,0 0,0 0,0 0,0zm3 13c0,0 0,0 0,0 0,0 0,0 0,0zm7 14c0,0 0,0 0,0 0,0 0,0 0,0 0,0 0,0 0,0zm34 455c1,0 0,0 1,0 0,0 -1,0 -1,0 0,0 0,0 0,0zm-140 112c0,0 0,0 0,1 0,0 0,0 0,-1 0,0 0,0 0,0zm-24 -20c0,0 0,0 0,0 0,0 1,-1 1,-1 0,0 0,0 0,0 -1,0 -1,1 -1,1zm-4 9c0,-1 1,-1 1,-1 0,0 0,0 0,1 0,0 0,0 -1,0zm-35 -13c0,0 0,0 0,0 0,0 0,0 0,0 0,0 0,0 0,0zm-77 48c0,0 0,0 0,0 0,0 0,0 0,0 0,0 0,0 0,0zm-28 13c0,0 0,1 0,1 0,0 0,-1 0,-1zm-10 1c0,0 0,0 0,0 0,0 0,0 0,0 0,0 0,0 0,0zm-1 13c0,1 0,1 0,1 -1,0 -1,0 -2,1 1,-1 1,-1 2,-2zm-11 1l0 0 0 0zm-33 11c0,0 0,0 0,0 0,0 0,0 0,0 0,0 0,0 0,0zm-59 -60c0,0 0,0 0,0 0,0 0,0 -1,0 1,0 1,0 1,0zm-67 -31c0,0 0,0 0,0 0,0 0,0 0,0 0,0 0,0 0,0zm-63 -25c0,0 0,0 0,0 0,0 0,0 0,-1 0,0 0,0 0,0 0,1 0,1 0,1zm-3 -22c0,0 0,0 0,0 0,0 0,0 0,0 0,0 0,0 0,0zm-44 -72c0,0 0,0 -1,1 0,0 0,0 0,-1 0,0 1,0 1,0zm-1 -410c0,0 0,0 0,0 0,0 0,0 0,0 0,0 0,0 0,0zm141 -112c-1,-1 0,0 0,-1 0,0 0,0 0,0 0,0 0,1 0,1zm11 16c0,0 0,0 0,0 0,0 0,0 0,0 0,0 0,0 0,0l0 0c0,0 0,0 0,0 0,0 0,0 0,0zm8 -1c0,0 0,0 0,0 0,0 0,0 0,0 0,0 0,0 0,0zm8 -4c0,0 0,0 0,1 0,-1 0,-1 0,-1 0,0 0,0 0,0zm36 12c0,0 0,0 0,0 0,0 0,0 0,0 0,0 0,0 0,0zm77 -47c0,0 0,0 0,0 0,0 0,0 0,0 0,0 0,0 0,0zm28 -14c0,0 0,0 0,0 0,0 0,0 0,0zm10 0c0,0 0,0 0,0 0,0 0,0 0,0 0,0 0,0 0,0zm1 -14c0,0 0,0 0,0 0,0 1,0 1,-1 0,1 -1,1 -1,1zm10 -1l0 0c0,0 0,0 0,0l0 0zm33 -10c0,0 0,0 0,0 0,0 0,0 0,0 0,0 0,0 0,0zm14 -3l0 0c-1,0 -1,0 -2,1 1,-1 1,0 2,-1zm46 63c0,0 0,0 0,0 0,0 0,0 0,0 0,0 0,0 0,0zm67 31c0,0 0,-1 0,-1 0,0 0,1 0,1 0,0 0,0 0,0zm60 36c0,0 0,0 0,0 0,0 0,0 0,0 0,0 0,0 0,0 0,0 0,0 0,0zm50 83c0,-1 0,-1 0,-1 0,0 0,0 0,0 0,0 0,0 0,1zm49 277c0,0 0,0 0,0 0,0 0,0 0,0 0,0 0,0 0,0zm-112 171c0,0 0,0 0,0 0,0 0,0 0,0 0,0 0,0 0,0zm-92 50c0,0 0,0 0,0 0,0 0,0 0,0 0,0 0,0 0,0zm-11 9c0,0 0,0 0,1 0,0 0,0 0,0 0,-1 0,-1 0,-1zm-122 31c0,0 0,0 0,0 0,0 0,0 0,0 0,0 0,0 0,0zm-53 16c0,1 0,1 0,1 0,0 0,0 0,0 0,0 0,0 0,0 0,0 0,0 0,0 0,0 0,0 0,0 0,0 0,0 0,-1zm-3 0c0,0 0,0 0,0 0,0 0,0 0,0zm-10 20c0,0 0,0 0,-1 0,0 0,1 0,1 0,0 0,0 0,0zm-11 7c0,0 0,0 0,0 0,0 0,0 0,0 0,0 0,0 0,0zm-23 -13c0,0 0,0 1,0 -1,0 -1,0 -1,0 0,0 0,0 0,0zm-115 -71l0 0c0,0 0,0 0,0 0,0 0,0 0,0 0,0 0,0 0,0zm-11 -8c0,0 0,0 0,0 0,0 0,0 0,0 0,0 0,0 0,0zm4 -17c1,0 1,0 1,-1 0,1 0,1 0,1 0,0 0,0 -1,0zm-34 -17c0,0 0,0 0,0 0,0 0,0 0,0 0,0 0,0 0,0 0,0 0,0 0,0 0,0 0,0 0,0 0,0 0,0 0,0 0,0 0,0 0,0zm-5 2c0,0 0,0 0,0 0,1 0,1 0,1 0,0 0,0 0,0 0,0 0,0 0,-1zm-6 -33c0,0 0,0 0,0 0,-1 -1,-1 -2,-1 0,-1 0,-1 0,-1 0,1 1,2 2,2zm-32 -52c0,0 0,0 0,0 0,0 0,0 0,0 0,0 0,0 0,0zm-62 -274c0,1 0,1 0,1 0,0 0,0 0,0 0,0 0,0 0,-1 0,0 0,0 0,0zm113 -171c0,0 0,0 0,0 -1,0 -1,0 -1,0 0,0 0,0 1,0zm91 -50c0,0 0,0 0,0 0,0 0,0 0,0 0,0 0,0 0,0zm10 -5c0,0 0,0 0,1 -1,0 -1,0 -1,1 0,0 0,0 0,0 0,0 0,-1 1,-2zm2 -4c0,-1 0,-1 0,-1 0,0 0,0 0,0 0,0 0,0 0,0 0,0 0,0 0,1zm121 -32c0,0 0,0 0,0 0,0 0,0 0,0 0,0 0,0 0,0zm54 -16c0,0 0,0 0,0 0,0 0,0 -1,0 0,0 1,0 1,0 0,0 0,0 0,0 0,0 0,0 0,0 0,0 0,0 0,0zm3 1c0,0 0,0 0,-1 0,1 0,1 0,1zm10 -20c0,0 0,0 0,0 0,0 0,0 0,0 0,0 0,0 0,0zm10 -7c0,0 0,0 0,0 0,0 0,0 0,0 0,0 0,0 0,0zm23 13c0,0 0,0 0,-1 0,0 0,0 0,0 0,0 0,1 0,1zm115 70c0,1 0,1 0,1 0,0 0,0 0,-1 0,0 0,0 0,0zm11 9c0,0 0,0 0,0 0,0 1,0 1,0 0,0 -1,0 -1,0zm-4 17c0,0 0,0 -1,0 1,0 1,0 1,0 0,0 0,0 0,0zm3 -1c0,0 0,0 0,0 0,0 0,0 0,0 0,0 0,0 0,0zm31 18c0,0 0,0 0,0 0,0 0,0 0,0 1,0 1,0 1,0 0,0 0,0 0,0 0,0 0,0 -1,0 0,0 0,0 0,0 0,0 0,0 0,0zm12 31c0,0 0,0 0,0 0,1 1,1 1,1 0,0 0,0 0,0 0,0 -1,-1 -1,-1zm32 52c0,0 0,0 0,0 0,0 0,0 0,0 0,0 0,0 0,0zm61 273c0,0 0,0 0,0 0,0 0,0 0,0 0,0 0,0 0,0 0,0 0,0 0,0zm-25 96c0,0 0,0 0,0 0,0 0,1 0,1 -1,0 -1,0 -1,0 1,-1 1,-1 1,-1zm-87 69c0,0 0,0 0,0 0,0 0,0 0,0 0,0 0,0 0,0 0,0 0,0 0,0zm-26 46c0,0 0,0 0,0 0,0 0,0 0,0 0,0 0,0 0,0zm-87 6c0,0 0,0 0,0 0,0 0,0 0,0 0,0 0,0 0,0zm-106 35c0,0 0,0 0,0 0,0 0,0 0,0 0,0 0,0 0,0zm-129 -20c0,0 0,0 0,0 0,0 -1,0 -2,0 1,0 1,0 2,0zm-41 -37c0,0 0,0 0,0 -2,1 -2,2 -3,3 1,-1 2,-2 3,-3zm-14 18c0,0 0,0 0,0 0,0 0,0 0,0 0,0 0,0 0,0zm-42 2c0,0 -1,0 -1,0 0,0 1,0 1,0zm-4 -24l0 0c0,0 0,0 0,0l0 0zm-13 -16c0,0 -1,0 -1,0 0,0 0,0 0,0 0,0 0,0 1,0zm-67 -82c0,0 0,0 0,-1 0,0 0,1 0,1 0,0 0,0 0,0zm-57 -295c0,0 0,0 0,0 0,0 0,0 0,0 0,0 0,0 0,0zm25 -71c0,0 0,0 0,-1 0,0 1,0 1,0 0,0 0,0 0,0 0,0 0,0 -1,1zm88 -69c0,0 0,0 0,0 -1,0 -1,0 -1,0 0,0 0,0 0,0 0,0 0,0 1,0zm26 -46c0,-1 0,-1 0,-1 0,0 0,0 0,0 0,0 0,0 0,1zm87 -6c0,0 0,-1 0,-1 0,0 0,0 0,0 0,1 0,1 0,1zm106 -35c0,0 0,0 0,0 0,0 0,0 0,0 0,0 0,0 0,0zm7 -11c0,1 0,1 0,1 0,0 0,-1 0,-1 0,0 0,0 0,0zm34 -12l0 0c-1,0 -1,0 -1,0 0,0 0,0 0,0 0,0 0,0 1,0zm129 79c0,0 0,0 0,0 1,0 2,-1 2,-2 -1,1 -1,2 -2,2zm13 -17c0,0 0,-1 1,-1 0,0 0,0 0,0 0,0 -1,1 -1,1zm43 -3c0,0 0,0 0,1 0,-1 0,-1 0,-1zm4 24l0 0c0,0 0,0 0,0 0,0 0,0 0,0zm13 17c0,0 0,0 0,0 0,0 0,0 0,0 0,0 0,0 0,0zm23 17c0,0 0,0 0,0 0,0 0,0 0,0 0,0 0,0 0,0zm44 65c0,0 0,0 0,0 0,0 0,0 0,0 0,0 0,0 0,0zm56 294c0,0 0,0 0,0 0,0 0,0 0,0 0,0 0,0 0,0zm-114 138c0,0 1,0 1,-1 0,0 0,0 0,0 0,1 -1,1 -1,2 0,0 0,-1 0,-1zm-32 45c0,0 0,0 0,0 0,0 0,0 0,0 0,0 0,0 0,0zm-19 5c0,0 0,0 1,0 -1,0 -1,0 -1,0 0,0 0,0 0,0zm-289 50c0,0 0,0 0,0 0,0 0,0 0,0 0,0 0,0 0,0zm-52 -62c0,0 0,0 0,0 0,0 0,0 0,0 0,0 0,0 0,0zm-30 8c0,0 0,0 0,0 0,0 0,0 0,0zm-61 -51c0,0 0,0 0,0 0,0 0,0 0,0 0,0 0,0 0,0zm14 -497c-1,1 -1,1 -2,1 0,0 0,0 0,0 1,0 2,0 2,-1 0,0 0,0 0,0zm243 -108c0,0 0,0 0,0 0,0 0,0 0,0 0,0 0,0 0,0zm39 -3c0,0 0,0 0,0 0,0 0,0 0,0 0,0 0,0 0,0zm57 9c0,0 0,0 0,0 1,0 1,0 1,0 0,0 -1,0 -1,0zm7 33c0,0 0,0 0,0 0,0 1,0 1,0 0,0 -1,0 -1,0zm46 32c0,0 0,0 0,0 0,0 0,0 0,0 0,0 0,0 0,0zm29 -8c0,0 0,0 0,0 0,0 0,0 0,0zm131 462c0,0 0,0 0,0 0,0 0,0 0,0 0,0 0,0 0,0zm-106 126c0,0 0,1 0,1 0,0 0,0 0,-1 0,0 0,0 0,0zm-77 -12c1,0 1,0 1,0 0,0 0,0 0,0 0,0 0,0 -1,0zm-159 83c0,0 0,0 0,0 0,0 0,0 0,0 0,0 0,0 0,0 0,0 0,0 0,0zm-56 24l0 0c0,0 0,0 0,0 0,0 0,0 0,0zm-65 -104c0,0 0,0 0,1 0,-1 0,-1 0,-1 0,0 0,0 0,0zm-21 11c0,0 0,0 0,0 0,0 0,0 0,0zm-50 -31c0,0 0,0 0,0 0,0 0,0 0,0 0,0 0,0 0,0zm-8 -4c0,0 0,0 0,0 -1,0 -1,1 -1,1 0,0 0,0 0,0 0,0 1,-1 1,-1zm-93 -425c0,0 0,1 0,1 0,0 0,0 -1,0 0,0 0,0 1,-1zm105 -126c0,0 0,0 0,0 0,0 1,0 1,0 0,0 -1,0 -1,0zm28 -8c0,0 0,0 0,0 0,0 0,0 0,0 0,0 0,0 0,0zm265 -87c0,0 0,0 0,0 0,0 0,0 0,0 0,0 0,0 0,0zm24 37c0,0 0,-1 0,-1 0,0 0,0 0,0 0,0 0,1 0,1zm41 68c0,0 0,-1 0,-1 0,0 0,0 0,0 0,1 0,1 0,1zm71 20c0,0 0,0 0,0 0,0 0,0 0,0 0,0 0,0 0,0zm8 4c0,0 0,0 0,0 0,0 0,-1 1,-1 0,0 0,0 0,0 -1,0 -1,0 -1,1zm-31 537c0,0 0,0 1,0 -1,0 -1,0 -1,0zm-78 13c0,0 0,0 0,0 0,1 0,1 0,1 0,0 0,-1 0,-1zm-116 37c-1,1 -1,1 -2,2 0,-2 0,-3 -1,-4 1,1 2,2 3,2zm-76 38c0,1 0,1 0,1 0,-1 -1,-1 -1,-1 0,0 0,0 1,0zm-17 -13c0,0 0,0 0,1 0,-1 0,-1 0,-1 0,0 0,0 0,0zm-129 -107c0,0 0,0 0,0 0,0 0,0 0,0 0,0 0,0 0,0zm-20 -13c0,0 0,0 0,0 1,0 1,0 1,0 0,0 0,0 0,0 0,0 0,0 -1,0zm-3 -35l0 0c0,0 0,0 0,0l0 0zm-9 -2c0,0 0,0 -1,0 0,0 1,0 1,0 0,0 0,0 0,0 0,1 0,1 1,1 0,0 0,0 0,0 -1,0 -1,-1 -1,-1zm-23 -58c0,1 0,1 0,1 0,0 0,0 0,0 0,0 0,0 0,-1zm-26 30c0,1 0,1 0,1 0,0 0,0 0,-1zm-1 4c0,0 0,0 0,0 0,0 0,0 0,0 0,0 0,0 0,0zm-5 -1c0,0 0,0 0,0 0,0 0,0 0,0 0,0 0,0 0,0zm174 -451c0,0 0,0 -1,0 1,0 0,0 0,-1 1,1 1,1 1,1zm19 -13c0,0 0,0 0,0 0,0 0,0 0,0 0,0 0,0 0,0zm134 -65c0,0 0,0 0,0 0,0 0,0 0,0 0,0 0,0 0,0zm59 -10c0,0 0,0 0,0 0,0 0,0 1,1 -1,0 -1,-1 -1,-1zm16 14c0,-1 0,-1 0,-1 0,0 0,0 1,0 -1,0 -1,0 -1,1zm130 106c0,0 0,0 0,0 0,0 0,0 0,0 0,0 0,0 0,0zm19 14c0,0 0,0 0,0 0,0 0,0 -1,0 0,0 0,0 0,0 1,0 1,0 1,0zm4 35c0,0 0,0 0,0 0,0 0,0 0,0 0,0 0,0 0,0zm9 2c0,0 0,0 0,0 0,0 0,0 0,0 0,0 0,0 0,0 0,-1 -1,-1 -1,-1 0,0 0,0 0,0 0,0 0,0 1,1zm23 57c0,0 0,0 0,0 0,0 0,0 0,0 0,0 0,0 0,0zm25 -30c1,0 1,0 1,-1 0,1 0,1 -1,1zm1 -4c0,0 0,0 0,0 0,0 0,0 0,0 0,0 0,0 0,0zm5 1c0,0 0,0 0,0 0,0 0,1 0,1 0,-1 0,0 0,-1zm-20 360c0,0 0,0 0,-1 0,0 0,0 0,0 0,1 0,1 0,1zm-17 16c0,0 0,0 0,0 0,0 0,0 0,0 0,0 0,0 0,0zm-47 31c0,0 0,0 0,0 0,0 0,0 0,0 0,0 0,0 0,0zm-1 2c0,0 0,0 0,0 0,0 0,0 0,0 0,0 0,0 0,0zm-5 16c0,-1 0,-1 0,-1 0,0 0,0 0,0 0,0 0,0 0,1 0,0 0,0 0,0zm-52 47c0,0 0,0 0,0 0,0 1,0 1,0 0,0 -1,0 -1,0zm4 6c0,0 0,0 0,0 0,0 0,0 0,0 0,0 0,0 0,0zm-20 -5c0,0 0,0 0,0 0,0 0,0 0,0 0,0 0,0 0,0zm-23 -3c0,0 0,0 0,0 0,0 0,0 0,0 0,0 0,0 0,0 0,0 0,0 0,0zm-14 -13c0,0 0,0 0,0 0,0 0,0 0,0 0,0 0,0 0,0zm-173 72c0,0 0,0 0,0 0,0 0,0 0,0 0,0 0,0 0,0zm-15 19c0,0 0,0 0,0 0,0 0,0 0,0 0,0 0,0 0,0zm-122 -98c0,0 0,0 0,0 0,0 0,0 0,0 0,0 0,0 0,0zm-1 -2c0,0 0,0 0,0 0,0 0,0 0,0 0,0 0,0 0,0zm-25 -30c0,0 0,0 0,0 0,0 0,0 0,0 0,0 0,0 0,0zm-66 -433c0,0 0,0 0,0 0,0 0,0 -1,0 1,0 0,0 1,0zm17 -16c0,0 0,0 0,0 0,0 0,0 0,0 0,0 0,0 0,0zm47 -31c0,0 0,0 0,0 0,0 0,0 0,0 0,0 0,0 0,0zm1 -2c0,0 0,0 0,0 0,0 0,0 0,0 0,0 0,0 0,0zm4 -16c0,0 0,1 0,1 0,0 0,0 0,0 0,0 0,-1 0,-1 0,0 0,0 0,0zm25 -26c0,0 0,-1 0,-1 0,0 0,1 0,1zm27 -21c0,0 1,0 1,0 -1,0 -1,0 -1,0 0,0 0,0 0,0zm-6 -7c0,0 0,0 0,0 0,0 0,0 0,0 0,0 0,0 0,0zm3 1c0,0 -1,0 -1,0 0,0 0,0 0,0 1,0 1,0 1,0zm43 8c0,0 0,0 0,0 0,0 0,0 0,0 0,0 0,0 0,0 0,0 0,0 0,0zm13 12c0,0 0,0 0,0 0,0 0,0 0,0 0,0 0,0 0,0zm115 -43c0,-1 1,-1 2,-2 -1,2 0,2 0,3 -1,0 -1,-1 -2,-1zm58 -28c0,0 0,0 0,0 0,0 0,0 0,0l0 0zm137 78c0,0 0,0 0,0 0,0 0,0 0,0 0,0 0,0 0,0zm1 3c0,0 0,0 0,-1 0,0 0,0 0,0 0,0 0,0 0,1zm26 29c0,0 0,0 0,0 0,0 0,0 0,0 0,0 0,0 0,0zm83 416c0,0 0,0 0,0 0,0 0,0 0,0 0,0 0,0 0,0zm-13 3c1,1 1,0 1,0 0,1 0,1 -1,1 0,0 0,0 0,-1zm-85 92c0,0 0,0 1,0 -1,0 -1,0 -1,0zm-88 22c0,0 0,0 0,0 -1,0 -1,0 -1,0 0,0 0,-1 1,-1 0,0 0,0 0,1 0,0 0,0 0,0zm-128 36c0,0 0,0 0,0 0,0 0,0 -1,0 0,0 1,0 1,0zm-17 15c0,0 0,0 1,0 -1,0 -1,0 -1,0 0,0 0,0 0,0zm-117 -67c0,0 0,0 0,0 0,0 0,0 0,0 0,0 0,0 0,0zm-25 2c0,0 0,0 0,0 0,0 0,0 0,0 0,0 0,0 0,0zm-133 -121c0,0 0,0 0,-1 0,0 0,0 0,0 0,0 0,0 0,0 0,0 0,0 0,0 1,1 1,1 2,2 0,0 0,0 0,0 -1,-1 -1,-1 -2,-1zm-5 -321c0,0 0,0 0,0 0,0 0,0 0,0 0,0 0,0 0,0zm12 -4c0,0 0,0 -1,0 1,0 1,0 1,0 0,0 0,0 0,0zm41 -19c0,0 0,0 0,0 0,0 0,0 0,0 0,0 0,0 0,0zm44 -72c0,0 0,-1 0,-1 0,0 0,1 0,1zm57 -36c0,0 0,0 0,0 0,0 0,0 0,0 0,0 0,0 0,0zm32 14c0,0 0,0 0,0 0,0 0,0 0,0 0,0 0,0 0,0 0,0 0,0 0,0 0,0 0,0 0,0zm144 -51c0,0 0,0 0,0 0,0 0,0 0,0 0,0 0,0 0,0zm143 65c0,0 0,0 0,0 0,0 0,0 -1,0 1,0 0,0 1,0zm132 121c0,0 0,0 0,0 0,0 0,0 0,0 0,0 0,0 0,0 0,1 0,1 0,1 0,-1 0,-1 0,-1 0,0 -1,-1 -1,-1 0,0 0,0 0,0 0,0 1,1 1,1zm23 249c0,0 0,0 0,0 0,0 0,0 0,0 0,0 0,0 0,0zm-1 0c0,0 1,0 1,0 0,0 0,0 0,0 0,0 0,0 0,0 0,0 1,0 0,0 0,0 -1,0 -1,0 0,0 0,0 0,0zm-7 0c0,0 0,0 0,0 0,0 1,0 1,0 0,0 0,0 0,0 0,0 0,0 0,0 0,0 0,0 1,0 0,0 -1,0 -1,0 0,0 0,0 0,0 0,0 -1,0 -1,0zm-15 10c0,0 1,0 1,0 0,0 0,0 0,0 -1,0 -1,0 -1,0zm-28 50c0,0 0,0 0,0 0,1 0,1 0,1 0,0 0,0 0,-1zm-16 35c0,0 0,0 0,0 0,0 0,0 0,0 0,0 1,0 0,0 1,0 1,0 1,0 0,0 0,0 0,0 -1,0 -1,0 -1,0zm-4 0c0,0 0,0 0,0 0,0 0,0 0,0 0,0 0,0 0,0zm-2 -1c0,0 0,0 0,0 0,0 0,0 0,0 0,0 0,0 0,0zm-89 107c0,0 0,0 0,0 0,0 0,0 0,0 0,0 0,1 0,1 0,0 0,0 0,0 0,0 0,-1 0,-1zm-225 64c0,0 0,0 0,0 0,0 0,0 0,0 0,0 0,0 0,0zm-1 -2c0,0 0,-1 0,-1 0,0 0,0 0,0 0,0 0,1 0,1 0,0 0,0 0,0zm-23 -27c-1,1 -1,0 -2,0 1,1 2,1 2,0zm-28 -46c0,0 0,1 0,1 0,0 0,-1 0,-1zm-65 -21c0,0 0,0 0,0 0,0 -1,0 -1,0 0,0 1,0 1,0zm-123 -128c0,0 0,0 0,0 1,0 1,0 1,1 0,0 -1,0 -1,0 0,-1 0,-1 0,-1zm-17 -237c-1,0 -1,0 -1,0 -1,0 -1,0 -1,1 0,0 0,0 0,0 0,0 0,0 0,0 0,0 0,0 0,0 1,0 0,0 0,-1 1,0 1,0 2,0 0,0 0,0 0,0zm6 1c0,0 0,0 0,0 0,0 0,0 0,0 0,0 0,0 0,0 0,-1 0,0 0,-1 -1,0 -1,0 -1,0 0,0 0,0 1,0 0,0 0,0 0,1 0,0 0,0 0,0zm16 -10c-1,0 -1,0 -2,0 0,0 1,0 1,-1 0,1 0,1 1,1zm27 -51c0,0 0,0 0,0 0,0 0,0 1,0 0,0 -1,0 -1,0zm16 -34c0,0 0,0 0,0 0,0 0,0 0,0 0,0 0,0 0,0 0,0 0,0 0,0zm6 1c0,0 0,0 0,0 0,0 0,0 0,0 0,0 0,0 0,0zm90 -107c0,0 0,0 0,0 0,0 0,0 0,0 0,-1 0,-1 0,-1 0,0 0,0 0,0 0,0 0,0 0,1zm169 -24c0,0 0,0 0,0 0,0 0,0 0,0 0,0 0,0 0,0zm55 -40c0,0 0,0 0,0 0,0 0,0 0,0 0,0 0,0 0,0zm1 2c0,0 0,0 0,0 0,0 0,0 0,0 0,0 0,0 0,0 0,0 0,0 0,0zm23 27c1,-1 2,0 3,0 -1,-1 -2,-1 -3,0zm216 194c0,0 0,0 0,0 0,0 0,0 0,0 0,0 0,0 0,0zm11 237c0,0 0,0 0,0 0,0 0,0 1,0 -1,0 -1,0 -1,0 0,0 0,0 0,0zm-80 103c-1,2 0,2 0,3 0,0 -1,-1 -1,-1 0,-1 0,0 -1,-1 1,0 1,0 2,-1zm-426 63c1,0 1,0 1,0 -1,0 -1,0 -1,0 0,0 0,0 0,0zm-29 -38c0,0 0,0 0,0 0,0 0,0 0,0 0,0 0,0 0,0zm-49 -113l0 0c0,0 0,0 0,-1l0 0c0,0 0,1 0,1zm-4 -12c0,0 0,0 0,0 0,0 0,0 0,0 0,0 0,0 0,0zm-42 -198c0,0 0,0 0,0 0,0 0,0 0,0 0,0 0,0 0,0 0,0 0,0 0,0zm81 -104c0,-1 0,-1 0,-2 0,0 0,0 0,1 0,0 1,0 1,0 0,1 -1,1 -1,1zm110 -65c0,0 0,0 0,0 0,0 0,0 0,0 0,0 0,0 0,0zm176 -58c0,0 0,0 0,0 0,0 0,0 0,0 0,0 0,0 0,0 0,0 0,0 0,0 0,0 0,0 0,0zm64 37c0,-1 0,-1 1,-1 -1,0 -1,1 -1,1zm75 24c0,0 0,0 0,0 0,0 0,0 0,0 0,0 0,0 0,0zm30 38c0,0 0,0 0,0 0,0 0,0 0,0 0,0 0,0 0,0zm52 125c0,0 0,0 0,0 0,0 0,0 0,0 0,0 0,0 0,0zm34 204c0,0 0,0 0,0 0,0 0,0 0,0 0,0 0,0 0,0zm-46 68c0,0 0,0 0,0 -1,0 -1,0 -1,0 0,0 1,0 1,0 0,0 0,0 0,0 0,0 0,0 0,0 0,0 0,0 0,0zm-85 99c0,-1 0,-1 0,-1 0,0 0,0 0,1zm-227 54c0,0 0,0 0,0 0,0 0,0 0,0 0,0 0,0 0,0zm-36 -4c0,0 0,0 0,0 0,0 0,0 0,0 0,0 0,0 0,0zm-31 -49c0,0 0,0 0,0 0,0 0,0 0,0zm-8 6c1,0 1,1 1,1 0,0 0,-1 -1,-1zm-9 -20c-1,0 -1,0 -1,0 0,0 0,0 0,0 0,0 0,0 1,0zm-17 -26c0,0 0,0 0,0 0,0 0,0 0,0 0,0 0,0 0,0zm-18 6c0,0 0,0 0,0 0,0 0,0 1,0 -1,0 -1,0 -1,0zm-45 -58c0,0 0,0 0,0 0,0 0,0 0,0 0,0 0,0 0,0zm-90 -51l0 0c0,0 0,0 0,0 0,0 0,0 0,0 0,0 0,0 0,0 0,0 0,0 0,0 0,0 0,0 0,0zm-2 -232c0,0 0,0 0,0 0,0 0,0 0,0 0,0 0,0 0,0zm47 -69c0,0 0,0 0,1 0,-1 0,0 0,0 0,0 0,0 0,0 0,0 0,0 0,0 0,0 0,-1 0,-1 0,0 0,0 0,0zm306 -155c0,0 0,0 0,0 0,0 0,0 0,0 0,0 0,0 0,0zm107 96c0,0 0,0 0,0 0,0 0,0 0,0 0,0 0,0 0,0zm17 -7c0,0 0,0 0,0 0,0 0,0 0,0 0,0 0,0 0,0zm46 58c0,0 0,0 0,0 0,0 0,0 0,0 0,0 0,0 0,0zm53 70c0,0 0,0 0,0 0,0 0,0 0,0 0,0 0,0 0,0zm37 -19c0,0 -1,1 -1,1l0 0c0,0 0,0 0,0 0,0 0,0 0,0 0,0 0,-1 0,-1 0,0 1,0 1,0zm-43 271c0,0 1,-1 2,-1 -1,1 -1,1 -2,1zm-29 38c0,0 0,0 0,0 0,0 0,0 0,0 0,0 0,0 0,0zm-265 125c1,0 2,1 3,1 -1,0 -2,1 -3,1 0,-1 0,-1 0,-2zm-9 17c0,0 0,0 0,0 0,0 0,-1 0,-1 0,0 0,0 0,1zm-1 -5c0,0 0,1 0,1 0,0 0,0 0,0 0,0 0,-1 0,-1zm-44 2c0,0 0,0 0,1 0,0 0,-1 0,0 0,-1 0,-1 0,-1zm-61 -89c0,0 0,0 0,0 0,0 0,0 0,0 0,0 0,0 0,0zm-44 27c0,0 0,0 0,0 0,0 0,0 0,0 0,0 0,0 0,0zm-32 -43c0,0 0,0 0,0 1,0 1,0 2,-1 0,0 0,0 0,1 -1,-1 -1,0 -2,0zm-12 -58c0,0 0,0 0,0 0,0 -1,0 -1,0 0,0 0,0 1,0zm-34 -49c0,1 -1,1 -1,1 0,0 0,0 0,0 0,0 1,0 1,-1 0,0 0,0 0,0zm6 -248c-1,0 -2,0 -2,1 0,-1 1,-2 2,-1zm29 -39c0,0 0,0 0,0 0,0 0,0 0,0 0,0 0,0 0,0zm264 -124c0,-1 -1,-1 -2,-1 1,-1 2,-1 3,-1 0,1 0,1 -1,2zm9 -17c0,0 0,0 0,0 0,0 0,0 0,1 0,0 0,-1 0,-1zm2 4c0,0 0,0 0,0 0,0 0,0 0,0 0,0 0,0 0,0zm5 -8c0,0 0,0 0,0 0,0 0,0 0,0 0,0 0,0 0,0zm10 19c0,0 0,-1 0,-1 0,0 0,1 0,1 0,0 0,0 0,0zm29 -12c0,-1 0,-1 0,-1 0,0 0,0 0,0 0,0 0,0 0,1zm2 -2l0 0c0,0 0,0 0,0 0,0 0,0 0,0zm11 28c0,0 0,0 0,0 0,0 0,0 0,0 0,0 0,0 0,0zm19 21c0,0 0,0 1,0 -1,0 -1,0 -1,0zm8 -6c0,-1 0,-1 -1,-1 1,0 1,0 1,1zm21 48c0,0 0,0 0,0 0,0 0,0 0,0 0,0 0,0 0,0zm44 -27c0,0 0,0 0,0 0,0 0,0 0,0 0,0 0,0 0,0zm31 43c0,0 0,0 0,0 0,0 -1,0 -1,0 0,0 0,0 0,0 0,0 1,0 1,0zm12 58c1,-1 1,-1 1,-1 0,1 0,1 1,1 -1,0 -1,0 -2,0zm43 293c0,1 0,1 0,1 0,0 0,0 0,0 0,0 0,-1 0,-1zm-26 17c0,0 0,0 0,0 0,0 0,0 0,0zm-17 24c0,0 0,0 1,0 -1,0 -1,0 -1,1 0,0 0,-1 0,-1zm-26 18c0,0 0,0 0,0 0,0 0,0 0,0 0,0 0,0 0,0 0,0 0,0 0,0 0,0 0,0 0,0 0,0 0,0 0,0zm-59 28c0,0 -1,0 -1,0 1,0 1,0 1,0zm-22 4c0,0 1,0 1,0 0,1 0,1 0,1 0,0 -1,-1 -1,-1zm-149 77c0,0 0,0 0,1 0,-1 -1,-1 -1,-1 0,0 1,0 1,0zm-34 1c0,0 0,0 0,0 -1,0 0,0 -1,0 0,0 0,0 1,0zm-30 0c0,0 0,0 0,1 0,0 0,0 0,0 0,0 -1,-1 -1,-1 0,0 0,0 1,0zm-9 -19c0,0 0,-1 0,-1 0,0 1,0 1,0 0,0 -1,1 -1,1zm-35 -37c0,0 0,0 0,0 0,0 -1,0 -1,1 0,0 0,-1 0,-1 1,0 1,0 1,0zm-44 -28c0,0 0,0 0,0 0,0 0,0 0,0 0,0 0,0 0,0zm-5 14c0,0 0,0 0,0 0,0 0,0 0,0 0,0 0,0 0,0zm-4 0c0,0 0,0 0,0 0,0 0,0 -1,0 1,0 1,0 1,0zm-12 -4c0,-1 0,-1 0,-2 0,0 0,0 0,0 0,0 0,1 0,2l0 0zm-10 -6c0,0 0,0 0,0 0,0 0,0 0,0zm-5 -59c1,0 1,0 1,0 -1,0 -1,0 -2,1 0,-1 1,-2 1,-1zm-72 -290c0,0 0,1 0,1l0 0c0,0 0,-1 0,-1 0,0 0,0 0,0zm6 -16c-1,0 -1,0 -1,0 0,0 0,0 1,0 0,0 0,0 0,0zm26 -17c0,0 0,0 0,1 0,-1 0,-1 0,-1zm0 -6c0,0 0,0 0,0 0,0 0,0 0,0 0,0 0,0 0,0zm17 -18c-1,0 -1,0 -1,0 0,0 1,0 1,0 0,0 0,0 0,0zm25 -17c0,0 0,0 0,0 0,0 0,0 0,0 0,0 0,0 0,0 0,0 0,0 0,0 0,0 0,0 0,0 0,0 0,0 0,0 0,0 0,0 0,0 0,0 0,0 0,-1 0,1 0,1 0,1 1,0 1,0 1,0 -1,0 0,0 -1,0zm37 -42c0,0 0,0 0,0 0,0 0,0 0,0 0,0 0,0 0,0zm-8 -12c-1,0 -1,0 -1,0 0,0 0,0 0,0 0,0 1,0 1,0zm202 -55c0,-1 0,-1 0,-1 0,0 0,0 0,1 0,0 0,0 0,0zm64 -1c0,-1 0,-1 0,-1 0,0 0,0 0,0 0,0 0,0 0,0 0,0 0,1 0,1zm43 56c0,0 0,0 0,0 1,0 1,0 1,-1 0,0 0,0 0,0 0,0 0,1 -1,1zm44 28c0,0 0,0 0,0 0,0 0,0 0,0 0,0 0,0 0,0zm6 -14c0,0 0,0 0,0 0,0 0,0 0,0 0,0 0,0 0,0zm4 0c0,0 0,0 0,0 0,0 0,-1 0,-1 0,0 0,1 0,1zm12 4c0,1 -1,1 -1,2 0,0 0,0 0,0 1,-1 1,-1 1,-2l0 0zm9 5c0,0 1,1 1,1 0,0 -1,-1 -1,-1zm5 60c0,0 0,0 -1,0 1,0 2,-1 3,-1 -1,1 -1,2 -2,1zm22 330c0,0 0,0 0,0 0,0 0,0 0,0 0,0 0,0 0,0zm-307 158c0,0 0,0 0,0 0,0 -1,-1 -1,-1 1,0 1,1 1,1zm-23 -39c0,0 0,0 0,0 0,0 0,0 0,0l0 0c0,0 0,0 0,0zm-19 -17c0,0 0,0 0,0 0,0 0,0 0,0zm-100 -68l0 0c0,0 0,0 0,0 0,0 0,0 0,0zm14 3c0,0 0,0 0,0 0,0 0,0 0,0 0,0 0,0 0,0zm-28 -362c0,0 -1,0 -1,-1 0,0 0,1 1,1 0,0 0,0 0,0zm70 -99c0,0 0,-1 0,0 0,0 0,0 0,1 0,-1 0,-1 0,-1zm13 37c0,0 0,0 0,0 0,0 0,0 0,0zm21 -4c0,-1 0,-1 0,-1 0,0 0,0 0,0 0,0 0,0 0,1zm203 -92c0,0 0,0 0,0 0,0 0,0 0,0 0,0 0,0 0,0zm19 33c0,0 0,0 0,0 0,0 0,0 0,0 0,0 0,0 0,0zm108 88c0,0 0,0 0,0 0,0 0,0 0,0 0,0 0,0 0,0zm48 322c0,0 0,0 0,0 0,0 0,0 0,0 0,0 0,0 0,0zm3 9c0,0 0,0 0,0 0,0 0,0 0,0zm-322 177c0,0 0,0 0,0l0 0c0,0 0,0 0,0 0,0 0,0 0,0 0,0 0,0 0,0 0,0 0,0 0,0 0,0 0,0 1,0 -1,0 -1,0 -1,0zm-117 -82l0 0zm-66 -349c0,0 0,0 0,0 0,0 0,0 0,0 0,0 0,0 0,0zm-2 -9c0,0 0,0 0,0 0,0 0,0 0,0zm281 -152c-1,-1 -1,-2 -2,-2 0,0 0,0 0,0 1,1 1,1 2,2 0,0 0,0 0,0zm16 -28c0,0 0,0 0,0 0,0 0,0 0,0 0,0 0,0 0,0zm24 3c0,0 0,0 0,0 0,0 0,-1 0,-1 0,0 0,1 0,1zm30 26c0,0 0,0 0,0 0,0 0,0 0,0 0,0 0,0 0,0zm20 18c0,0 0,0 0,-1 0,1 0,1 0,1zm68 37c0,0 0,0 0,0 0,0 0,0 0,0 0,0 0,0 0,0zm-18 427c0,0 0,0 0,0 0,0 0,0 0,0 0,0 0,0 0,0zm-56 -5c-1,0 -1,0 -2,0 1,0 1,0 2,0zm-178 113c0,0 0,0 0,0 0,0 0,0 0,0 0,0 0,0 0,0zm-31 -37c0,0 0,0 0,0 0,0 1,0 1,0 0,0 0,0 0,0 -1,0 -1,0 -1,0l0 0c0,0 0,0 0,0zm-80 -77c0,0 0,0 0,0 0,0 0,0 0,0 0,0 0,0 0,0zm-1 17c0,0 0,0 0,0 0,0 0,0 0,0 0,0 0,0 0,0zm-19 11l0 0 0 0zm86 -416c0,0 1,0 1,0 0,0 -1,0 -1,0zm177 -113c0,0 0,0 0,0 0,0 0,0 0,0 0,0 0,0 0,0zm112 114c0,0 0,0 -1,0 0,0 0,0 0,0 1,0 1,0 1,0zm19 -28c0,0 0,0 0,0 0,0 0,0 0,0 0,0 0,0 0,0zm-29 417c0,0 0,0 0,0 0,0 0,0 0,0 0,0 0,0 0,0zm-299 8c0,0 0,0 0,0l0 0c0,0 0,0 0,0 0,0 0,0 0,0zm-29 -15c0,0 0,0 0,0 0,0 0,0 0,0 1,0 0,0 0,0zm0 3c0,0 0,0 0,0 0,0 0,0 0,0zm-33 23c0,0 0,0 0,0 0,0 0,0 0,0 0,0 0,0 0,0zm26 -414c0,0 0,0 0,0 0,0 0,0 0,0 0,0 0,0 0,0zm264 -71c0,0 0,0 0,0 0,0 0,0 0,0 0,0 0,0 0,0 0,0 0,0 0,0l0 0c0,0 0,0 0,0zm4 5l0 0c0,0 0,0 0,0 0,0 0,0 0,0zm30 62c0,0 0,0 0,0l0 0c0,0 0,0 0,0 0,0 0,0 0,0zm29 14c0,1 0,0 1,1 -1,0 -1,0 -1,0 0,0 0,0 0,-1zm33 -25c0,0 0,0 0,0 0,0 0,0 0,0 0,0 0,0 0,0zm-299 460c0,0 0,0 0,0 0,0 0,0 0,0 0,0 0,0 0,0zm-61 -441c0,0 0,0 0,0 0,0 0,0 0,0 0,0 0,0 0,0zm238 -99c0,0 0,0 0,0 0,0 0,0 0,0 0,0 0,0 0,0zm-95 534c0,1 0,1 -1,1 0,0 0,0 0,-1 0,1 0,0 1,0zm-79 -11c0,0 0,0 0,1 0,-1 0,-1 0,-1 0,0 0,0 0,0zm-26 -31c0,0 0,0 0,0 0,0 0,0 0,0 0,0 0,0 0,0zm-13 -5c0,0 0,0 0,0 0,0 0,0 0,0zm-12 -19c0,0 0,0 0,0 0,0 0,0 1,0 -1,0 -1,0 -1,0 1,0 1,0 1,0 0,0 0,0 0,0 0,0 0,0 0,1 -1,-1 -1,-1 -1,-1 0,0 0,0 0,0 0,0 0,0 0,0zm-39 33c1,0 1,0 1,0 0,0 0,0 -1,0 0,0 0,0 0,0zm253 -482c0,0 0,0 0,0 0,0 0,-1 0,-1 0,1 0,1 0,1zm46 30c0,0 0,0 0,0 0,0 0,-1 0,-1 0,1 0,1 0,1zm23 48c0,0 0,0 0,0 0,0 0,0 0,0 0,0 0,0 0,0zm13 5c0,0 1,0 1,0 0,0 -1,0 -1,0zm12 19c0,0 0,0 0,0 0,0 0,0 0,-1 0,0 0,0 0,0 0,0 0,0 0,0 0,0 0,0 0,0 0,0 0,0 0,0 0,0 0,0 1,1 0,-1 -1,-1 -1,-1 0,1 0,1 0,1zm39 -33c0,0 0,0 0,0 0,0 0,0 0,-1 0,1 0,1 0,1zm-49 370c0,0 0,0 0,0 0,0 0,0 0,0l0 0c0,0 0,0 0,0zm-174 68c0,0 0,0 0,0 0,0 0,0 0,0 0,0 0,0 0,0 0,0 0,0 0,0zm-30 44c0,0 0,0 0,0 0,0 0,0 0,0 0,0 0,0 0,0zm-67 -83c0,0 0,0 0,0 0,1 1,1 0,2 0,0 0,0 0,0 1,-1 1,-1 0,-2zm-55 -11c1,0 1,0 2,-1 0,0 0,1 0,1 -1,-1 -1,0 -2,0zm-6 15c0,0 0,0 0,0 0,0 0,0 0,0 0,0 0,0 0,0zm213 -437c0,0 0,0 0,0 0,0 0,0 1,0 -1,0 -1,0 -1,0zm10 -2c0,0 0,0 0,0 -1,-1 -1,-2 -3,-2 0,0 0,0 0,0 1,1 2,2 3,2zm21 -23l0 0c0,0 0,0 0,0 0,0 0,0 0,0zm5 2c0,0 0,0 -1,-1 1,1 1,1 1,1zm42 35c1,0 0,-1 0,-1 0,0 0,1 1,1 0,0 0,0 -1,0zm24 35c0,0 0,0 0,0 0,0 0,-1 0,-1 0,0 0,0 0,0 -1,0 0,1 0,1zm23 21c0,0 0,0 0,0 0,0 0,0 0,0 0,0 0,0 0,0zm32 -9c0,0 -1,0 -1,0 0,0 0,0 0,0 0,0 1,0 1,0zm7 -15c0,0 0,0 0,0 0,0 0,0 0,0 0,0 0,0 0,0zm-249 460c0,0 0,0 0,0 0,0 0,0 0,0zm-115 -90c0,0 0,0 0,0 0,0 0,0 0,0 0,0 0,0 0,0zm31 -337c0,0 0,0 0,0 0,0 0,0 0,0 0,0 0,0 0,0 0,0 0,0 0,0zm174 -68c0,0 0,0 0,0 0,0 0,0 0,0 0,0 0,0 0,0 0,0 0,0 0,0zm-63 430c0,0 0,0 0,0 0,0 0,0 0,0zm-18 43c0,0 0,0 -1,0 1,0 1,0 1,0 0,0 0,0 0,0zm-107 -110c0,0 0,0 0,0 0,0 0,0 0,0 0,0 0,0 0,0zm191 -331c1,0 1,0 1,0 0,0 0,0 -1,0zm19 -43c0,0 0,0 0,0 0,0 0,1 0,1 0,0 0,-1 0,-1zm14 -11c0,-1 0,-1 -1,-1 1,0 1,0 1,1zm93 122c0,0 0,0 0,0 0,0 0,0 0,0 0,0 0,0 0,0zm-235 389c0,0 0,0 0,0 0,0 0,0 0,0 0,0 0,0 0,0zm-9 -15c0,0 0,0 0,0 0,0 0,0 0,0 0,0 0,0 0,0zm-58 -69c0,0 0,0 0,0 0,0 1,1 1,1 0,0 0,0 0,0 0,0 0,-1 -1,-1 0,0 0,0 0,0 0,0 0,0 0,0zm196 -415c0,0 0,0 0,0 0,0 0,0 0,0 0,0 0,0 0,0zm13 -5c1,1 0,3 -1,4 0,0 0,0 0,0 0,-1 1,-2 1,-4 0,0 0,0 0,0zm11 -11c0,0 0,0 0,0 0,0 0,0 0,0 0,0 0,0 0,0zm35 61c0,0 0,0 0,0 0,0 0,0 0,0 0,0 0,0 0,0zm31 23c0,0 0,0 0,0 0,-1 0,-1 0,-1 0,0 0,0 0,0 0,0 0,1 0,1 0,0 0,0 0,0 0,0 0,0 0,0zm-208 416c0,0 0,0 0,-1 0,2 0,3 -1,4 0,-1 0,-2 1,-3zm0 12c0,0 -1,-1 -1,-1 0,0 1,1 1,1zm-31 -39c0,0 0,1 0,1 0,-1 0,-1 0,-1zm-39 -47c0,0 0,0 0,0 -1,1 -2,2 -1,3 0,0 0,0 0,0 1,-1 1,-2 1,-3zm212 -417c0,0 0,0 0,0 0,0 0,0 0,0 0,0 0,0 0,0 0,0 0,0 0,0 0,0 0,0 0,0 0,0 0,0 0,0zm9 5c0,0 0,0 0,0 0,0 0,0 0,0 0,0 0,0 0,0zm49 74c0,0 0,0 0,0 2,0 2,-1 1,-3 0,0 1,0 1,0 -1,1 -1,2 -2,3zm-164 341c0,0 -1,1 -1,0 0,0 1,0 1,0zm0 9c0,0 0,0 0,0 0,0 0,0 0,1 0,-1 0,-1 0,-1zm-47 67c0,0 0,0 0,0 0,0 0,0 0,0 0,0 0,0 0,0 0,0 0,0 0,0 0,0 0,0 0,0 0,0 0,0 0,0zm-4 -17c0,0 0,0 0,0 0,0 0,0 0,0 0,0 0,0 0,0zm109 -403c1,0 1,0 1,0 0,0 0,0 -1,0zm67 -43c0,-1 1,-1 1,-1 0,0 0,1 -1,1zm6 26c0,0 0,0 0,0 0,-1 0,-1 0,-1 0,0 0,0 0,0 0,0 0,0 0,1zm1 1c1,0 2,0 2,1 0,-1 -1,-1 -2,-1zm-188 413c0,0 0,0 0,0 0,0 0,0 0,0 0,0 0,0 0,0zm-17 -35c0,0 0,0 0,0 0,0 0,1 0,1 0,0 0,0 0,0 0,0 0,-1 0,-1zm-1 -1c-1,0 -1,-1 -1,-1 0,0 0,1 1,1zm184 -419c0,0 0,0 0,0 0,0 0,0 0,0 0,0 0,0 0,0zm-94 344c-1,0 -1,1 -1,1 0,0 0,-1 0,-1 1,0 1,0 1,0zm-114 54c0,0 0,0 0,0 0,0 0,0 0,0 0,0 0,0 0,0zm140 -282c1,0 1,0 2,0 -1,0 -1,0 -1,0 0,0 0,0 -1,0zm58 -86c0,0 0,0 0,0 0,0 0,1 0,1 0,0 0,0 0,0 0,0 0,-1 0,-1zm15 -24c0,0 0,0 -1,-1 1,1 1,1 1,1 0,0 0,0 0,0zm42 57c0,-1 0,0 0,0 0,-1 0,-1 0,-1 0,0 0,0 0,1zm-189 347c0,0 0,0 0,0l0 0c0,0 0,0 0,0zm-10 20c0,0 0,0 0,0 0,0 0,0 0,0 0,0 0,0 0,0 0,0 0,0 0,0zm0 20c0,0 0,0 0,0 0,0 0,0 0,0zm-5 4c0,0 0,0 0,0 0,0 0,0 0,0 0,0 0,0 0,0zm-18 -26c0,0 0,0 0,0 0,0 0,0 0,0 0,0 0,0 0,0zm-19 -35c1,0 1,0 1,0 0,0 0,0 0,0 0,0 0,0 -1,0zm175 -342c0,0 0,0 0,0 0,0 0,0 0,0 0,0 0,0 0,0zm32 -18c0,0 0,0 0,0 0,0 0,0 1,0 -1,0 -1,0 -1,0zm19 35c0,0 0,0 0,0 0,0 0,0 0,0 0,0 0,0 0,0zm-181 309c-1,0 -1,0 -1,0 1,0 1,0 1,0 0,0 0,0 0,0zm-19 47c0,0 0,0 0,0 0,0 0,0 0,0 0,0 0,0 0,0zm156 -340c0,0 0,0 0,0 0,0 0,0 0,0 0,0 0,0 0,0zm3 -73c0,0 0,0 0,0 0,0 0,0 0,0zm5 -4c0,0 0,0 0,0 0,0 0,0 0,0 0,0 0,0 0,0zm53 68c0,0 0,0 0,0 0,0 0,0 0,0 0,0 0,0 0,0zm-143 254c0,0 0,0 0,0 0,0 0,0 0,-1 0,1 0,0 0,1zm-53 84c-1,0 -1,0 0,-1 0,1 0,1 0,1 0,0 0,0 0,0zm79 -281c0,0 0,0 0,0 0,0 0,0 0,0 0,0 0,0 0,0zm54 -84c0,0 0,0 0,0 0,0 0,0 0,0 0,0 0,0 0,0zm-137 295c0,0 0,0 0,0 0,0 0,0 0,0zm-45 13c0,0 0,0 0,0 0,0 0,0 0,0l0 0c0,0 0,0 0,0 0,0 0,0 0,0 0,0 0,0 0,0zm185 -238c0,0 0,0 0,0 0,0 0,0 0,0zm46 -13c0,0 0,0 0,0l0 0 0 0 0 0c0,0 0,0 0,0 0,0 0,0 0,0zm-110 233c0,0 0,1 0,1 0,0 0,0 0,-1 0,0 0,0 0,0zm-85 72c-1,0 -1,-2 -1,-3 0,1 0,2 1,3zm-2 -7l0 0zm0 2c0,0 0,0 0,0 0,0 0,0 0,0 0,0 0,0 0,0zm-37 -72c0,0 0,0 0,0 0,0 0,-1 -1,-2 1,0 1,1 1,2zm113 -211c0,0 0,0 0,0 0,0 0,0 0,0 0,0 0,0 0,0zm123 6c0,0 0,0 0,0 0,0 1,1 1,2 0,-1 0,-2 -1,-2zm-104 229c0,0 0,0 0,0 0,0 0,0 0,0 0,0 0,0 0,0zm-28 -253c0,0 0,0 0,0 0,0 0,0 0,0 0,0 0,0 0,0zm-98 218l0 0c0,0 0,0 0,0l0 0zm195 -209c0,1 0,1 0,2 0,0 0,1 -1,0 0,0 0,-1 1,-2zm-165 234c0,0 -1,-1 -1,-1 0,0 1,-1 1,-1 0,1 0,2 0,2zm190 -249c0,0 0,0 0,0 0,0 0,0 0,0 0,0 0,0 0,0 0,0 0,0 0,0zm-27 -44c0,-2 -1,-2 -2,-3 1,0 2,1 2,3zm1 1c0,0 0,0 0,0 0,0 0,0 0,0 0,0 0,0 0,0zm-189 308c0,0 0,0 0,0 0,0 0,0 0,0 0,0 0,0 0,0 0,0 0,0 0,0zm195 -326c0,0 0,0 0,0 0,0 0,0 0,0 0,0 0,0 0,0 0,0 0,0 0,0 0,0 0,0 0,0 0,0 0,0 0,0zm-183 373c0,0 0,0 1,0 0,0 -1,0 -1,0 0,0 0,0 0,0zm190 -359c0,0 0,-1 0,-1 0,0 0,0 0,0 0,0 0,1 0,1zm-6 -36c0,-1 -1,-1 -2,-2 1,0 1,-1 2,0 1,0 1,1 0,2zm-176 409c0,0 0,0 0,0 0,0 0,0 0,0 0,0 0,0 0,0zm210 -357c0,0 0,0 0,0 0,0 0,0 0,0 0,0 0,0 0,0zm-245 327c-1,0 0,0 -1,0 1,0 1,0 1,0 0,0 0,0 0,0zm33 52c1,0 1,1 2,1 0,1 0,1 -1,1 -2,0 -1,-1 -1,-2zm138 -352c0,0 0,0 0,0 0,0 0,0 0,0 0,0 0,0 0,0 0,0 0,0 0,0 0,0 0,0 0,0 0,0 0,0 0,0zm-97 273c0,0 0,0 0,0 0,0 -1,0 -1,0 0,0 0,0 0,0 0,0 0,0 1,0 0,0 0,0 0,0 0,0 0,0 0,0zm78 -317c-1,0 -1,0 -1,0 0,-1 0,-1 1,-1 0,0 0,1 0,1zm-93 460c0,0 0,0 0,0 0,0 0,0 0,0 0,0 0,0 0,0zm175 -509c1,0 1,0 1,0 0,0 0,0 -1,0 1,0 0,0 0,0zm-49 -51c0,0 0,0 0,0 0,0 0,1 0,1 0,0 0,-1 0,-1zm-178 104c0,0 0,0 0,0 0,0 0,0 0,0 0,0 0,0 0,0zm83 421c0,0 0,0 0,0 -1,-1 -2,-2 -3,-2 0,0 0,0 0,0 1,1 2,2 3,2zm147 -69c1,0 1,0 1,0 0,0 0,0 -1,0 0,0 0,0 0,0zm-3 -425c0,0 0,-1 0,-1 0,0 0,0 0,0 0,1 0,1 0,1zm-224 479c0,0 0,0 0,0 0,0 0,0 0,0 0,0 0,0 0,0zm293 -439c0,0 0,0 0,0 0,0 -1,-1 -1,-1 0,0 0,0 0,0 0,1 0,1 1,1zm-84 -55c0,1 0,2 0,2 -1,0 0,-1 0,-2 0,0 0,0 0,0 0,0 0,0 0,0 0,0 0,0 0,0 0,0 0,0 0,0 1,0 2,0 3,0 0,0 0,0 0,0 -1,0 -2,0 -3,0 0,0 0,0 0,0 0,0 0,0 0,0 0,0 0,0 0,0zm-276 475c0,-1 -1,-1 -2,-1 0,0 0,0 0,0 1,0 1,0 2,0 0,0 0,0 0,1zm68 39c0,0 0,0 0,1 0,-1 -1,0 -1,-1 0,0 1,0 1,0zm14 15c1,-1 1,-2 1,-3 0,1 0,2 0,2 0,0 -1,0 -1,1 0,0 0,0 0,0 0,0 0,0 0,0 0,0 0,0 0,0 -1,-1 -1,0 -2,0 0,0 0,0 0,0 1,0 2,0 2,0 0,0 0,0 0,0 0,0 0,0 0,0 0,0 0,0 0,0zm199 -538c0,0 0,0 -1,0 0,0 1,0 1,0 0,0 0,0 0,0zm-145 585c0,0 0,0 0,0 0,0 0,0 0,0 0,0 0,0 0,0zm150 -577c0,0 0,0 0,0 0,0 0,0 0,0 0,0 0,0 0,0zm-349 122c0,0 0,0 1,0 -1,1 0,1 0,1 -1,0 -1,0 -1,-1zm141 417c0,0 0,0 0,0 0,0 0,0 0,0 0,0 0,0 0,0zm343 -131c0,0 0,0 0,0 0,0 0,0 0,0 0,0 0,0 0,0zm-113 -397c0,0 0,1 0,1 0,0 0,-1 0,-1zm-35 -49c0,0 0,0 0,0 0,0 0,0 0,0 0,0 0,0 0,0zm-222 557c0,0 0,0 -1,0 1,0 1,0 1,0zm290 8c0,0 0,0 -1,0 0,0 0,0 0,-1 0,0 1,1 1,1zm88 -100c0,0 0,0 0,0 0,0 0,0 0,0 0,0 0,0 0,0zm19 -270c0,1 0,1 0,1 0,0 0,0 0,0 0,0 0,0 0,-1 0,0 0,0 0,0zm-97 347c0,0 0,-1 0,-1 0,0 0,1 0,1 0,0 0,0 0,0zm8 12c0,-1 0,-1 1,-1 -1,1 -1,1 -1,1 0,0 0,0 0,0zm-116 -586c0,0 0,0 1,0 0,0 0,0 -1,0 0,0 0,0 0,0zm-128 671c0,0 0,0 0,0 0,0 0,0 0,0 0,0 0,0 0,0zm284 -558c0,0 0,0 0,0 0,0 0,0 0,0 0,0 0,0 0,0zm-84 -35c0,0 0,0 0,0 0,0 0,0 0,0 0,0 0,0 0,0l0 0zm0 -22c0,0 0,1 0,0 0,0 0,0 0,0 0,0 0,0 0,0zm-115 -53c0,0 0,0 0,0 0,0 0,0 0,0 0,0 0,0 0,0zm-290 443c0,0 0,-1 0,-1 0,0 0,1 0,1 0,0 0,0 0,0zm50 112c0,0 0,0 0,0 0,0 0,0 0,0 0,0 0,0 0,0zm392 -490c0,0 0,0 0,0 0,0 0,0 0,0 0,0 0,0 0,0zm-15 31c0,0 0,0 0,0 0,0 0,1 0,1 0,0 0,-1 0,-1zm-331 504c0,0 0,0 1,0 -1,0 -1,0 -1,0 0,0 0,0 0,0zm15 -32c0,0 0,0 0,0 0,0 0,0 1,0 -1,0 -1,0 -1,0zm22 43c0,0 0,0 0,0 0,0 0,0 0,0 0,0 0,0 0,0zm369 -455c0,0 0,0 0,0 0,0 0,0 0,0 0,0 0,0 0,0zm4 -41c0,0 0,0 0,0 0,0 0,0 0,0 0,0 0,0 0,0zm-116 -83l0 0c0,0 0,0 0,0 0,0 0,0 0,0 0,0 0,0 0,0 0,0 0,0 0,0 0,0 0,0 0,0zm-354 476c0,0 0,0 0,0 0,1 0,1 0,1 0,0 0,-1 0,-1zm-3 42c0,-1 0,-1 0,-1 0,0 0,0 0,0 0,0 0,0 0,1zm306 -590c0,0 1,0 1,1 0,-1 -1,-1 -1,-1zm-190 673l0 0c0,0 0,0 0,0 0,0 0,0 0,0 0,0 0,0 0,0 0,0 0,0 0,0 0,0 0,0 0,0zm241 -613c0,1 1,1 0,1 1,0 0,-1 0,-1zm-330 24c0,0 0,0 0,0 0,0 0,0 0,0 0,0 0,0 0,0zm418 577c0,0 0,0 0,-1 0,1 0,1 0,1 0,0 0,0 0,0zm-492 -497c0,0 0,0 0,0 0,0 0,0 0,0 0,0 0,0 0,0zm162 520c0,0 0,0 0,0 0,0 0,0 0,0zm104 46c0,0 0,0 0,0 0,0 0,0 0,0 0,0 0,0 0,0l0 0zm300 -149c0,0 0,0 0,0 0,0 0,0 0,0 0,0 0,0 0,0zm-414 -522c0,0 0,0 0,0 0,0 0,1 0,1 0,0 0,-1 0,-1zm-166 117c-1,0 -1,0 -1,0 0,0 0,0 1,-1 0,1 0,1 0,1zm429 510c-1,0 -1,0 -1,0 0,-1 0,-1 0,-1 1,0 0,0 1,1zm166 -117c0,0 0,0 1,0 -1,0 -1,0 -1,0 0,0 0,0 0,0zm21 -389c0,0 0,0 0,0 0,0 0,0 0,0 0,0 0,0 0,0 0,0 0,0 0,0zm-126 -101c0,0 0,0 0,0 0,0 0,0 0,0zm-169 -69c0,0 0,0 0,0 0,0 0,0 0,0 0,0 0,0 0,0 0,0 0,0 0,0 0,0 1,0 1,0 0,0 0,0 0,0 0,0 -1,0 -1,0zm-343 554c0,0 0,0 0,0 0,1 1,1 1,1 0,0 0,0 0,0 0,0 0,0 0,0 0,0 -1,0 -1,-1zm126 102c0,0 0,0 0,-1 0,1 0,1 0,1zm-39 -561c-2,0 -2,0 -3,1 0,-1 -1,-2 -1,-3 1,0 2,1 4,2zm20 552c0,0 0,0 0,0 0,0 0,0 0,0 0,0 0,0 0,0 0,0 0,0 0,0zm222 66c0,0 0,0 0,0 0,0 0,0 1,0 0,0 -1,0 -1,0zm223 -83c1,0 2,-1 2,-1 1,1 1,2 2,3 -1,-1 -2,-2 -4,-2zm-175 -675c0,1 0,1 0,1 0,0 0,0 0,-1zm-115 814c0,0 0,0 0,0 0,0 0,0 0,0zm205 -89c0,0 0,0 0,0 0,0 0,0 0,0 0,0 0,0 0,0l0 0zm209 -220c0,0 0,0 0,0 0,0 0,0 0,0 0,0 0,0 0,0zm-104 -379c0,0 0,0 0,0 0,0 0,0 0,0 0,0 0,0 0,0 0,0 0,0 0,0zm-158 -121c0,0 0,0 0,0 0,0 0,0 0,0 0,0 0,0 0,0zm-118 55c0,0 0,0 0,-1 0,1 0,1 0,2 0,-1 0,-1 0,-1 0,0 0,0 0,0 0,0 0,0 0,0 0,0 0,0 0,0zm-333 250c0,0 0,0 0,0 0,0 0,0 0,0 0,0 0,0 0,0zm122 372c0,0 0,0 0,0 0,0 0,0 0,0 0,0 0,0 0,0 0,0 0,0 0,0 0,0 0,0 0,0 0,0 0,0 0,0zm139 128c0,0 0,0 0,0 0,0 0,0 0,0 0,0 0,0 0,0zm119 -56c0,1 0,1 0,1 0,0 0,0 0,-1 0,0 0,0 0,0l0 0 0 0zm230 -628c0,0 -1,0 -1,0 0,0 1,0 1,0 0,0 0,0 0,0zm-9 -9c0,0 0,0 0,0 0,0 0,0 -1,0 1,0 1,0 1,0zm-170 -119c0,0 0,1 0,1 0,0 0,-1 0,-1 0,0 0,0 0,0 0,0 0,0 0,0zm-211 69c-1,0 0,0 -1,0 1,0 1,0 1,0 0,0 0,0 0,0zm-117 621c0,0 0,0 0,0 0,0 0,0 0,1 0,-1 0,-1 0,-1zm9 10c0,0 0,0 0,0 0,0 0,0 0,0 0,0 0,0 0,0zm170 119c-1,0 -1,-1 -1,-1 0,0 0,1 1,1 0,0 0,0 0,0 0,0 0,0 0,0zm120 -78c0,0 0,0 0,0 0,0 0,0 0,0 0,0 0,0 0,0zm91 9c0,0 0,0 0,0 0,0 0,0 0,0 0,0 0,0 0,0zm146 -586c0,0 0,0 0,0 0,0 0,0 0,0 0,0 0,0 0,0zm-557 -18c0,0 0,0 0,0 0,0 0,0 0,0 0,0 0,0 0,0zm-8 509c-1,0 -1,0 -1,-1 0,0 0,1 1,1 -1,0 0,0 0,0zm556 17c0,0 1,0 1,1 0,0 0,0 0,0 -1,-1 -1,-1 -1,-1zm103 -124c0,0 0,0 0,0 0,0 0,0 0,0 0,0 0,0 0,0zm15 -235c0,-1 0,-1 0,-1 0,0 0,0 0,1 0,-1 0,0 0,0zm-409 -290c0,0 0,0 0,1 0,0 0,-1 0,-1 0,0 0,0 0,0zm-359 247c-1,1 -1,1 -1,1 0,0 0,-1 1,-1 0,0 0,0 0,0zm-15 236c0,0 0,0 0,0 0,0 0,0 0,0 0,1 0,0 0,0zm409 289c-1,0 -1,0 -1,0 0,0 0,0 1,0 0,0 0,0 0,0zm-329 -641c0,0 0,0 0,0 0,0 0,0 0,0 0,0 0,0 0,0zm623 511c-1,0 -1,0 -1,0 0,0 0,0 1,-1 0,1 0,1 0,1zm-142 -592c0,0 0,1 0,1 0,0 0,0 0,0 0,0 0,-1 0,-1zm-151 -90c0,0 0,0 0,0 0,0 0,0 0,0 0,0 0,0 0,0zm-242 86c0,0 0,0 0,0 0,0 0,0 0,0 0,0 0,0 0,0zm-93 85c0,0 0,0 1,0 -1,0 -1,0 -1,0 0,0 0,0 0,0zm147 591c-1,0 -1,0 -1,0 0,0 1,0 1,0 0,0 0,0 0,0zm150 91c0,0 0,0 0,0l0 0 0 0zm242 -86c0,0 0,0 0,0 0,0 1,0 1,0 0,0 -1,0 -1,0zm93 -85c0,0 0,-1 0,-1 0,0 0,0 0,0 0,1 0,1 0,1zm97 -102c0,0 0,0 0,0 0,0 0,0 0,0 0,0 0,0 0,0zm-15 -403c0,0 1,1 0,2 0,0 0,0 0,0 1,-1 0,-2 0,-2zm-213 -107c0,0 0,0 0,0l0 -1c0,1 0,1 0,1zm-219 -31c0,0 0,0 0,-1 0,1 0,1 0,1zm-123 14c0,0 0,0 0,0 0,0 0,0 0,0 0,0 0,0 0,0zm-136 93c0,0 0,0 0,0 0,0 0,0 0,0l0 0c0,0 0,0 0,0 0,0 0,0 0,0zm-37 32c1,0 1,0 1,0 0,0 0,0 0,0 -1,0 0,0 -1,0zm-67 498c-1,0 -1,-1 0,-2 0,0 0,0 0,0 -1,1 -1,2 0,2zm212 107c1,0 1,0 1,0l-1 0c0,0 0,0 0,0zm220 31c-1,0 -1,0 -1,0 0,0 0,0 1,0zm123 -14c0,0 -1,0 -1,0 0,0 1,0 1,0 0,0 0,0 0,0zm136 -93c0,0 0,0 -1,-1 1,0 1,0 1,0 0,0 0,1 0,1 0,0 0,0 0,0zm36 -32c0,-1 0,0 0,-1 0,0 0,0 0,0 0,0 0,0 0,1zm109 -426c0,0 0,0 0,0 0,0 0,0 0,0 0,0 0,0 0,0zm-776 -73c0,0 -2,0 -2,1 0,0 0,0 0,0 1,0 2,-1 2,-1zm-101 428c0,0 -1,0 -1,0 0,0 1,0 1,-1 0,0 0,0 0,1zm731 137c0,0 0,0 0,0 -1,0 -1,0 -1,0 0,0 1,0 1,0zm128 -173c0,0 0,0 0,0 0,0 0,0 0,0 0,0 0,0 0,0zm-145 -462c0,0 0,0 0,0 0,0 0,0 0,0 0,0 0,0 0,0zm-120 -36c0,0 0,0 0,0 0,0 0,0 0,0 0,0 0,0 0,0zm-428 42c0,0 0,0 0,0 0,0 0,0 0,0 0,0 0,0 0,0zm-4 634c0,0 0,0 0,0 0,0 0,1 0,1 0,0 0,-1 0,-1zm121 37c0,0 0,0 0,0 0,0 0,0 0,0 0,0 0,0 0,0zm428 -43c0,0 0,0 0,0 0,0 0,0 0,0 0,0 0,0 0,0zm-746 -379c0,0 1,0 1,0 1,0 2,0 3,0 0,0 0,0 0,0 0,1 -2,1 -4,0zm947 130c-1,0 -1,0 -2,1 -1,-1 -2,-1 -3,0 0,0 0,0 0,0 1,-1 3,-1 5,-1zm42 117c-1,-1 -1,-1 -2,-1 -2,-4 -6,-5 -10,-6 -7,-2 -16,-2 -21,-9 -1,0 -1,0 -2,0 -1,-1 -2,-1 -3,-2 -1,-2 -2,-2 -4,-2 -4,1 -7,2 -7,-4 0,0 0,-2 -2,-1 -3,-3 -6,-6 -11,-7 -1,-1 -3,-1 -4,-2 -12,-2 -22,-8 -33,-11 -1,-1 -3,-2 -5,-2 0,0 -1,-1 -2,-1 -1,-1 -1,-1 -2,-2 -2,-1 -3,-2 -5,-3 0,0 1,-1 1,-1 0,0 1,0 1,0 1,1 2,1 3,0 2,0 5,0 8,0 0,-2 -1,-2 -2,-3 -2,-1 -4,-1 -5,-1 0,-2 -1,-4 -3,-5 -3,-1 -5,-3 -7,-4 -2,-1 -4,-1 -5,1 -1,3 0,5 2,7 0,0 0,1 0,1 0,0 -1,0 -1,1 1,0 1,0 2,0 0,1 -1,1 -2,1 -1,-1 -2,-2 -3,-2 0,-1 -1,-1 -2,0 0,0 1,0 1,0 -1,0 -1,-1 -1,-1 1,0 1,1 1,1 0,0 1,0 1,0 -3,-2 -1,-5 -3,-7 -1,-3 -2,-5 -5,-7 0,-1 -1,0 -2,-1 0,-1 -2,-2 0,-4 4,0 8,0 11,0l1 0c0,0 0,0 0,0 -1,0 -1,0 -1,0 -1,2 2,3 2,3 3,-1 5,0 7,1 -1,0 -2,0 -2,0 -1,1 -3,1 -3,2 0,2 2,2 3,2 5,1 10,3 15,1 2,-1 5,0 6,-2 -2,-1 -3,-2 -6,-2 0,0 0,0 -1,0 8,-2 12,-7 10,-16 0,-3 -1,-5 -2,-7 1,1 2,1 3,1 3,1 6,1 7,-2 1,-3 -2,-5 -4,-6 -3,-3 -7,-2 -10,-2 -2,0 -3,0 -5,1 0,0 0,-1 -1,-1 0,0 -1,0 -1,1 -2,1 -5,1 -7,-1 -1,-2 -2,-4 -4,-4 -3,0 -6,-1 -9,-1 0,-1 -1,-3 -3,-4 -1,0 -2,-1 -4,-2 -1,-1 -2,-1 -2,-3 3,-1 7,-2 11,-3 7,0 14,-1 20,0 2,2 4,1 6,1 5,0 10,0 15,2 0,1 1,1 1,1 2,2 4,3 6,4 2,1 4,1 6,-1 4,0 8,0 12,1 4,1 9,2 13,4 4,1 7,4 12,5 3,1 6,2 9,0 1,-1 -1,-5 -3,-6 -2,-3 -4,-6 -8,-6 -1,-1 -3,-1 -5,-1 0,0 0,0 -1,0 -6,-2 -11,0 -17,-1 -1,0 -2,0 -2,0 -3,0 -6,0 -9,-1 -1,0 -2,-1 -4,-1 -2,-1 -4,-2 -7,-2 -5,0 -9,-4 -13,-6 -1,-2 -3,-3 -5,-3 -5,-4 -11,-4 -17,-4 -1,-2 -3,-3 -4,-4 0,-1 0,-1 0,-1 0,-3 -1,-5 1,-7 -2,-1 -4,0 -6,0 -3,1 -7,1 -11,2 -1,0 -3,0 -4,0 -3,0 -5,0 -8,0 0,0 0,0 0,-1 -2,-1 -3,-3 -4,-4 -1,-1 -2,-2 -2,-3 0,0 -1,-1 -1,-1 8,-2 16,-4 25,-4 0,0 0,0 0,0 0,0 0,0 0,0 0,0 0,0 0,0 3,3 7,2 12,3 -3,-4 -4,-8 -6,-11 0,-3 -1,-5 1,-8 1,-1 2,-2 1,-3 -2,-2 -3,-1 -5,-1 -8,4 -16,6 -25,8 0,-1 0,-1 0,-1 -1,0 -1,-1 -2,-1 -2,-1 -3,-2 -4,-4 -2,-1 -4,-2 -5,-4 0,0 0,0 0,-1 0,-4 1,-8 2,-12 2,2 4,4 6,6 1,1 1,1 2,2 0,1 1,2 3,2 1,0 1,-1 1,-2 0,-1 -1,-2 -2,-3 -1,0 -2,0 -2,0 -3,-2 -5,-5 -8,-7 0,-1 1,-3 1,-4 6,-4 12,-3 18,-5 2,-5 6,-5 10,-5 3,-1 4,-2 2,-5 -1,-3 0,-5 2,-7 1,-2 3,-3 3,-5 0,0 0,0 0,0 0,0 0,0 0,0 0,0 0,0 0,0 4,-5 9,-11 11,-18 1,-4 2,-8 5,-11 4,-2 9,-3 11,-8 0,-4 3,-5 7,-6 3,0 4,-2 2,-3 -4,-4 -5,-9 -6,-14 0,-1 -1,-2 -2,-2 -2,-2 -3,-3 -4,-5 -2,-2 -1,-4 1,-5 0,0 0,0 1,0 8,-1 16,0 23,-4 1,-1 1,-1 1,-2 0,1 -1,2 -1,2 5,0 11,-1 16,-1 1,0 2,0 2,-2 0,-1 -1,-1 -2,-1 -6,-1 -11,-2 -17,-2 0,-1 0,-1 0,-1 0,-1 0,-1 0,-2 0,-2 5,-1 3,-4 -2,-2 -5,1 -7,1 -1,0 -1,1 -2,2 -3,1 -6,2 -9,3 0,-1 0,0 0,-1 0,0 0,1 0,1 -8,1 -16,0 -25,-1 -1,-3 -2,-5 -4,-7 -1,-1 -2,-3 -3,-4 -1,-1 -1,-3 0,-3 7,-1 13,-6 21,-5 9,1 19,0 28,0 6,0 12,0 17,-3 2,-2 4,-3 1,-5 -4,-2 -2,-4 0,-6 1,-1 2,-2 3,-2 9,-3 18,-4 27,-9 6,-1 13,-2 17,-8 -1,0 -1,0 -2,0 -1,2 -4,4 -6,4 0,0 -1,0 -1,0 0,0 0,0 0,-1 2,0 5,-1 4,-3 -1,-3 0,-8 -4,-9 -4,-1 -9,-2 -14,-2 -2,0 -5,0 -8,0 0,0 -1,0 -1,0 3,-2 7,-1 10,-2 2,1 4,1 6,1 -2,-2 -4,-1 -5,-1 -3,-2 -5,-2 -7,-1 -8,2 -16,3 -24,3 -2,0 -5,0 -7,3 -7,2 -14,6 -21,7 -3,1 -6,1 -9,1 0,0 0,0 0,0 -3,-6 2,-7 4,-10 1,0 1,0 1,0 3,-4 0,-10 5,-14 0,0 0,-2 0,-2 -4,-4 -2,-9 -2,-14 1,-2 -1,-3 -2,-4 -1,-2 -2,-2 -1,-4 1,-4 -6,-6 -3,-10 0,-1 -1,-2 -2,-2 -2,0 -3,-1 -4,-2 -1,-3 -3,-5 -5,-8 0,-1 0,-1 0,-1 -1,-2 1,-4 -2,-5 -4,-1 -8,-4 -11,-6 0,0 0,0 0,0 1,-2 3,-1 5,-1 2,-1 4,-2 3,-4 -1,-2 -2,-3 -4,-1 0,0 -1,0 -1,0 -1,-1 0,-2 0,-3 0,-1 0,-1 0,-1 2,-1 5,-1 6,-2 0,-1 0,-1 -1,-1 2,-2 1,-2 -1,-3 0,1 -1,1 -1,1 -4,2 -9,3 -13,5 -1,0 -1,0 -1,0 -3,0 -2,3 -4,4 -1,0 -1,0 -2,1 0,0 0,0 0,0 0,0 0,0 -1,0 0,1 -1,1 -2,1 -2,-1 -3,0 -3,1 0,0 -1,0 -1,0 -1,0 -1,0 -2,-1 -1,-1 -2,-2 -3,-3 0,-1 -1,-2 -2,-2 -1,1 0,2 1,3 -2,3 -4,3 -6,2 0,0 0,0 -1,0 0,0 0,0 0,0 -1,0 -2,0 -3,0 -5,0 -8,-1 -10,5 -1,5 -6,3 -9,5 0,-1 0,-1 0,-1 1,-1 3,-2 5,-2 3,0 5,-1 3,-4 0,0 0,0 0,0 -1,-1 -1,-1 -1,-1 -2,-2 -4,-1 -5,-3 -1,-3 -3,-1 -3,1 0,2 -3,4 -2,6 -1,0 -1,0 -2,0 -1,-1 -1,-1 -1,-1 -1,0 -1,0 -1,1 -1,-1 -2,-1 -3,0 -4,0 -2,2 -1,3 -3,1 -6,3 -9,5 -4,3 -8,7 -15,6 0,0 0,0 0,0 0,0 0,0 0,0l0 0c0,-3 -6,-5 -1,-9 3,-2 2,-4 0,-5 -7,-1 -12,-6 -18,-9 -7,-4 -7,-8 -1,-13 1,1 3,2 3,-1 0,0 0,0 0,-1 0,-1 -1,-2 -3,-2 -2,1 -6,0 -9,0 0,-2 -3,-4 -2,-7 2,-3 5,-6 9,-6 2,-1 3,-2 4,-4 -1,0 -1,0 -1,0 -1,-2 -2,-2 -3,-2 0,0 0,0 0,0 0,-1 0,-1 -1,-1 0,0 0,0 0,1 -2,2 -6,0 -7,2 -1,1 -1,3 -3,2 -2,-1 -2,-2 -2,-4 0,-3 3,-4 4,-6 5,-1 6,-6 10,-9 0,0 1,-1 1,-2 3,-2 6,-4 8,-7 3,0 2,-3 3,-4 0,-1 -1,-2 -1,-2 1,0 2,0 2,0 0,-2 -1,-1 -1,-2 -1,0 -2,-1 -3,-1 0,-1 0,-2 0,-2 2,-2 2,-5 5,-6l0 0 0 -1c-1,0 -3,1 -4,2 -2,1 -1,-1 -1,-1 0,-1 1,-1 1,-2 -2,0 -4,0 -6,0 -2,2 -4,3 -3,6 -2,1 -3,3 -4,6 -1,1 -3,2 -5,4 0,0 -1,0 -2,0 3,-2 4,-4 6,-6 1,-2 0,-3 -1,-3 -2,-4 -2,-4 2,-5 1,-1 2,-2 1,-3 -1,-2 -1,-4 0,-6 1,-1 0,-3 -1,-2 -2,2 -5,3 -7,5 -1,0 -4,2 0,4 0,1 0,2 0,2 -4,1 -3,5 -5,7 -2,1 -4,3 -1,6 1,0 1,2 0,3 -1,1 -2,0 -2,-1 -2,-1 -3,0 -4,2 -1,4 3,4 5,4 0,0 0,0 0,0 0,0 0,0 0,0 -1,2 -4,1 -6,2 0,-1 0,-1 0,-2 0,-1 -1,-2 -1,-3 0,0 0,-1 0,-1 2,-2 3,-4 4,-6 2,-2 3,-5 4,-7 0,-1 -1,-2 -2,-2 0,0 0,0 0,0 0,1 1,2 2,2 1,-2 3,-3 0,-5 0,0 0,-1 -1,-1 1,-2 2,-3 3,-5 2,-1 4,-2 4,-5 1,-1 1,-1 0,-2l0 -1c1,-4 -4,-2 -5,-5 -1,2 -1,4 -1,4 -5,3 -4,6 -2,9 0,1 0,1 0,1 0,1 -1,2 -1,2 -2,2 -3,4 -5,5 -1,1 -3,1 -3,3 -1,0 -1,0 -2,1 -4,1 -6,4 -10,7 1,-4 2,-6 2,-8 0,-2 0,-3 0,-5 1,-3 4,-7 5,-11 2,-4 0,-3 -2,-3 0,-2 0,-4 1,-6 0,-1 0,-1 0,-1 1,-1 1,-3 1,-4 -1,-1 -1,-1 -2,-1 -1,0 -1,1 0,2 0,0 0,0 0,0 -1,1 -1,1 -1,2 0,0 0,0 0,0 -1,0 -1,0 -1,0 -2,1 -2,2 -2,4 0,0 0,0 0,0 0,3 -5,6 -2,9 0,1 0,1 0,1 -1,1 -2,2 -3,2 -4,3 -8,8 -14,7 0,0 0,0 0,-1 -1,0 -2,-1 -2,-3 -2,-5 -5,-7 -10,-7 -1,0 -2,0 -2,0 -1,-5 -3,-4 -7,-3 0,0 -6,2 -6,-3 0,-1 0,-2 0,-3 -2,-3 -5,1 -7,-1 -4,-2 -6,-4 -4,-9 0,0 0,-1 0,-1 0,-1 0,-3 -1,-4 0,2 0,4 -2,5 -1,-2 2,-6 -2,-7 -1,0 -1,0 -1,0 -1,2 -4,2 -1,5 0,1 0,2 0,3 -3,1 -3,3 -1,6 -3,2 -5,5 -6,8 -2,2 -2,0 -3,-1 0,-2 4,-4 2,-5 -4,-2 -1,-4 -1,-6 -1,-2 1,-6 -4,-8l0 0c-1,0 1,-3 -1,-3 -2,0 -2,2 -2,3 -1,2 -2,5 0,7 1,3 2,6 1,10 -5,-2 0,2 -2,3 -3,1 -3,5 -7,5 -3,-3 -5,-6 -3,-11 0,-1 0,-2 -2,-2 -3,-1 -5,-4 -8,-4 -1,-6 -6,-4 -9,-5 0,-1 0,-1 0,-2 0,0 0,0 -1,-1 1,-2 1,-4 1,-6 0,-2 -1,-4 -3,-2 -3,3 -4,-1 -5,-2 0,1 0,1 0,1 0,0 0,0 0,0 0,0 1,0 0,-1 1,-7 -3,-14 -3,-21 3,-4 1,-7 1,-10 1,-5 0,-6 -4,-7 0,0 0,-1 0,-1 0,-2 1,-4 -2,-5 0,0 0,-1 0,-1 0,-3 -2,-4 -4,-5 -2,-2 -3,-4 -5,-4 0,-1 0,-1 0,-1 -1,-1 -1,-1 -1,-1 -7,0 -11,-3 -14,-9 0,0 0,0 0,0 0,0 0,0 0,0 -3,-2 -3,1 -5,1 -1,2 -3,1 -4,2 0,1 0,1 0,1 -1,0 -2,0 -3,0 -3,-5 -8,-2 -12,-3 -7,-1 -13,3 -19,6 -4,2 -8,2 -10,6 0,0 0,0 0,0 0,0 0,0 0,0l0 0c-3,-1 -5,2 -8,2 -1,0 -2,1 -4,2 0,-2 -2,-3 -3,-2 -3,3 -6,1 -9,2 0,1 0,2 0,3 0,-1 1,-2 0,-3 0,-2 1,-5 0,-7 -2,1 -3,3 -4,4 -1,-4 2,-9 -4,-10 -1,0 -1,0 -1,0 -3,0 -6,0 -6,-4 0,0 -1,-1 -1,-1 -1,4 2,6 5,8 -1,3 -2,2 -4,1 -2,-2 -1,-6 -5,-6 1,4 -1,9 1,14 1,2 1,4 0,7 -1,-1 -3,-3 -5,-2 -2,-2 -2,-5 -3,-8 0,-4 1,-8 -2,-11 0,2 -1,2 -2,1 0,0 0,-1 0,-2 -4,8 -6,9 -15,7 -4,0 -6,0 -9,2 2,1 4,1 6,0 1,0 1,0 2,2 2,0 4,0 5,-2 2,-1 5,-1 6,0 1,4 5,6 5,10 0,0 1,0 1,0l0 0c0,0 -1,0 -1,0 -2,6 -1,8 4,8 1,0 1,1 1,1 0,2 0,4 1,6 1,1 1,2 -1,2 -1,2 -3,3 -5,3 -2,3 -6,2 -8,6 -4,1 -6,3 -8,6 -3,1 -5,2 -6,4 -5,1 -7,4 -11,6 0,0 -1,0 -1,0 -1,0 -3,0 -4,2 -2,2 -4,2 -7,2 -5,0 -4,2 -2,4 0,0 -1,0 -1,0 -1,1 -1,1 -2,0 0,1 0,1 0,2 0,0 0,0 0,0 -1,0 -1,0 -2,0 0,1 -1,2 0,2 0,0 0,0 0,0 0,0 0,0 0,0 -1,0 -1,0 -1,0 0,1 -1,1 -1,2 -1,1 -1,2 -3,2 -3,1 -5,3 -8,4 -5,3 -6,8 -4,14 0,0 0,0 0,0 0,0 0,0 0,0 -1,0 -3,0 -4,0 0,0 0,-1 0,-1 0,0 0,0 0,0 1,-4 0,-7 0,-10 -1,0 -1,0 -1,-1 0,-2 -2,-5 2,-8 -3,0 -5,0 -7,0 0,-1 0,-1 0,-1 0,-1 -1,-1 -1,-2 -1,0 -2,-1 -2,-2 -2,-4 -2,-11 -10,-7 0,1 -1,0 -2,-1 0,5 -1,10 0,16 0,0 0,1 0,2 1,9 2,10 10,11 1,0 1,1 2,2 -3,-1 -5,1 -6,3 -1,0 -1,0 -1,0 -5,1 -5,-3 -6,-6 -1,-7 1,-15 -4,-22 0,1 0,1 0,1 -3,-1 -5,2 -6,4 0,0 0,0 0,-1 0,0 0,0 0,-1 -1,0 -2,0 -3,-1 0,3 -1,4 -3,3 1,2 1,3 -1,4 0,-2 -1,-3 -2,-2 -3,1 -4,-1 -5,-2 -1,-4 -2,-8 -1,-12 0,-3 -2,-2 -3,-2 -2,-1 -3,1 -5,1 -1,4 -4,8 -8,9 -1,1 -4,0 -5,2 0,0 -1,0 -1,-1 0,0 0,0 0,-1 -3,0 -4,3 -5,4 -3,0 -6,1 -8,-1 2,-1 4,-3 3,-6 -2,2 -4,3 -6,1 -1,-1 -4,-3 -2,-6 0,0 0,0 0,0 0,0 0,0 -1,0 0,0 0,1 -1,1 0,2 1,3 -2,3 5,4 3,10 5,15 -3,-2 -4,-2 -5,1 0,1 -1,1 -2,1 -1,0 -4,-1 -4,0 -4,4 -7,2 -11,2 0,2 -1,4 2,5 1,-1 -2,-4 1,-3 6,1 11,-2 16,-2 2,0 2,0 2,2 -1,0 -3,-1 -4,2 0,1 0,1 -1,0 -3,-3 -6,1 -9,0 -3,0 -5,2 -7,3 0,0 0,1 0,1 -2,0 -3,1 -4,1 -1,0 -1,0 -1,0 -1,-1 -2,-1 -3,-2 -4,-2 -7,1 -10,3 -4,1 -8,1 -9,-5 0,-1 0,-2 0,-2 -4,1 -1,-3 -3,-3 0,5 0,9 0,14 0,2 -1,4 -3,4 -2,0 -3,2 -5,3 -1,2 -3,4 -6,3 0,0 0,0 0,-1 0,0 0,0 0,0 4,-3 7,-8 13,-9 -1,-1 -1,-3 -2,-4 -2,0 -3,0 -4,2 0,2 -2,2 -4,2 -4,-2 -5,0 -5,3 -1,-2 -2,-3 -3,-6 0,-3 -2,-3 -5,-2 0,0 0,1 0,1 0,0 0,1 0,1 -2,4 0,8 -1,12 1,1 1,0 1,0 0,0 0,0 0,0 0,0 0,0 -1,0 0,0 0,0 0,0 0,-1 0,-2 0,-3 0,-1 0,-1 0,-2 -1,-3 0,-7 -1,-10 0,-1 0,-2 -1,-2 0,1 -4,-2 -3,2 1,4 0,7 0,11 -1,0 -1,0 -2,-1 0,0 -1,0 -1,0 0,1 0,2 0,2 0,3 0,6 0,8 0,2 0,3 1,4 0,1 0,2 0,3 -2,-2 -3,-2 -4,1 -2,5 -2,12 -8,14 -1,0 -2,0 -3,1 -2,0 -6,0 -4,4 0,1 -3,3 -4,3 -2,1 -1,-2 -3,-3 0,-1 0,-2 0,-3 -1,-1 -2,0 -2,1 0,1 0,2 0,2 0,0 0,0 0,0 -3,2 -2,4 -1,6 0,0 -1,0 -1,0 0,-1 0,0 0,0 -1,-2 -2,-4 -3,-5 1,-3 0,-5 -3,-3 0,0 0,0 0,0 -1,0 -1,0 -1,-1 0,-1 -1,-1 -2,-1 -1,0 -1,-1 -2,-1 0,2 0,4 1,5 0,1 0,1 0,1 0,0 0,-1 -1,-1 0,0 0,0 0,1 0,-2 -1,-3 -2,-3 -2,2 -2,4 0,7 1,4 2,8 3,13 0,0 0,0 0,0 -1,1 -2,1 -2,2 -1,-1 -1,-3 -2,-2 -2,0 -1,2 -1,3 0,0 0,1 0,1 -1,0 -2,1 -3,1 -1,0 -2,-3 -3,-1 -1,1 -1,4 1,5 0,1 1,1 1,2 0,0 0,0 0,0 -3,3 -6,6 -9,9 -2,1 -4,3 -4,5 0,0 0,0 0,0 -3,-2 -6,-3 -9,-6 -1,0 -1,2 -2,2 -1,1 -2,1 -3,2 0,1 1,1 1,1 -1,1 -1,1 -1,2 0,0 0,0 0,1 0,1 0,2 2,3 -1,1 0,1 0,1 -1,1 -1,2 1,2 1,0 2,0 2,1 1,0 1,0 1,0 0,0 0,0 0,0 0,0 -1,0 -1,0 0,0 0,0 0,0 0,-2 -1,-2 -2,-1 -2,2 -1,4 -3,5 -2,1 -3,1 -4,1 -3,4 -6,6 -11,5 -1,0 -5,-5 -3,2 0,1 -1,1 -1,1 0,0 0,0 -1,1 0,0 -1,0 -1,0 -1,0 -1,0 -2,-1 -4,-1 -6,1 -4,5 0,1 0,1 0,1 0,1 0,0 0,1 1,3 3,7 -4,8 -1,0 -2,1 -2,3 0,1 -1,2 -2,2 0,0 0,0 0,0 0,0 0,0 0,0 -1,-4 -3,-6 -6,-7 -4,0 -4,2 -3,4 -2,-1 -3,-3 -5,-2 0,2 0,3 0,5 -2,0 -5,1 -5,-3 0,-1 -4,-5 -7,-1 -2,-2 -4,-4 -7,-5 -1,-2 -2,-1 -2,1 1,1 4,1 5,4 -3,1 -6,-1 -7,-4 0,-1 -2,-3 -3,-2 -1,3 -5,3 -7,6 -3,3 -2,6 -3,10 -1,0 -2,-1 -3,-1 0,0 0,0 0,0 0,0 0,0 0,0 0,-1 0,-1 0,-2 0,0 0,-1 -1,-1 -1,-2 -2,-2 -3,0l0 0c-1,4 2,5 5,6 4,2 6,5 9,8 1,7 1,7 7,3 -3,-3 -4,-6 -3,-10 2,-5 7,-8 11,-11 1,0 2,0 3,1 -1,3 -3,7 2,10 1,0 1,1 0,2 -1,0 -2,1 -1,2 0,2 2,1 3,1 2,-1 4,-2 4,1 1,2 -1,2 -2,2 -2,0 -3,-1 -4,-1 -1,0 -1,-1 -2,-1 -1,-1 -2,-2 -3,-2 -1,1 0,2 1,2 0,2 2,2 4,3 0,0 0,0 0,0 -3,1 -3,2 -1,6 2,3 5,7 10,7 1,0 2,0 3,0 2,1 4,2 6,3 0,3 0,6 0,10 0,1 0,2 -2,3 -1,0 -3,0 -4,-1 -1,-1 -2,-2 -3,-3 -1,-1 -3,-2 -4,-3 0,-2 -1,-4 -2,-4 -4,1 -7,-2 -10,-3 -2,-1 -3,-3 -5,-1 0,-2 -1,-3 -2,-3 -2,0 -2,1 -2,2 -5,-3 -5,2 -6,4 -3,1 -3,1 1,4 1,2 3,3 4,6 -2,0 -3,-1 -3,-2 -1,-2 -3,-1 -4,-1 -1,2 3,0 2,3 -2,0 -4,0 -5,1 1,2 2,1 2,2 -5,1 -8,-3 -10,-7 1,0 2,0 2,-1 0,-1 -1,-1 -2,-1 0,-1 -2,-1 -3,-1 2,-2 5,-1 7,-3 -2,-1 -3,-2 -4,-3 -2,-2 -6,-2 -7,-1 -2,2 -6,5 -1,8 1,1 1,1 0,2 -3,0 -2,-3 -5,-3 1,5 6,7 8,12 0,0 0,0 0,0 0,0 0,0 0,0 -2,2 2,3 0,5 0,0 0,0 0,0 0,0 0,-1 0,-1 -6,-2 -11,-5 -15,-10 -1,-1 -3,0 -3,1 0,5 -4,5 -6,8 -1,0 -2,1 -3,0 0,0 -1,0 -1,0 -2,1 -4,1 -5,1 -1,0 -2,1 -3,1 -3,-3 -6,-2 -9,1 -4,-2 -8,-4 -12,-4 -1,-1 -2,-1 -3,-1 -1,-1 -1,-1 -2,-1 0,0 0,0 -1,0 -3,-3 -7,-6 -11,-8 -3,-2 -7,-3 -11,-3 -4,0 -6,3 -4,8 0,1 1,2 2,3 0,0 1,0 1,1 3,4 6,4 11,5 7,2 15,3 21,10 0,0 1,0 1,0 1,0 3,1 4,2 0,2 2,2 4,2 3,-1 6,-2 7,3 0,1 0,3 2,2 3,3 6,6 10,6 1,2 3,2 5,2 11,3 21,9 32,11 2,2 3,3 5,3 1,0 2,0 2,1 1,0 2,1 3,2 1,1 3,2 5,3 -1,0 -1,1 -1,1 -1,0 -1,0 -1,0 -1,0 0,0 -1,0l0 0c1,0 1,0 1,0 -2,-1 -3,-1 -3,0 -3,-1 -6,-1 -8,0 0,2 1,2 2,3 1,1 3,1 5,1 0,2 0,4 3,5 2,1 4,2 7,3 2,2 3,2 4,-1 2,-2 1,-4 -1,-6 0,0 -1,-1 -1,-2 1,0 1,0 1,0 0,-1 -1,0 -1,0 0,-1 0,-1 2,-1 1,1 1,1 2,2 1,0 1,0 2,0 0,0 0,0 0,0 0,0 0,0 0,0 0,0 0,0 0,0 -1,0 -1,0 -2,0 3,1 2,5 3,7 2,2 3,5 5,6 1,1 2,1 2,1 1,2 2,3 0,4 -3,0 -7,0 -11,0l0 1c0,0 0,0 0,0 0,-1 0,-1 0,-1 1,-2 -1,-3 -2,-3 -2,2 -4,1 -6,0 1,-1 1,0 2,-1 1,0 2,0 2,-2 0,-1 -1,-2 -2,-2 -5,0 -11,-2 -16,0 -2,0 -4,-1 -6,1 2,2 4,3 6,3 0,0 1,0 1,0 -7,2 -11,7 -10,16 0,2 2,4 3,6 -1,0 -2,-1 -3,-1 -3,0 -6,0 -7,3 -1,3 1,5 4,6 3,3 6,2 10,2 1,0 3,0 5,-1 0,0 0,0 0,1 1,0 1,-1 2,-1 2,-1 4,-1 6,1 2,2 3,4 5,4 3,0 6,0 8,0 1,2 1,4 3,5 1,0 3,1 4,2 2,0 2,1 3,2 -4,1 -8,2 -11,3 -7,1 -14,2 -21,1 -1,-2 -3,-2 -5,-2 -5,0 -11,0 -15,-2 -1,0 -1,0 -2,-1 -1,-1 -3,-2 -6,-3 -2,-1 -4,-1 -6,0 -4,0 -7,0 -11,0 -5,-1 -9,-2 -14,-4 -3,-2 -7,-4 -11,-5 -3,-2 -7,-2 -9,0 -1,1 0,5 3,6 2,2 3,6 7,5 2,2 3,1 5,1 1,0 1,0 1,0 1,1 1,1 2,1 0,0 0,0 0,0 5,1 10,0 16,0 0,0 1,0 2,0 3,1 5,1 8,1 1,1 3,2 4,1 3,2 5,2 7,3 6,0 9,4 14,6 1,2 2,3 5,3 5,3 11,4 16,4 2,1 3,3 4,4 0,0 1,1 1,1 0,2 0,5 -1,7 2,0 4,0 5,0 4,-1 7,-2 11,-2 2,0 3,0 5,0 2,-1 5,-1 7,0 1,0 0,0 1,0 1,2 2,3 4,5 0,1 1,2 2,3 0,0 0,1 1,1 -9,2 -17,4 -25,3 0,1 0,1 0,1 0,0 0,0 0,0 0,0 0,0 0,-1 -3,-2 -8,-2 -13,-2 4,3 5,7 7,11 -1,2 1,5 -1,7 -1,1 -3,2 -2,4 2,2 4,1 6,0 7,-4 16,-6 24,-7 0,0 0,1 1,1 0,0 1,0 1,1 2,1 4,2 5,3 2,1 3,3 4,5 0,0 1,0 1,1 -1,4 -2,8 -2,12 -3,-2 -5,-4 -7,-6 0,-1 -1,-2 -1,-2 -1,-2 -1,-3 -3,-2 -1,0 -2,0 -2,1 0,2 1,3 3,3 0,0 1,1 2,1 2,2 5,5 7,7 0,1 0,2 0,4 -6,3 -13,3 -19,5 -1,5 -6,5 -9,5 -3,0 -5,1 -3,4 2,3 0,6 -1,8 -1,1 -3,2 -3,4 0,0 0,1 0,1 0,0 0,0 0,0 0,0 0,-1 0,-1 -5,6 -10,11 -11,18 -1,5 -2,8 -6,11 -3,3 -8,4 -10,9 -1,4 -4,5 -8,6 -2,0 -4,1 -1,3 4,4 5,8 6,13 0,2 1,2 2,2 1,2 2,4 4,6 2,2 1,3 -1,4 -1,0 -1,1 -1,1 -8,1 -16,0 -24,4 -1,0 0,1 0,1 0,0 0,-1 0,-1 -5,0 -10,0 -15,1 -1,0 -3,0 -3,1 0,1 2,2 3,2 5,1 11,1 16,2 0,0 0,1 0,1 0,0 0,1 0,1 1,2 -4,2 -2,4 1,3 4,0 6,0 1,0 2,-1 3,-2 2,-1 5,-2 8,-3 0,0 0,0 1,0 0,0 0,0 -1,0 9,-1 17,0 25,1 1,3 2,5 4,6 2,2 3,3 4,5 0,1 1,3 -1,3 -7,1 -13,5 -21,5 -9,-1 -18,0 -28,-1 -6,0 -12,0 -17,4 -1,1 -4,3 -1,4 4,3 3,5 1,7 -1,1 -2,1 -3,2 -9,3 -19,3 -27,8 -7,2 -13,2 -18,8 1,0 2,0 2,0 2,-2 4,-3 6,-4 1,0 1,0 2,0 0,1 0,1 0,1 -2,1 -5,2 -5,4 2,3 1,8 5,9 4,1 8,2 13,2 0,-1 0,-2 1,-3 -1,1 -2,2 -1,3 3,0 5,0 8,0 1,0 1,0 1,0 -3,2 -6,1 -10,2 -1,-1 -3,-1 -5,-1 1,2 3,1 5,1 2,2 5,1 7,1 8,-3 15,-3 23,-3 3,0 6,-1 7,-3 7,-2 14,-6 22,-8 3,0 6,0 9,0 0,0 -1,0 -1,0 4,5 -2,7 -4,10 0,0 0,0 0,0 -4,4 0,10 -5,13 -1,1 -1,2 0,3 4,4 1,9 1,14 0,2 1,3 3,4 1,1 1,2 1,4 -2,4 5,5 3,10 -1,1 1,1 2,1 1,1 2,2 3,2 1,4 4,6 5,9 0,0 0,1 1,1 0,1 -2,4 1,5 5,1 8,3 12,6 0,0 0,0 0,0 -2,2 -4,0 -6,1 -1,1 -3,2 -2,4 0,2 2,3 3,1 1,0 1,0 1,0 2,1 0,2 0,3 0,0 0,1 0,1 -2,0 -4,1 -6,2 0,0 1,1 1,1 -1,1 0,2 1,2 1,0 1,0 1,-1 5,-1 9,-2 14,-4 0,0 0,0 1,0 2,0 2,-3 4,-4 0,0 1,-1 1,-1 0,0 0,0 0,0 1,0 1,0 1,-1 1,0 2,-1 3,0 1,1 2,0 3,-1 0,0 0,0 1,0 0,0 1,0 1,0 1,1 2,2 4,3 0,1 0,3 1,3 1,-1 1,-2 0,-3 1,-3 3,-3 6,-3 0,0 0,0 0,0 0,1 1,0 1,0 1,0 2,0 3,0 4,0 8,1 9,-5 1,-4 6,-2 9,-4 0,0 0,0 0,1 -1,1 -2,1 -4,1 -3,0 -5,2 -3,5 0,0 0,0 0,0 0,0 1,1 1,1 1,1 3,0 4,2 2,3 4,2 4,-1 0,-2 2,-3 1,-5 1,0 2,0 3,0 0,0 0,1 1,1 0,0 0,0 0,-1 1,0 2,0 4,0 3,-1 1,-2 1,-3 3,-1 6,-3 8,-5 5,-3 9,-7 15,-6 0,0 0,-1 0,-1 0,0 0,0 0,0l0 1c0,3 6,5 1,9 -3,1 -2,4 1,4 7,2 12,7 17,10 7,4 8,8 2,12 -2,0 -3,-1 -3,1 -1,1 -1,1 -1,2 1,1 2,2 3,2 3,-1 6,0 9,0 0,2 4,4 2,7 -2,3 -4,5 -8,6 -2,1 -4,2 -4,4 0,0 1,0 1,0 0,1 1,2 3,2 0,0 0,0 0,0 0,0 0,0 0,0 0,0 1,0 1,0 2,-3 5,0 7,-2 1,-1 0,-3 2,-2 2,1 2,2 2,4 0,3 -3,4 -3,6 -5,0 -7,6 -10,9 -1,0 -1,1 -1,2 -4,1 -6,4 -8,7 -3,0 -2,3 -3,4 0,1 0,1 1,2 -1,0 -2,0 -2,0 -1,1 0,1 1,1 1,1 1,2 3,2 0,1 0,1 0,2 -2,2 -3,4 -5,5l-1 1 0 0c2,0 3,0 4,-1 3,-2 1,1 1,1 0,1 0,1 0,1 2,0 4,0 6,0 1,-1 3,-2 3,-5 1,-2 3,-3 3,-6 2,-1 3,-3 5,-4 1,0 1,0 2,0 -2,1 -3,4 -5,6 -1,1 -1,2 0,3 3,3 3,3 -1,5 -1,1 -3,1 -2,3 2,2 2,4 0,6 0,1 1,3 2,2 2,-2 4,-3 6,-5 1,0 5,-3 1,-5 -1,0 -1,-1 0,-1 3,-1 3,-5 5,-7 1,-1 4,-3 0,-6 -1,-1 0,-2 0,-3 1,-1 2,0 3,1 2,1 3,0 3,-2 2,-4 -2,-4 -5,-4 0,0 0,0 0,0 0,0 0,0 0,0 2,-2 5,-1 7,-2 0,0 0,1 0,2 0,1 0,2 1,3 0,0 0,0 0,1 -2,2 -4,4 -5,6 -2,2 -2,5 -4,7 1,1 1,2 2,2 0,0 0,0 0,0 0,-1 0,-2 -2,-2 0,2 -3,3 0,4 1,1 1,2 1,2 -1,2 -2,3 -3,4 -2,2 -4,3 -4,5 -1,1 -1,2 0,3l0 0 0 1c0,4 4,2 6,5 0,-2 0,-4 1,-5 5,-2 3,-5 2,-9 -1,0 -1,0 -1,-1 1,0 1,-1 1,-2 2,-1 4,-3 6,-5 1,0 2,0 3,-2 0,0 1,-1 2,-1 3,-1 5,-4 10,-7 -1,4 -3,6 -2,8 0,2 0,3 0,4 -2,4 -4,8 -6,12 -1,4 1,3 3,3 0,2 -1,4 -1,6 0,0 0,1 0,1 -2,1 -1,3 -1,4 0,1 1,1 2,1 0,-1 0,-1 0,-2 0,0 0,0 0,0 0,-1 1,-1 1,-2 0,0 0,0 0,0 0,0 0,0 1,0 1,-1 1,-3 1,-4 1,0 1,0 1,0 -1,-3 4,-6 1,-9 0,-1 1,-1 1,-2 1,0 1,-1 2,-2 5,-2 8,-7 14,-7 0,1 0,1 0,1 2,1 2,2 3,3 1,6 5,8 10,8 0,0 1,0 1,0 1,5 4,4 7,3 1,-1 6,-2 6,3 0,1 0,2 0,3 2,2 5,-2 7,1 5,2 7,4 5,9 -1,0 0,1 0,1 0,1 -1,2 0,4 1,-2 0,-4 2,-5 2,2 -1,5 3,6 0,0 0,0 1,0 1,-1 3,-2 1,-4 0,-1 0,-2 0,-3 2,-2 3,-4 1,-6 3,-2 4,-5 6,-8 1,-2 2,-1 2,1 0,2 -3,4 -1,5 3,1 1,4 1,5 1,3 -1,7 3,8l0 0c1,1 0,4 2,4 1,0 2,-2 2,-4 0,-2 1,-4 -1,-6 -1,-3 -1,-7 -1,-10 6,2 1,-3 2,-3 3,-1 4,-6 7,-5 3,3 6,6 4,10 -1,1 0,3 1,3 3,1 6,4 9,4 0,5 5,3 8,5 0,1 0,1 0,1 0,1 1,1 1,1 0,2 0,4 0,6 -1,3 1,4 3,3 3,-3 3,0 4,2 0,-1 0,-1 0,-1 0,0 0,0 0,0 0,0 0,0 0,1 -1,7 4,14 3,21 -2,3 0,7 -1,10 -1,5 1,6 5,7 0,0 0,0 0,1 0,2 -2,4 2,5 0,0 0,1 0,1 -1,3 2,4 4,5 1,2 3,3 5,4 0,0 0,1 0,1 0,1 1,1 1,1 6,0 11,3 13,8 0,1 0,1 1,1 0,0 0,0 0,0 2,2 3,-2 4,-2 1,-1 4,0 5,-2 0,0 0,0 0,-1 1,0 2,0 3,0 2,6 8,3 12,3 6,1 13,-2 19,-5 3,-2 7,-3 10,-6 0,0 0,0 0,0 0,0 0,0 0,0l0 0c3,1 4,-3 7,-2 1,-1 3,-1 4,-2 1,1 2,3 4,2 2,-3 6,-2 9,-2 -1,-1 -1,-2 0,-3 -1,1 -1,2 0,3 0,2 -2,4 0,6 1,-1 2,-2 4,-3 1,3 -2,8 4,9 0,0 0,0 1,0 2,1 5,1 5,4 1,1 1,1 2,2 0,-4 -2,-6 -5,-9 1,-2 1,-1 3,0 3,1 1,6 5,6 -1,-5 1,-9 -1,-14 -1,-2 -1,-5 0,-7 2,1 3,2 5,2 2,2 3,5 3,8 0,4 0,7 2,10 0,-1 1,-1 2,-1 0,1 0,2 0,2 4,-7 7,-8 16,-7 3,1 6,0 9,-1 -3,-1 -4,-1 -6,0 -2,0 -2,-1 -2,-2 -2,0 -4,0 -6,1 -1,2 -5,2 -5,1 -2,-4 -5,-6 -6,-10 0,0 0,0 -1,0 0,0 0,0 0,0 1,0 1,0 1,0 2,-6 1,-8 -4,-8 0,-1 0,-1 -1,-1 0,-2 0,-4 -1,-6 0,-1 -1,-2 1,-3 2,-1 3,-2 5,-3 3,-2 7,-2 9,-5 3,-1 6,-3 8,-6 2,-1 5,-2 6,-4 4,-1 7,-4 10,-6 1,0 1,0 1,0 2,0 3,-1 4,-2 2,-2 5,-3 8,-2 4,0 4,-2 2,-4 0,0 0,0 0,-1 1,0 2,0 3,0 0,0 0,0 0,-1 0,0 0,0 0,0 0,0 1,0 1,0 1,-1 1,-2 1,-3 0,0 0,0 0,0 0,0 0,0 0,0 0,0 1,0 1,0 0,0 0,0 1,-1 0,-1 1,-2 2,-2 3,-1 6,-3 8,-4 6,-4 7,-8 5,-14 0,0 0,0 -1,0 0,0 0,0 0,0 2,0 3,0 4,0 0,0 1,0 1,1 -1,0 -1,0 -1,0 -1,3 1,7 1,10 0,0 0,0 1,0 0,3 1,6 -2,9 3,-1 5,-1 7,0 0,0 0,0 0,1 0,0 0,1 1,1 1,1 1,2 2,3 1,4 2,10 9,6 0,0 1,1 2,2 0,-5 1,-11 0,-16 0,-1 0,-2 0,-2 -1,-9 -2,-10 -9,-11 -1,-1 -2,-2 -2,-2 3,1 5,-1 6,-3 0,0 1,0 1,0 5,-1 5,2 5,6 1,7 -1,15 4,21 0,0 0,0 0,-1 4,1 5,-1 6,-4 0,1 0,1 0,1 0,1 1,1 1,1 1,1 2,1 3,1 -1,-2 0,-3 3,-3 -1,-1 -1,-2 1,-3 0,2 1,3 2,2 2,-1 3,1 5,1 0,4 1,9 1,13 -1,3 1,2 3,2 2,1 3,-1 4,-1 2,-4 4,-8 8,-10 2,0 4,1 5,-2 1,1 1,1 2,1 0,1 0,1 0,1 3,1 3,-2 5,-4 2,1 5,0 8,2 -3,1 -4,2 -3,6 2,-2 4,-3 6,-1 1,1 3,3 1,6 0,0 0,0 0,0 1,0 1,0 1,0 0,-1 1,-1 1,-1 0,-2 0,-3 2,-3 -5,-4 -2,-10 -4,-15 3,2 3,2 4,-1 1,-1 1,-1 2,-1 2,0 4,0 5,0 3,-4 7,-3 11,-2 0,-2 0,-4 -2,-5 -1,1 1,3 -2,3 -5,-1 -10,2 -15,2 -3,0 -3,0 -3,-2 2,0 4,1 4,-2 1,-1 1,-1 1,0 3,3 6,-1 9,0 3,0 5,-3 8,-3 0,0 0,-1 0,-1 1,-1 2,-1 4,-1 0,0 0,0 1,0 1,1 2,1 3,2 4,2 6,-2 9,-3 5,-1 9,-1 9,5 0,1 0,1 0,2 4,-2 2,3 4,3 0,-5 0,-10 0,-14 0,-2 0,-4 3,-5 2,0 3,-1 4,-2 2,-2 4,-4 7,-4 0,1 -1,1 0,1 0,1 0,1 0,1 -4,3 -8,7 -13,9 0,1 1,2 2,4 1,0 3,-1 3,-2 1,-2 2,-3 4,-2 4,1 5,-1 6,-4 1,2 2,4 2,6 1,3 3,4 5,3 1,0 1,-1 0,-1 0,-1 0,-1 0,-1 2,-4 1,-9 1,-13 0,0 0,0 -1,0 0,0 0,0 0,0 1,0 1,0 1,0 0,0 1,0 1,0 0,1 0,3 0,4 0,0 0,1 0,1 1,4 0,7 0,11 0,1 1,1 1,2 1,-2 4,1 3,-2 -1,-4 1,-8 0,-12 1,1 2,1 2,1 1,1 1,1 2,0 0,0 0,-1 0,-1 -1,-3 0,-6 0,-8 0,-2 -1,-3 -1,-4 0,-1 0,-2 0,-3 2,2 3,2 4,-1 2,-5 2,-12 8,-14 1,-1 2,-1 2,-1 3,-1 6,0 5,-5 0,0 2,-2 4,-2 1,-1 1,2 2,2 0,1 0,2 0,4 2,0 2,0 2,-2 1,0 1,-1 0,-1 0,0 1,0 1,0 2,-2 2,-4 1,-6 0,0 0,0 0,0 1,0 1,0 1,0 1,2 1,3 2,4 0,3 0,5 4,4 0,0 0,0 0,0 0,0 0,0 1,0 -1,2 0,2 2,2 0,0 1,0 2,1 0,-2 -1,-4 -1,-6 0,0 0,0 0,0 0,0 0,0 0,1 0,-1 0,-1 0,-1 1,1 1,2 3,3 2,-2 1,-5 0,-7 -1,-4 -2,-9 -3,-13 0,0 0,0 0,0 1,-1 1,-2 2,-2 0,1 0,2 2,2 1,0 0,-2 1,-3 0,-1 0,-1 0,-1 1,0 1,-1 2,-1 1,0 2,3 4,1 0,-2 0,-4 -1,-5 -1,-1 -1,-1 -1,-2 0,0 0,0 0,0 3,-3 6,-6 9,-9 1,-2 3,-3 3,-6 3,2 7,4 9,7 1,-1 2,-2 3,-2 1,-1 2,-1 2,-3 0,0 0,0 0,0 0,-1 0,-1 1,-2 0,0 0,0 0,-1 0,-1 -1,-3 -2,-4 0,0 0,0 0,0 0,-1 0,-2 -1,-2 -1,0 -2,-1 -3,-1 0,0 0,0 -1,0 1,0 1,0 1,0 0,0 0,0 0,-1 0,1 0,1 0,1 1,2 2,2 3,1 1,-2 1,-4 3,-5 1,-1 3,-1 4,-2 3,-3 5,-6 10,-4 2,0 5,5 4,-2 -1,-1 0,-1 1,-2 0,0 0,0 0,0 1,0 1,0 2,0 0,0 1,0 2,0 4,1 5,0 4,-4 0,-1 -1,-1 -1,-2 0,0 1,0 1,0 -2,-4 -3,-8 3,-8 2,-1 3,-2 3,-3 -1,-2 0,-2 2,-2 0,0 0,0 0,0 0,0 0,0 0,0 0,3 2,6 6,6 3,1 3,-1 3,-3 2,1 3,2 5,1 0,-1 -1,-3 -1,-4 3,0 5,-2 6,3 0,1 4,4 6,1 3,2 5,4 7,5 2,1 2,1 3,-1 -2,-2 -5,-2 -5,-4 3,-1 5,0 6,3 1,2 2,4 3,3 2,-3 5,-3 8,-6 2,-3 2,-7 2,-10 1,0 2,0 3,1 0,0 0,0 0,0 0,1 0,1 0,2 1,0 1,1 1,1 1,1 2,2 3,0l0 0c1,-4 -2,-5 -5,-6 -3,-2 -6,-5 -8,-9 -1,-7 -1,-7 -7,-3 3,4 4,6 2,11 -2,5 -7,8 -11,11 -1,0 -2,-1 -3,-1 1,-4 3,-7 -2,-10 0,0 0,-1 1,-2 1,-1 2,-1 1,-3 -1,-1 -2,0 -3,0 -2,0 -4,1 -5,-1 0,-2 1,-2 3,-3 1,1 2,1 4,2 0,0 1,0 2,1 1,1 2,2 3,1 1,0 0,-1 -1,-1 -1,-2 -3,-3 -4,-3 0,0 -1,-1 -1,-1 3,-1 4,-2 2,-5 -2,-4 -5,-8 -10,-7 -1,0 -3,0 -4,0 -2,-1 -3,-2 -5,-3 0,-3 0,-7 0,-10 0,-1 -1,-3 1,-3 2,-1 3,-1 4,1 1,1 2,2 3,3 2,0 3,2 4,3 0,2 2,4 3,3 4,-1 6,3 10,4 1,0 3,3 5,1 0,2 0,3 2,3 1,0 2,-1 2,-2 5,3 4,-2 6,-4 2,-1 2,-2 -1,-4 -2,-2 -4,-4 -4,-6 2,0 2,1 3,2 1,2 3,1 3,0 2,-1 -3,0 -1,-2 1,-1 3,0 4,-2 0,-1 -2,0 -2,-1 6,-1 8,3 10,7 0,0 -1,0 -1,1 0,0 1,1 1,1 1,1 2,1 3,1 -1,2 -4,1 -6,3 1,1 2,2 3,3 3,2 6,2 8,0 1,-1 5,-5 0,-8 0,0 0,-1 1,-1 2,0 2,3 5,3 -1,-5 -7,-8 -8,-13 -1,0 -1,0 -1,0 0,0 1,0 1,0 1,-1 -3,-3 -1,-4 0,0 0,0 0,0 0,0 0,1 1,1 5,2 10,5 14,9 1,1 3,1 3,-1 0,-4 4,-5 7,-7 1,-1 1,-1 2,0 1,0 1,0 2,0 1,-1 3,-1 5,-2 1,0 2,0 3,-1 2,4 5,3 8,0 4,2 8,4 13,4 1,1 2,1 3,1 0,0 1,0 1,1 0,0 1,0 1,0 3,3 7,6 12,7 3,2 7,3 10,3 5,0 7,-3 5,-7 -1,-1 -2,-2 -2,-3z"></path>
  <path fill="#ee3537" d="M225 766c1-1 4-2 5-4-4-1-5 1-5 4zM225 748c2 0 4-1 6-4-3 0-5 2-6 4zM980 653c0-1 2-1 3-2-2 0-3 0-5 0-2-2-2 0-3 1-1 2 0 2 1 2 2 2 3 4 4-1zM937 675c1 0 2-1 2-2 0-1-2-2-3-1-1 0-2 0-1 1 0 1 1 2 2 2zM915 662c0-2 0-3-3-4 0 2 1 4 3 4zM933 646c2 0 3 0 5-1-2-1-4-2-5 1zM959 657c-1 0-1 0-1 1 0 1 1 1 1 1 1 0 1 0 1-1 0 0-1-1-1-1zM221 828c0 1 1 2 3 2 1-1 1-3 0-4-2 0-3 0-3 2zM224 805c-2 2-3 3-4 4 1 0 2 1 3 1 0 2-1 4 1 3 2-1 2-3 1-5-1-1-1-2-1-3zM260 828c-2-1-2 1-2 2-1 2-1 4-3 5 0 0 0 0-1 0 0 2-2 4 1 5 3 0 4 0 5-3l0 0c1-2 0-4 1-6-1-1 0-3-1-3zM373 883c-4 0-7 0-8 4 1 3 4 2 6 2 3-1 2-3 2-5 0 0 0 0 0 0 0-1 0-1 0-1zM300 834c0 0 1 1 1 1 1 0 1 0 1-1 0-1 0-1-1-1 0 0-1 0-1 1zM381 850c-1 0-2 1-3 2 0 1 0 3-1 4-1 5 1 10 0 15 3-7 4-14 7-20 0 0 0-1-1-2-1 0-1 0-2 1zM390 897c2 1 4-1 5-2 1 0 0-1-1-2-4-1-1 5-4 4zM779 829c0 3-1 6 1 8 3-5 1-10 0-15 0-1 0-3-1-4-1-1-2-1-1 1 0 3 0 7 1 10zM880 729c0-1-2-2-3-3 0-1-1-1-2-2-2-2-3-6-4-5-2 2 1 5 1 7 2 1 3 3 3 5 2 0 4 0 5-2zM868 716c0 1 0 1 1 1 0 0 1-1 1-1-1 0-1-1-2-1 0 0 0 1 0 1zM340 838c2 0 3 0 3-1 0 0 0-1 0-1-1 1-2 1-3 2zM562 902c5-2 7-5 5-9-2-3-5-5-9-4-3 1-3 0-2-2 1 0 1 0 1 0 0-1-1-3-1-3-2-2-1-8-4-7-3 1 1 5 0 8 0 0 0 2 0 2-5 1-6 6-9 9-1 2-1 5 3 5 1 0 2-1 2-2 2 2 4 2 7 2 0 1 1 2 1 2-3 5-7 4-11 4-4-1-9-3-11 2 0 4 4 4 7 4 5 0 9-1 14 1 1-2 0-3-1-4 1 0 2 0 3 0 1-4 3-2 5-2 1 0 1 0 1 0 0 0 0 0 0-1 1-1 0-1-1-2-1 0-1-1-1-2 0 0 0-1 0-1 1 0 1 0 1 0zM775 802c2 3-1 6 2 8-1-4 0-8-1-12-2 2-2 3-1 4z"></path>
  <path fill="#ee3537" d="M548 888c-2,-4 2,-8 -1,-12 -1,0 -1,-1 -1,-2 -1,0 -1,-1 -2,-1 -1,0 -1,1 -1,2 0,4 1,8 2,12 1,0 3,2 3,1z"></path>
  <path fill="#ee3537" d="M543 890c1-1 1-2 2-3 0-1-1 0-1 0-1 0-2 0-2 1 0 0 1 1 1 2zM539 902c1-1 1-1 1-2 0 0-1 0-1-1 0 0-1 1-1 1 0 0 1 1 1 2zM782 822c0 1 0 2 2 3 0-3 0-6-2-9-2 2-2 4 0 6zM779 802c2-2-2-5 1-6 4-3 2-5 1-8-2 5-5 9-2 14zM779 816c0-3 4-7 0-10-1 3 0 7 0 10zM667 851c4-1 7-5 11-4-1-2 1-3-1-5-2 4-7 4-10 9zM569 852c2-1 3 0 4-1-1 0-2-1-4 1zM826 780c0-2 0-3-1-5-1 2-2 4 1 5zM954 721c0-1 1-1 1-1 0 0 0 0 0 1 0 0-1 0-1 0zm1-7c-6-3-11-5-18-7-2 0-4 0-5 2-2 2 0 4 2 5 3 4 7 5 12 6 6 3 13 3 20 3 1 0 2 1 2 0 0-2-1-2-1-3-4-3-7-5-12-6zM78 403c0 1-1 1-2 0-1 0-2 1-3 2 0 1 1 1 2 2 1 1 1 1 2 2 2-2 5-3 7 0 1 1 2 1 3 0 0-2 0-4 1-6 1-1 1-2-1-2-3 1-7-4-9 2zM993 477l0 0c-1-2-3-1-5-1-6 0-12 0-17-1-1 0-2 0-2 0-3-1-6 0-9 0 0 1-1 1-1 2 3 1 6 1 8 2 1 0 1 0 1 0 3 2 6 1 9 1 4 1 8 2 12 3 0 0 1 0 1 0 7 3 14 2 21 1-6-2-11-7-18-7zM792 846c-3-4-5-3-8-2 0 0 0-1 0-1 0 0 0 1 0 1-1 0-2 0-3 0-2 0-3 1-3 4 0 2 0 5 2 7 1 1 3 2 4 2 4 1 7 2 10-1 3-3 0-6-1-8 0-1-1-2-1-2zM997 501c-6-3-13-5-20-4-1 0-1 0-1 2 0 4-5 2-6 4 2 2 4 3 7 4 0 2 2 2 3 3 6 1 11 3 17 3 4 2 7 4 11 0 1 0 2 0 2-1 0-2-1-2-2-2-1-1-2-2-3-2 0-5-5-5-8-7zM889 714c1-1 2 0 2 1 5 3 11 3 16 4-5-4-10-7-15-8-2 0-5-1-3 3zM977 253c4-3 9-5 14-5 1 1 2 1 3 1 2 1 5 0 6-2 1-2 1-3 0-5-2-2-5-2-7-1-2 1-3 2-4 3-3 1-7 2-10 1-1 0-1 0-2 0-2-1-5 0-7-1-1 0-1 0-2 0-5 0-8 3-12 6-3 3-2 4 2 5 6 3 13 2 19-2zM1033 509c-3-3-7-1-10-1-2-1-3-2-5-1 1 3 4 2 5 3 2 4 6 3 9 2 3 0 3-1 1-3zM946 183c1-1 1-2 0-2-2-1-4 1-6 2-2 0-4 1-4 3 0 1 1 2 1 2 4-1 7-3 9-5zM1035 480c-2-2-5-3-8-4-1 0-2 0-2 1-1 1 0 2 1 2 3 2 6 2 9 2 1 0 1-1 0-1zM982 885c-2-1-3-2-5-2 0 3 2 4 4 5 1 2 3 3 6 4 2 1 4 3 6 2 0-2-2-3-3-4-2-3-5-4-8-5zM1028 465c-4 0-8 0-12 3 5 2 9-1 12-3zM994 573c-3-1-6-1-8-1-2 0-2 1-1 2 6 2 12 0 19 0-3-2-7-1-10-1zM960 401c-1 0-2 0-2 2-1 1 0 2 1 2 3 0 6 0 9-1-3-1-5-2-8-3zM994 650c-2-3-4-4-8-3 1 3 4 4 6 5 2 1 3 2 5 2 1 1 2 1 3 2 1 0 2 2 3 1 1-1 0-2-1-3-2-1-4-4-8-4zM972 711c1 3 3 4 6 4 1 0 1 0 1-2-1-2-3-3-5-3-1 0-2 0-2 1zM72 418c1 0 1 1 2 1 1-1 2-3 1-3-6-3 0-5 1-7-1 0-2 0-3 0-3 3-3 6-1 9zM926 447c4 2 9 1 14 1 0 1 1 1 2 1 2 2 4 3 7 2 0 0 0-1 0-1-1-3-4-3-7-3-1 0-2-1-3-2-2-2-4-5-6-7 1-3 1-5-1-7 0-1 1-2 0-3 0-2 3-4 0-5-3-1-4 2-6 3-2 3 1 4 2 6 1 3-1 4-3 5-3 1-5 1-5 4 0 4 3 5 6 6zM988 748c3 2 5 3 8 3-3-4-3-4-8-3zM984 386c3 1 5-1 9-3-5-2-7 0-9 3zM918 722c-2-2-5-2-8-3 3 4 4 4 8 3zM977 372c0 0 0 1 0 1 3 1 5-1 7-1 0 0 0-1 0-1 0 0 0-1 0-1-2 1-5 0-7 2zM1026 866c0 2-2 6 4 6 1-3-3-3-2-6 0-1-1-1-2 0zM1032 524c-4 0-8 0-12 0 0 1 0 1 0 1 3 1 5 1 8 2 1-2 3-1 4-3zM105 498c0 2 0 3 2 3 1 0 2 0 3-2 0-1-1-2-2-3-2 0-3 1-3 2zM992 301c2-3 0-3-2-3-2 0-4 2-5 4 2 0 5 1 7-1zM78 484c1 0 1-1 0-2-1-1-2 0-2 0-1 1-2 1-3 1 1 2-2 1-2 2l1 0c0 1 1 2 1 3 2-1 4-2 5-4zM1031 327c0-1-1 0-1 0-4 1-6 5-10 5 4 3 8 0 12-1 1-1 0-1 0-1 0 0 0 0 0 0 0 0 0 0 0 1 1 1 1 2 3 2 0-1 0-1 0-2 1-1 2-1 1-2 0-1-1-1-1 0 0-1 0-1 0-1-2-1-3-1-4-1zM1030 616c1 0 2-1 3-1-1-2-3-2-5-2-2 0-4-1-6-1-1 0-1-1-2-1-2-2-5-1-7-1-1 0-2 1-2 2 0 1 2 1 3 1 4 3 9 1 13 2 1 0 2 1 3 1zM879 795c1 0 2-1 1-1-1-2-2-3-5-3 1 3 2 4 4 4zM976 363c0 0 0 0 0 0 0 0 0 0 0 0 0 0 0 0 0 0zm35-23c1 0 2 0 3-1 3 0 5-1 3-5-1 0-1 0-1 0-3-2-5-5-9-2-3-1-4 2-6 4 0 1 0 2 1 3 0 0 0 0-1 0-2 0-4-1-6 0-2 0-6-2-8 2-2 4-6 5-9 8-2 1-4 1-5 4 1 0 2 0 3 0-1 0-1 0-2 0 0 1 0 1 1 1l0 0c-1 0-1 0-1-1-3 3-7 6-8 11-1 1-1 3 1 3 3 1 5 1 7-1 4-2 7-4 9-9 1 0 2-2 3-3 1 0 1-2 2-3 2 0 4 0 6 0 0 0 1 0 1 0 4-6 9-9 16-11 0 0 0 0 0 0zM1026 913c0 1 1 2 2 2 1 0 2 0 2-1-1-1-1-2-2-2-1 0-2 0-2 1zM918 423c2 1 3 0 5-2-3-1-4 1-5 2zM986 707c0 0 0 1 0 1 1 2 2 3 4 2-1-2-2-3-4-3zM1023 538c-1-2-3-1-5-1 2 2 3 2 5 1zM1030 486c0 1 0 1 0 1 1 2 2 2 4 1-1-2-2-2-4-2zM81 414c0-1-1-2-2-2-1 0-1 1-1 2 0 0 0 1 1 1 1 0 1 0 2-1zM1001 612c-1-1-3-1-6-1 3 1 4 2 6 1zM940 418c-1-1-2 0-4 1 2 0 3 1 4 0 0 0 0-1 0-1zM1029 669c0 0 0 0-1-1-1-1-3-2-5-2 1 3 3 3 5 4 1 1 2 2 4 2 0 0 0-1 0-1 0-2-2-1-3-2zM1022 486c-1-1-2-2-4-1 1 2 3 1 4 1zM130 736c0 0 0 1 1 1 1 0 1 0 1-1 0-1 0-1-1-2-1 0-1 1-1 2zM864 783l0 0c-2-1-4-4-6-5 0-1-1-2-2-2-2 0-3-1-4 1-1 1 0 2 1 3 3 2 6 4 9 5 2 0 3 1 4 0 1-1-1-2-2-2zM986 732c1 1 2 2 3 0 0-1-2-1-4-1 1 1 1 1 1 1zM1009 740c1 0 1 1 2 1 1 0 1-1 1-1-1-1-1-1-2-1 0 0-1 0-1 1zM1023 267c-1 0-2-1-3-1 0 2 1 3 3 3 1 0 0-1 0-2zM985 404c1 0 1-1 1-1 0-1 0-1-2-1 0 0 0 1 0 1 0 1 1 1 1 1zM89 492c0 0 0 0 1 0-1-1-1-1-1-1-1 0-1 0-1 0 0 1 0 1 1 1zM1030 689c1 0 2 1 1-1 0-1-1-1-2-1 0 1 1 1 1 2zM23 292c0 0-1-1-2 0 0 0 1 3-1 0-1-1-1-3-3-3-3 1-3 3-3 5 2 1 5 1 8 1 1 1 1-1 2-1 1-1 0-1-1-2zM1031 390c4 2 5 0 5-4-2 1-3 2-5 4zM1029 271c1 2 3 2 5 2-2-1-2-3-5-2zM1031 395c-1 2 0 4 2 4 0-1 0-3 0-4-1-1-2-1-2 0zM82 354c-2-1-3-1-2 2 0 0 1 1 2 0 1-1 0-2 0-2zM79 378c1-1 0-1-1-2-1 0-2 1-2 1 0 1 1 2 2 2 0 0 1 0 1-1zM44 308c1 0 3 0 2-1 0-2-2-2-4-2-1 0-3-1-3 1 1 2 3 2 5 2zM807 153c4 1 4-2 5-4-2 1-4 1-5 4zM812 167c-3 0-5 1-6 3 2 0 4-1 6-3zM56 261c0 1-1 2-2 3 1 0 3 0 4 0 2 2 3 0 4-2 0-1-1-1-2-1-1-2-3-4-4 0zM98 242c0 1 1 1 2 1 1 0 2 0 2-1-1-1-1-3-3-2 0 0-1 1-1 2zM121 253c0 2 1 3 3 4 0-2 0-4-3-4zM103 269c-1 0-3-1-4 1 2 1 3 2 4-1zM78 258c1 0 1-1 1-1-1-1-1-1-2-1 0 0-1 0-1 1 1 0 1 1 2 1zM816 87c0-2-1-2-3-2-1 1-1 2 0 4 1 0 3 0 3-2zM813 109c1-1 2-2 3-4-1 0-2 0-2-1 0-1 0-3-2-2-2 1-2 3 0 4 0 1 1 2 1 3zM777 87c1 0 1-1 2-2 1-2 1-4 2-5 0 0 1 0 1 0 0-2 2-4-1-6-2 0-4 1-4 3l0 0c-2 2-1 5-1 7 0 1-1 3 1 3zM664 32c3 0 6 0 8-4-1-4-4-2-7-2-2 0-1 3-2 4 1 1 1 1 1 1 0 1 0 1 0 1zM736 81c0-1 0-1 0-1-1 0-2 0-2 1 0 0 0 1 1 1 1 0 1-1 1-1zM656 65c0-1 1-1 2-2 0-1 1-3 2-4 0-5-1-10 0-15-3 6-4 13-7 20 0 0 0 1 0 1 1 1 2 1 3 0zM647 18c-3-2-4 0-5 2-1 0 0 1 1 2 4 1 0-5 4-4zM258 86c-1-3 1-6-1-9-3 5-1 11-1 16 1 1 1 3 1 4 1 0 2 0 2-1 0-3 0-7-1-10zM157 186c-1 1 2 1 2 2 1 1 1 2 2 3 2 1 3 6 5 5 2-2-1-5-2-7-2-1-3-3-3-5-2-1-4 0-4 2zM169 199c0-1-1-1-2-1 0 0 0 0 0 1 0 0 1 0 1 1 0 0 1-1 1-1zM696 77c-1-1-2 0-2 1 0 0 0 0 0 1 1-1 1-2 2-2zM475 13c-6 2-8 4-5 8 2 4 4 6 8 5 4-1 3 0 2 2 0 0 0 0-1 0 1 1 1 2 2 3 2 2 0 7 4 6 2 0-1-4-1-7 0 0 0 0-1 0 0 0 0 0 0 0 1 0 1 0 1 0 1-1 1-2 1-2 5-2 6-6 8-10 2-2 2-4-2-4-2 0-2 0-2 2-2-2-5-3-8-2 0-1 0-2-1-2 3-5 7-5 12-4 4 1 8 2 11-3-1-4-4-4-7-4-5 0-10 2-15 0 0 2 1 2 1 3-1 0-2 0-2 1-2 4-4 2-6 1 0 0-1 0-1 0 0 1 0 1 0 1 0 2 1 2 1 3 1 0 1 1 2 2 0 0-1 0-1 0 0 1 0 1 0 1zM262 112c-2-2 0-5-2-8 0 4-1 8 1 12 1-1 1-2 1-4z"></path>
  <path fill="#ee3537" d="M489 27c1,4 -2,8 1,11 0,1 1,2 1,2 0,1 1,2 2,2 1,0 1,-2 1,-2 -1,-4 -2,-8 -2,-12 -1,0 -3,-2 -3,-1z"></path>
  <path fill="#ee3537" d="M493 25c0 1-1 2-1 3 0 1 0 0 1 0 1 0 2 0 1-1 0-1 0-1-1-2zM497 13c0 1 0 1 0 1 0 1 0 1 1 1 0 0 0 0 0 0 0-1 0-1-1-2zM255 93c0-2-1-3-2-3 0 3-1 6 2 9 2-2 1-4 0-6zM258 113c-3 1 1 5-1 6-4 2-3 5-1 8 1-5 4-9 2-14zM258 99c0 3-4 6 0 9 1-3 0-6 0-9zM369 64c-4 0-6 5-10 4 0 2-1 3 0 5 2-5 8-4 10-9zM463 64c2 0 3 0 5-1-2 0-3 0-5 1zM210 135c1 2 0 3 1 5 2-2 3-4-1-5z"></path>
  <path fill="#fefefe" fill-rule="nonzero" d="M748 342c-5,-21 -21,-37 -42,-42 -38,-11 -188,-11 -188,-11 0,0 -150,0 -188,10 -20,6 -36,22 -42,43 -10,37 -10,115 -10,115 0,0 0,79 10,116 6,20 22,37 42,42 38,10 188,10 188,10 0,0 150,0 188,-9 21,-6 37,-22 42,-43 10,-37 10,-115 10,-115 0,0 1,-79 -10,-116z"></path>
  <polygon fill="#ee3537" fill-rule="nonzero" points="456 529 581 457 456 385"></polygon>
</svg>
